<svg width="98" height="24" viewBox="0 0 98 24" fill="none" xmlns="http://www.w3.org/2000/svg">
<path d="M40.7949 0.979772C40.8647 0.925923 40.9372 0.917843 41.007 0.952846C41.0769 0.987848 41.1144 1.04978 41.1144 1.13863V13.5833C41.1144 14.2403 41.1762 14.7707 41.2997 15.18C41.4233 15.6754 41.6703 15.9608 42.0436 16.0308C42.0597 16.0496 42.1268 16.0523 42.2423 16.0443C42.3578 16.0362 42.433 16.0308 42.4679 16.0308C42.5565 16.0308 42.6129 16.0793 42.6397 16.1762C42.6666 16.2731 42.6344 16.3485 42.5457 16.4024C41.7858 16.8278 41.0258 17.0405 40.2659 17.0405C39.0279 17.1105 38.1713 16.7389 37.6933 15.9231C36.8984 16.6312 36.0042 17.0136 35.0133 17.0674H34.5353C33.7404 17.0324 33.002 16.7874 32.3199 16.335C31.6378 15.8827 31.0953 15.2904 30.6899 14.5526C30.2844 13.8176 30.0534 13.0071 29.9997 12.1186C29.9111 10.6647 30.2924 9.40189 31.141 8.33028C31.9896 7.25867 33.0691 6.68516 34.3769 6.61515C35.5074 6.54515 36.5252 6.88171 37.4274 7.62484V5.86934C37.4274 5.01851 37.3254 4.375 37.1213 3.94151C36.9172 3.50802 36.5789 3.24685 36.1009 3.158C35.9773 3.14184 35.9156 3.06915 35.9156 2.9453C35.9156 2.82144 35.9773 2.75951 36.1009 2.75951C36.8796 2.72451 37.6557 2.56026 38.4345 2.26678C39.2132 1.9733 39.7503 1.7256 40.051 1.52097C40.3518 1.31634 40.5989 1.13594 40.7949 0.977086V0.979772ZM34.2721 6.96249C34.2184 6.96249 34.1567 6.97057 34.0868 6.98941C33.5739 7.13212 33.292 7.69484 33.2383 8.6776C33.1846 9.66036 33.3349 10.7831 33.6894 12.0405C34.0251 13.3006 34.4359 14.3184 34.922 15.0992C35.408 15.88 35.8914 16.2704 36.3667 16.2704C36.4204 16.2704 36.4822 16.2543 36.552 16.2166C37.0649 16.0739 37.3469 15.5165 37.4006 14.5418C37.4543 13.5672 37.3039 12.4498 36.9494 11.1924C36.6138 9.935 36.2029 8.90916 35.7169 8.12026C35.2308 7.33136 34.7474 6.94633 34.2721 6.96249Z" fill="#848484"/>
<path d="M47.8762 6.59058C48.3354 6.59058 48.7946 6.64713 49.2564 6.7629C49.7156 6.87868 50.1587 7.05907 50.583 7.30678C51.0073 7.55449 51.3618 7.85606 51.6437 8.21146C51.872 8.51302 52.0331 8.84958 52.1217 9.22115C52.2104 9.59271 52.2157 9.95351 52.1352 10.2981C52.0546 10.6428 51.8612 10.9443 51.5524 11.2028C51.2436 11.4613 50.8328 11.6148 50.3198 11.6686L46.4476 12.121C46.6248 12.9718 46.9793 13.6638 47.5083 14.1942C48.04 14.7273 48.6093 15.0531 49.2189 15.1769C49.8284 15.3008 50.4299 15.2523 51.0234 15.0315C51.6169 14.8108 52.0707 14.4257 52.3903 13.8738C52.4064 13.8576 52.4171 13.8388 52.4171 13.8199C52.5406 13.5722 52.6642 13.4753 52.7877 13.5264C52.8763 13.5803 52.9112 13.6584 52.8951 13.7661C52.3124 15.947 50.6582 17.0374 47.9352 17.0374C47.1753 17.0374 46.4502 16.9001 45.7601 16.6255C45.07 16.3509 44.455 15.9308 43.9179 15.3627C43.3782 14.7946 43.0022 14.1296 42.7901 13.3676C42.6827 13.066 42.6128 12.7295 42.5779 12.3579C42.5081 11.5609 42.5565 10.8259 42.723 10.1501C42.8921 9.47693 43.1795 8.86843 43.585 8.32724C43.9904 7.78605 44.5571 7.36064 45.2821 7.051C46.0072 6.74136 46.8745 6.5852 47.8815 6.5852L47.8762 6.59058ZM47.852 6.98907C47.3928 6.98907 47.0115 7.26909 46.7107 7.82643C46.41 8.38378 46.2461 9.01382 46.2193 9.71387C46.1924 10.4139 46.2408 11.0924 46.3643 11.7494C47.3552 11.6255 48.1232 11.3671 48.671 10.9793C49.2189 10.5889 49.4578 9.99659 49.388 9.19692C49.3531 8.84151 49.3048 8.53995 49.243 8.29224C49.1813 8.04453 49.0926 7.81297 48.9772 7.60026C48.8617 7.38756 48.7113 7.2314 48.526 7.13447C48.3407 7.03754 48.1152 6.98907 47.8493 6.98907H47.852Z" fill="#848484"/>
<path d="M57.5596 0.979424C57.6294 0.909419 57.71 0.898648 57.7986 0.952497C57.8523 0.9875 57.8792 1.04943 57.8792 1.13828V14.0892C57.8792 14.8861 57.9866 15.4677 58.1987 15.8312C58.4109 16.1947 58.7653 16.4128 59.2594 16.4828C59.4018 16.5016 59.4716 16.5636 59.4716 16.6686C59.4716 16.8113 59.4098 16.8813 59.2863 16.8813H52.8146C52.6722 16.8813 52.6024 16.8113 52.6024 16.6686C52.6024 16.5609 52.6722 16.4989 52.8146 16.4828C53.3624 16.4128 53.7303 16.2001 53.9156 15.8447C54.1009 15.4893 54.1948 14.905 54.1948 14.0892V5.87168C54.1948 5.02086 54.0928 4.37735 53.8887 3.94386C53.6846 3.51037 53.3543 3.2492 52.8951 3.16034C52.7367 3.12534 52.6561 3.05264 52.6561 2.94763C52.6561 2.82378 52.7367 2.76185 52.8951 2.76185C53.6551 2.72685 54.4231 2.56261 55.2019 2.26913C55.9806 1.97565 56.5177 1.72794 56.8211 1.52331C57.1219 1.31868 57.3689 1.13828 57.565 0.979424H57.5596Z" fill="#848484"/>
<path d="M65.9407 0.952493C66.2602 0.952493 66.5825 1.00096 66.9101 1.09789C67.2377 1.19482 67.5599 1.34291 67.8795 1.53677C68.1991 1.73332 68.4327 2.01064 68.5831 2.37413C68.7334 2.73761 68.763 3.15764 68.677 3.63691C68.5884 4.15117 68.3709 4.53351 68.0272 4.78122C67.6835 5.02892 67.3209 5.13663 66.9396 5.10162C66.5583 5.06662 66.228 4.92392 65.946 4.67621C65.7339 4.49851 65.6184 4.26426 65.6023 3.97078C65.5835 3.6773 65.6453 3.45113 65.7876 3.29227C65.8413 3.22226 65.9595 3.16034 66.1448 3.10649C66.33 3.05264 66.4938 2.97456 66.6362 2.86686C66.7785 2.75916 66.8671 2.59222 66.902 2.36067C66.9369 2.09411 66.8671 1.85987 66.6899 1.65524C66.5126 1.45061 66.2736 1.34829 65.9729 1.34829C64.982 1.34829 64.4879 1.90564 64.4879 3.02302C64.4879 3.35958 64.5765 3.70961 64.7537 4.0731C64.931 4.43658 65.1082 4.87007 65.2854 5.37626C65.4627 5.88245 65.5513 6.4721 65.5513 7.14522H67.4069C67.5304 7.14522 67.5922 7.21254 67.5922 7.34447C67.5922 7.4764 67.5304 7.54371 67.4069 7.54371H65.5513V14.0865C65.5513 14.8673 65.6587 15.4435 65.8708 15.815C66.083 16.1866 66.4375 16.4101 66.9316 16.4801C67.0739 16.4989 67.1437 16.5609 67.1437 16.6659C67.1437 16.8086 67.0739 16.8786 66.9316 16.8786H60.4867C60.3444 16.8786 60.2745 16.8086 60.2745 16.6659C60.2745 16.5582 60.3444 16.4962 60.4867 16.4801C61.0184 16.4101 61.3782 16.2001 61.5743 15.8554C61.7676 15.5108 61.867 14.9211 61.867 14.0865V7.54371H60.8062C60.6639 7.54371 60.5941 7.4764 60.5941 7.34447C60.5941 7.21254 60.6639 7.14522 60.8062 7.14522H61.867C61.867 4.9293 62.1892 3.34343 62.8364 2.3849C63.4809 1.42637 64.5201 0.949806 65.9541 0.949806L65.9407 0.952493Z" fill="#848484"/>
<path d="M73.1267 6.64444C73.1805 6.59059 73.2449 6.57713 73.3255 6.60405C73.406 6.63098 73.4436 6.69829 73.4436 6.8033V14.0892C73.4436 14.6223 73.4866 15.0504 73.5752 15.3789C73.6638 15.7074 73.8088 15.9605 74.0129 16.1355C74.217 16.3132 74.4855 16.429 74.8212 16.4801C74.9635 16.499 75.0333 16.5609 75.0333 16.6659C75.0333 16.8086 74.9716 16.8786 74.8481 16.8786H68.3763C68.234 16.8786 68.1642 16.8086 68.1642 16.6659C68.1642 16.5582 68.234 16.4963 68.3763 16.4801C68.9241 16.4101 69.292 16.1974 69.4773 15.842C69.6626 15.4866 69.7566 14.9023 69.7566 14.0865V11.534C69.7566 10.6832 69.6546 10.0397 69.4505 9.60618C69.2464 9.17269 68.9161 8.91152 68.4569 8.82266C68.3146 8.78766 68.2447 8.71496 68.2447 8.60995C68.2447 8.4861 68.3146 8.42417 68.4569 8.42417C69.2168 8.38917 69.9849 8.21955 70.7636 7.91799C71.5424 7.61643 72.0794 7.36872 72.3829 7.17216C72.6837 6.97831 72.9307 6.80061 73.1267 6.63906V6.64444ZM71.298 0.925591C71.8297 0.925591 72.3184 1.12484 72.7696 1.52332C73.2207 1.92181 73.4463 2.44146 73.4463 3.07958C73.4463 3.6827 73.2395 4.19696 72.8233 4.62238C72.4071 5.04779 71.8995 5.26049 71.298 5.26049C70.7851 5.26049 70.299 5.05587 69.8399 4.6493C69.3807 4.24274 69.1497 3.7177 69.1497 3.07958C69.1497 2.49531 69.3565 1.98912 69.7727 1.56371C70.1889 1.1383 70.6965 0.925591 71.298 0.925591Z" fill="#848484"/>
<path d="M80.925 6.56367C80.9599 6.56367 80.9948 6.57174 81.0324 6.59059C81.0861 6.62559 81.1129 6.68752 81.1129 6.77637V7.75913C81.7494 6.99716 82.6248 6.61482 83.7392 6.61482C85.7559 6.61482 87.0986 7.36065 87.77 8.84959C88.4064 7.4495 89.5477 6.70367 91.1911 6.61482C93.7556 6.61482 95.2326 7.85607 95.6193 10.3385L96.0704 14.0892C96.159 14.87 96.3255 15.4408 96.5753 15.8043C96.8223 16.1678 97.2036 16.394 97.7165 16.4828C97.875 16.5017 97.9555 16.5636 97.9555 16.6686C97.9717 16.8113 97.9018 16.8813 97.7434 16.8813H91.3254C91.1669 16.8813 91.0864 16.8113 91.0864 16.6686C91.0864 16.5609 91.1669 16.499 91.3254 16.4828C91.8383 16.394 92.1659 16.1759 92.3055 15.8312C92.4479 15.4866 92.464 14.905 92.3592 14.0892L91.935 9.96698C91.8463 9.24 91.6073 8.6342 91.218 8.14416C90.8286 7.65682 90.3237 7.4495 89.7061 7.5195C88.5568 7.67836 88.0627 8.75267 88.2211 10.737L88.6185 14.0865C88.7259 14.8673 88.9005 15.4381 89.1502 15.8016C89.3973 16.1651 89.7786 16.3913 90.2915 16.4801C90.4499 16.499 90.5305 16.5609 90.5305 16.6659C90.5305 16.8086 90.4607 16.8786 90.3184 16.8786H83.9003C83.7419 16.8786 83.6613 16.8086 83.6613 16.6659C83.6613 16.5582 83.7419 16.4963 83.9003 16.4801C84.4132 16.3913 84.7355 16.1732 84.8698 15.8285C85.0013 15.4839 85.0255 14.9023 84.9369 14.0865L84.5126 9.96428C84.4052 9.1673 84.193 8.50496 83.8762 7.98261C83.5566 7.46027 83.0974 7.24217 82.4959 7.33103C81.9293 7.40103 81.5587 7.72683 81.3815 8.30302C81.2042 8.87921 81.1156 9.80543 81.1156 11.0817V14.0865C81.1156 14.8835 81.223 15.465 81.4352 15.8285C81.6473 16.192 82.0018 16.4101 82.4959 16.4801C82.6382 16.499 82.708 16.5609 82.708 16.6659C82.708 16.8086 82.6463 16.8786 82.5227 16.8786H76.051C75.9087 16.8786 75.8389 16.8086 75.8389 16.6659C75.8389 16.5582 75.9087 16.4963 76.051 16.4801C76.5988 16.4101 76.9667 16.1974 77.152 15.842C77.3373 15.4866 77.4313 14.9023 77.4313 14.0865V11.534C77.4313 10.9309 77.4044 10.4705 77.3507 10.1501C77.297 9.82966 77.1735 9.54695 76.9801 9.29924C76.7841 9.05153 76.5022 8.88191 76.1316 8.79305C75.9892 8.75805 75.9194 8.68535 75.9194 8.58035C75.9194 8.45649 75.9892 8.38648 76.1316 8.36764C76.8915 8.35148 77.6596 8.18993 78.4383 7.88837C79.2171 7.58681 79.7541 7.33911 80.0576 7.14256C80.3583 6.9487 80.6054 6.77099 80.8014 6.60944C80.8363 6.57444 80.882 6.5556 80.933 6.5556L80.925 6.56367Z" fill="#848484"/>
<path d="M20.0075 22.9986C19.8571 22.9852 19.7068 22.9636 19.5564 22.9394C16.1352 22.382 13.6915 19.4445 13.6351 16.0897C13.6271 15.6723 13.6566 15.2523 13.7264 14.8269C13.8231 14.2292 13.9923 13.6584 14.2232 13.1279C15.2007 13.2222 16.1433 13.5237 16.9918 13.9976C17.0294 14.0192 17.0644 14.038 17.1019 14.0596C17.1315 14.0757 17.161 14.0946 17.1879 14.1107C18.5252 14.9185 19.6047 16.1732 20.1794 17.7617C20.8185 19.5334 20.7084 21.3966 20.0102 22.9986H20.0075Z" fill="#848484"/>
<path d="M26.4659 11.9056C25.663 13.0606 24.5083 13.9842 23.0877 14.5011C21.0844 15.2281 18.9657 14.9885 17.239 14.0192C17.2094 14.003 17.1826 13.9868 17.153 13.9707C16.2749 13.4618 15.5042 12.7618 14.9054 11.9056C15.4881 11.0709 16.2454 10.3735 17.1155 9.86196C18.4823 9.0569 20.1284 8.70687 21.8148 8.98151C23.7725 9.29922 25.4105 10.3978 26.4632 11.9082L26.4659 11.9056Z" fill="#848484"/>
<path d="M12.1797 11.981C11.6319 12.7456 10.931 13.4053 10.0986 13.9061C10.0556 13.933 10.0099 13.9599 9.96429 13.9842C9.93475 14.0003 9.90789 14.0165 9.87835 14.0326C9.55611 14.213 9.21238 14.3692 8.85523 14.4984C5.84762 15.5889 2.58221 14.5038 0.777649 12.0456C2.28951 9.94004 4.90506 8.75266 7.63339 9.19692C8.39066 9.32077 9.10228 9.5604 9.74946 9.89696C9.80854 9.92927 9.8703 9.96158 9.92938 9.99389C10.8209 10.4893 11.5836 11.1732 12.1797 11.9783V11.981Z" fill="#848484"/>
<path d="M13.466 17.3121C12.9396 20.5538 10.2972 22.9205 7.18222 23.2194C7.08287 23.0121 6.99425 22.7967 6.91369 22.5759C5.73481 19.3072 7.10435 15.737 10.0019 14.0542C10.0475 14.0272 10.0932 14.003 10.1388 13.9761C10.4584 13.8011 10.794 13.6476 11.1458 13.5184C11.7151 13.311 12.2925 13.1845 12.8671 13.1279C13.2887 14.0138 13.5331 14.9912 13.5546 16.0116C13.5546 16.0385 13.5546 16.0655 13.5546 16.0924C13.56 16.4936 13.5277 16.9028 13.4633 17.3121H13.466Z" fill="#848484"/>
<path d="M13.5089 7.84797C13.5089 8.86304 13.2887 9.85388 12.8806 10.7586C12.6872 10.7424 12.4912 10.7209 12.2978 10.6885C11.4627 10.5512 10.6866 10.2766 9.99111 9.88619C9.96426 9.87273 9.9374 9.85657 9.91055 9.84041C9.54534 9.6304 9.20161 9.38808 8.88474 9.11883C8.8552 9.09459 8.82566 9.07036 8.79881 9.04613C8.74241 8.99767 8.68602 8.9465 8.62963 8.89534C8.60278 8.86842 8.57324 8.84419 8.54638 8.81727C8.49267 8.76611 8.43897 8.71226 8.38526 8.65841C8.36109 8.63418 8.33692 8.60995 8.31276 8.58302C8.25905 8.52648 8.20534 8.46993 8.15432 8.4107C8.13015 8.38377 8.10598 8.35416 8.08181 8.32723C7.93412 8.15761 7.79717 7.97721 7.66558 7.79412C7.6441 7.7645 7.62262 7.73219 7.60114 7.70257C7.58502 7.68103 7.5716 7.65949 7.55549 7.63526C7.53937 7.61372 7.52595 7.58949 7.50983 7.56526C7.49641 7.54372 7.48298 7.52487 7.46955 7.50333C7.45075 7.47371 7.43196 7.44679 7.41585 7.41717C7.39705 7.38755 7.38094 7.35794 7.36214 7.32832C7.31112 7.24216 7.26278 7.156 7.21444 7.06984C7.19833 7.03753 7.17953 7.00792 7.16342 6.97561C7.16342 6.97561 7.16342 6.97022 7.16074 6.96753C7.14462 6.93522 7.12583 6.90021 7.10971 6.8679C7.09629 6.84097 7.08286 6.81136 7.06943 6.78443C7.04526 6.73597 7.02378 6.6902 7.0023 6.64173C6.99155 6.6175 6.98081 6.59327 6.97007 6.57173C6.92979 6.48019 6.88951 6.38864 6.8546 6.29441C6.84118 6.2621 6.83044 6.22978 6.81701 6.19747C6.79284 6.13824 6.77136 6.07631 6.75256 6.01708C6.73913 5.98208 6.72839 5.94707 6.71496 5.90937C6.70691 5.88783 6.70154 5.8663 6.69348 5.84476C6.68542 5.81783 6.67737 5.7936 6.66931 5.76667C6.66126 5.73975 6.6532 5.71013 6.64515 5.68321C6.6344 5.6482 6.62366 5.61051 6.61561 5.57551C6.59412 5.50012 6.57533 5.42473 6.55653 5.34934C6.54847 5.31434 6.54041 5.27933 6.53236 5.24702C6.52699 5.22818 6.5243 5.20933 6.52162 5.19048C6.51625 5.16087 6.50819 5.13124 6.50282 5.10163C6.47865 4.98046 6.45717 4.85661 6.43837 4.73276C6.433 4.70314 6.43031 4.67621 6.42763 4.64659C6.41152 4.53351 6.40077 4.42312 6.39003 4.31003C6.38735 4.27234 6.38466 4.23734 6.38198 4.19965C6.38198 4.15657 6.37661 4.11618 6.37392 4.0731C6.37392 4.04618 6.37392 4.01925 6.37124 3.99232C6.35244 3.52652 6.37929 3.04995 6.45717 2.57338C6.55921 1.94334 6.74182 1.34829 6.99156 0.79364C9.66887 1.00365 12.1072 2.74301 13.0793 5.44088C13.3666 6.23517 13.5009 7.0483 13.5009 7.84527L13.5089 7.84797Z" fill="#848484"/>
<path d="M20.3888 4.84047C20.0424 6.97561 18.7776 8.73112 17.0617 9.76773C17.0348 9.78388 17.0079 9.80004 16.9811 9.81619C16.154 10.3008 15.2276 10.6186 14.2501 10.7316C14.1803 10.5755 14.1158 10.4166 14.0567 10.2524C13.7694 9.45809 13.6351 8.64496 13.6351 7.84798C13.6351 4.95355 15.4209 2.23952 18.2889 1.19752C18.8098 1.00905 19.3415 0.8852 19.8679 0.823273C20.413 2.04028 20.6198 3.42691 20.3888 4.84047Z" fill="#848484"/>
<path d="M30.1287 22.9205L30.3086 22.514C30.5315 22.6944 30.8887 22.8236 31.2324 22.8236C31.6674 22.8236 31.8527 22.6674 31.8527 22.4574C31.8527 21.8516 30.1878 22.2474 30.1878 21.2054C30.1878 20.7531 30.5476 20.3654 31.3157 20.3654C31.6513 20.3654 32.0031 20.4542 32.2475 20.6131L32.0837 21.0196C31.8312 20.8715 31.5547 20.7989 31.3103 20.7989C30.8779 20.7989 30.7007 20.9685 30.7007 21.1812C30.7007 21.7789 32.3629 21.3912 32.3629 22.4224C32.3629 22.8721 31.9977 23.2571 31.2297 23.2571C30.7947 23.2571 30.357 23.1198 30.126 22.9205H30.1287Z" fill="#848484"/>
<path d="M34.9409 21.9889V23.2167H34.4414V22.0536C34.4414 21.6712 34.2534 21.4881 33.9339 21.4881C33.5767 21.4881 33.3377 21.7062 33.3377 22.1343V23.2194H32.8383V20.2415H33.3377V21.3239C33.5015 21.1462 33.754 21.0519 34.0494 21.0519C34.5623 21.0519 34.9409 21.3454 34.9409 21.9916V21.9889Z" fill="#848484"/>
<path d="M35.4189 22.1451C35.4189 21.5016 35.8996 21.0492 36.5549 21.0492C37.2101 21.0492 37.6961 21.5016 37.6961 22.1451C37.6961 22.7886 37.2208 23.2436 36.5549 23.2436C35.8889 23.2436 35.4189 22.7859 35.4189 22.1451ZM37.194 22.1451C37.194 21.7358 36.9227 21.4747 36.5575 21.4747C36.1923 21.4747 35.9238 21.7358 35.9238 22.1451C35.9238 22.5543 36.195 22.8155 36.5575 22.8155C36.9201 22.8155 37.194 22.5543 37.194 22.1451Z" fill="#848484"/>
<path d="M40.18 22.3067H38.5017C38.5608 22.619 38.8212 22.8209 39.1945 22.8209C39.4335 22.8209 39.6215 22.7455 39.7745 22.5867L40.0431 22.8963C39.8497 23.1252 39.5517 23.2463 39.1811 23.2463C38.4641 23.2463 37.9995 22.7859 37.9995 22.1478C37.9995 21.5097 38.4668 21.052 39.1059 21.052C39.745 21.052 40.1854 21.4881 40.1854 22.1586C40.1854 22.199 40.1827 22.2582 40.1773 22.3067H40.18ZM38.499 21.9728H39.7128C39.6725 21.6631 39.4362 21.4504 39.1086 21.4504C38.781 21.4504 38.5473 21.6605 38.499 21.9728Z" fill="#848484"/>
<path d="M40.4244 23.004L40.6177 22.6217C40.8057 22.7455 41.093 22.8344 41.3616 22.8344C41.6784 22.8344 41.81 22.7455 41.81 22.5974C41.81 22.1882 40.4888 22.5732 40.4888 21.7197C40.4888 21.3131 40.854 21.0492 41.4287 21.0492C41.7134 21.0492 42.0383 21.1166 42.2289 21.235L42.0356 21.6174C41.8315 21.4962 41.6274 21.4558 41.4233 21.4558C41.1199 21.4558 40.9749 21.5554 40.9749 21.6954C40.9749 22.1289 42.2961 21.7439 42.2961 22.5813C42.2961 22.9824 41.9282 23.2436 41.3267 23.2436C40.9695 23.2436 40.615 23.1386 40.4217 23.004H40.4244Z" fill="#848484"/>
</svg>
