<svg width="81" height="20" viewBox="0 0 81 20" fill="none" xmlns="http://www.w3.org/2000/svg">
<path d="M10.4471 0.196625L19.9288 5.81565L20.1521 5.88187V15.496H17.6016C17.6016 15.496 17.4758 15.3793 17.4758 15.3699V7.42694C15.1046 6.03638 12.7365 4.5859 10.3307 3.28677L0.496704 8.97517V6.008L0.719977 5.81249L10.2835 0.196625H10.4502H10.4471Z" fill="#848484"/>
<path d="M80.3008 8.64091C79.1435 11.0468 77.6968 13.355 76.637 15.805C76.5993 15.8933 76.4546 16.0257 76.4546 16.0383V19.592H73.7784V15.9564L70.0139 8.55577H72.9827L75.1589 13.4906L77.2911 8.59676L80.304 8.55577V8.64091H80.3008Z" fill="#848484"/>
<path d="M80.3004 6.21611C79.6652 8.29408 75.8504 8.15218 75.8661 5.79673H77.3317C77.4292 5.79673 77.5078 6.26972 77.6619 6.38638C78.0676 6.6954 78.8915 6.46522 78.7846 5.8598C78.6085 4.89176 76.1555 5.31429 75.8882 3.73138C75.451 1.12367 80.2879 0.805196 80.2187 3.45705H78.6305C78.5865 3.45705 78.6305 2.87371 78.1682 2.78857C77.2939 2.62775 77.0612 3.60525 77.904 3.97417C78.7815 4.35887 79.8822 4.27373 80.3036 5.37736V6.21296L80.3004 6.21611Z" fill="#848484"/>
<path d="M46.5435 8.55896L49.723 16.0857L52.9842 8.55896H56.0378V19.5952H53.3616V13.4906L50.8457 19.4628C50.7859 19.592 50.6853 19.5857 50.5658 19.5984C50.0186 19.6614 49.3361 19.5542 48.7764 19.5794L46.2542 13.5726V19.592H43.5779V8.5558H46.5466L46.5435 8.55896Z" fill="#848484"/>
<path d="M15.4659 8.80805V15.3699L5.17593 15.578C5.1665 13.3171 5.15707 11.0594 5.30173 8.80489L10.2518 5.72421L15.4659 8.80489V8.80805ZM12.2865 11.318V9.76978C12.2865 9.76978 12.1701 9.64365 12.1607 9.64365H10.6134V11.3148H12.2865V11.318ZM10.0284 9.72878H8.44031V11.318H10.0284V9.72878ZM10.0284 11.7342H8.44031V13.3234H10.0284V11.7342ZM12.2865 11.7342H10.6134V13.4054H12.1607C12.1607 13.4054 12.2865 13.2888 12.2865 13.2793V11.7311V11.7342Z" fill="#848484"/>
<path d="M3.08465 8.64093V17.1704H20.1519V19.8443H0.493286V10.3153L3.08465 8.64093Z" fill="#848484"/>
<path d="M42.1532 19.5952H39.3103L38.7285 17.7947L34.8477 17.7663C34.681 17.8231 34.2691 19.3082 34.2093 19.5952H31.3663L35.2534 8.55264C36.1843 8.64408 37.2819 8.44858 38.1907 8.55264C38.3102 8.56525 38.4109 8.5621 38.4706 8.69138L42.1595 19.5952H42.1532ZM37.9706 15.6663L36.7566 11.8194L35.5427 15.6663H37.9674H37.9706Z" fill="#848484"/>
<path d="M30.5236 8.55894V10.6495H26.0076V12.9892H29.3537V15.0798H26.0076V19.5952H23.3313V8.55894H30.5236Z" fill="#848484"/>
<path d="M66.0794 8.55894V17.5897H69.4256V19.5952H63.4V8.55894H66.0794Z" fill="#848484"/>
<path d="M61.057 8.55894H58.3807V19.5952H61.057V8.55894Z" fill="#848484"/>
<path d="M43.9522 1.70387C45.1819 1.87729 45.9933 3.29308 44.9995 4.25481L44.4114 4.62689C45.8077 4.91384 46.031 6.77423 44.7384 7.42064C44.6567 7.46163 44.1629 7.63821 44.1189 7.63821H41.0244C41.0244 7.63821 40.8986 7.52154 40.8986 7.51208V1.70071C41.8452 1.79531 43.0371 1.57143 43.9522 1.70071V1.70387ZM42.405 4.04355H43.6189C43.6849 4.04355 43.9585 3.67778 43.9805 3.56426C44.1661 2.66875 42.9836 2.7665 42.405 2.78857V4.04355ZM42.405 6.46837H43.7856C44.1724 6.46837 44.2007 5.21339 43.7006 5.21339H42.405V6.46837Z" fill="#848484"/>
<path d="M59.384 1.70386H62.0194C62.6673 1.70386 63.7051 2.36919 64.1108 2.8737C65.6077 4.7341 64.139 7.64136 61.8496 7.64136H59.5067C59.5067 7.64136 59.3809 7.52469 59.3809 7.51523V1.70386H59.384ZM60.8904 6.46836C62.2207 6.66071 63.2333 6.08998 63.2365 4.67103C63.2428 3.23317 62.1923 2.71919 60.8904 2.78856V6.46836Z" fill="#848484"/>
<path d="M28.6838 1.70386V4.04354H30.9418V1.70386H32.3633V7.64136H30.9418V5.21654H28.6838V7.51523C28.6838 7.51523 28.5674 7.64136 28.558 7.64136H27.3032C27.3032 7.64136 27.1774 7.52469 27.1774 7.51523V1.70386H28.6838Z" fill="#848484"/>
<path d="M74.9447 7.63821H73.3974C73.2559 7.63821 72.2905 5.70529 72.086 5.43727C72.0137 5.34267 71.998 5.267 71.847 5.29853V7.63821H70.4255V1.70071H73.0609C73.6836 1.70071 74.6428 2.35658 74.8032 2.97146C75.0862 4.06562 74.5642 4.80978 73.605 5.25754C73.5735 5.38997 74.9573 7.25667 74.9447 7.63821ZM71.8502 4.21067C74.0547 4.60797 73.9415 2.43856 71.8502 2.78857V4.21067Z" fill="#848484"/>
<path d="M48.009 1.70386V5.59177C48.009 6.20034 48.9902 6.43998 49.4934 6.23818C49.616 6.18773 50.0154 5.77465 50.0154 5.67375V1.70386H51.5218V5.42465C51.5218 7.60352 48.3266 8.48011 47.0058 6.76161C46.8957 6.61656 46.5844 6.06791 46.5844 5.92916V1.70701H48.0058L48.009 1.70386Z" fill="#848484"/>
<path d="M69.174 1.70386V2.79171H67.0827V4.0467H68.9224V5.13455H67.0827V6.47151H69.174V7.64136H65.7021C65.7021 7.64136 65.5763 7.52469 65.5763 7.51523V1.70386H69.174Z" fill="#848484"/>
<path d="M37.2158 1.70386V2.79171H35.0395V4.0467H36.9642V5.13455H35.0395V6.47151H37.09C37.2787 6.47151 37.2787 7.64136 37.09 7.64136H33.618V1.70386H37.2158Z" fill="#848484"/>
<path d="M26.3409 1.70386V2.78856H24.7528V7.63821H23.3313V2.78856H21.74V1.70386H26.3409Z" fill="#848484"/>
<path d="M56.8745 1.70386V6.46836H58.6324V7.63821H55.3712V1.70386H56.8745Z" fill="#848484"/>
<path d="M54.1133 1.70386H52.6918V7.64136H54.1133V1.70386Z" fill="#848484"/>
</svg>
