<svg width="57" height="35" viewBox="0 0 57 35" fill="none" xmlns="http://www.w3.org/2000/svg">
<path d="M6.99163 17.4104C7.0105 17.2275 7.0105 16.2721 7.03251 16.0703C6.50417 16.496 5.87835 16.7419 5.14874 16.7609C3.00079 16.7798 0.365387 14.768 0.384256 10.8864C0.403125 7.49042 2.79636 5.03407 5.39088 5.03407C6.16137 5.03407 6.72746 5.25795 7.15517 5.62372C7.11428 3.83585 7.07339 2.04482 6.99163 0.379929H9.80943C9.6459 2.51465 9.58614 5.31786 9.58614 8.28818C9.58614 11.2585 9.68678 14.8122 9.8283 17.4136H6.99163V17.4104ZM5.28711 7.00167C3.76814 7.02059 2.91587 8.85261 2.91587 11.2301C2.91587 13.3838 4.0103 14.623 5.28711 14.623C6.29976 14.6041 6.84697 14.0554 7.13315 13.5446C7.17403 12.0405 7.1929 10.3535 7.1929 8.60666C6.92873 7.73322 6.29976 6.9796 5.28711 7.00167Z" fill="#848484"/>
<path d="M17.1055 11.0378C17.1055 11.0378 17.2061 9.79858 17.1653 8.96613C17.1464 8.11161 16.5363 7.78683 15.9891 7.96972C14.9764 8.31657 14.5079 9.19001 14.1242 10.1644V11.5865C14.143 13.7622 14.2248 15.9158 14.3475 17.3789H11.5297C11.6523 16.1176 11.7309 13.882 11.7309 11.6464V10.9968C11.7309 9.08595 11.6492 7.2161 11.5297 5.99581H14.3475C14.3066 6.40257 14.2657 6.85033 14.2248 7.317C14.6494 6.52555 15.6652 5.77193 16.7376 5.75301C18.5836 5.71202 19.3541 7.2161 19.3918 8.67919C19.4107 10.1234 19.5554 11.0378 19.5554 11.0378H17.1024H17.1055Z" fill="#848484"/>
<path d="M25.7445 9.40443C24.7916 9.40443 23.8387 9.42335 23.0493 9.46434V9.91209C23.0493 12.0657 24.1437 13.3049 25.4205 13.3049C27.0622 13.3049 27.1031 10.8454 27.1031 10.8454L29.7573 11.0882C29.6976 13.264 28.0559 15.6604 25.4583 15.6604C22.8606 15.6604 20.4925 13.4437 20.5114 9.56209C20.5303 5.90436 22.5398 3.42278 25.5589 3.42278C29.1063 3.42278 29.8171 6.99853 29.858 9.52109C28.7635 9.43911 27.2414 9.39812 25.7413 9.39812L25.7445 9.40443ZM25.4174 5.68364C24.3639 5.68364 23.6751 6.47509 23.3103 7.69538C24.0808 7.73638 24.9331 7.7553 25.7633 7.7553C26.2508 7.7553 26.7351 7.73638 27.2037 7.73638C27.0024 6.63906 26.515 5.68364 25.4205 5.68364H25.4174Z" fill="#848484"/>
<path d="M40.6039 17.9938C40.2391 18.0947 39.8743 18.1577 39.5693 18.1577C38.6981 18.1577 38.0503 17.751 37.5817 17.0793C36.9527 17.6879 35.9809 18.3186 34.6821 18.2996C32.2291 18.2397 31.2762 16.4487 31.2762 15.1906C31.2762 13.9324 31.9461 12.2234 34.3991 12.2234C35.6979 12.2234 36.5879 12.6302 37.1571 13.0369V10.7414C37.1571 9.46118 36.8521 8.28188 35.3331 8.28188C33.8141 8.28188 33.3047 10.3535 33.3047 11.6148H30.8517C30.8328 8.62558 32.3927 5.96427 35.4935 5.96427C38.7579 5.96427 39.934 8.01701 39.8114 11.1482C39.7925 11.8387 39.7516 12.8162 39.7516 13.7306C39.7516 14.3613 39.7705 14.9698 39.8114 15.4365C39.8932 16.228 40.236 16.2501 40.6008 16.2501V17.9969L40.6039 17.9938ZM37.1571 14.9856C36.5879 14.7018 35.7985 14.355 35.1916 14.355C34.2387 14.355 34.0374 14.7807 34.0374 15.3104C34.0374 15.8401 34.5846 16.1239 35.2734 16.1239C35.7608 16.1239 36.5722 15.6762 37.1603 15.3104V14.9856H37.1571Z" fill="#848484"/>
<path d="M53.8218 16.6568C53.9224 15.6604 53.9853 14.2383 53.9853 12.7752C53.9853 12.3085 53.9665 11.8198 53.9665 11.3531C53.9476 10.1139 53.9067 8.91568 53.825 7.93819C53.7432 6.73997 52.7494 6.31113 51.9003 6.45302C51.4757 6.51294 51.0701 6.69582 50.7053 6.9197C50.765 7.18457 50.787 7.44944 50.765 7.73323C50.7241 8.95352 50.6644 10.3567 50.6424 11.7157V12.977C50.6424 14.4811 50.6612 15.8843 50.765 16.9595H47.9881C48.0698 15.9631 48.1296 14.6009 48.1296 13.1378C48.1296 12.6491 48.1107 12.1414 48.1107 11.6527C48.0919 10.4324 48.051 9.23416 47.9881 8.23774C47.8874 7.05844 46.8937 6.61069 46.0414 6.77465C45.4942 6.85664 44.9879 7.12151 44.5602 7.44629C44.5413 8.13684 44.5193 8.82739 44.5193 9.5211C44.5193 10.0098 44.5382 10.4954 44.5382 10.9653C44.5382 12.8761 44.6199 14.8689 44.7394 16.6347H41.9028C42.0254 14.8469 42.0852 12.7721 42.0852 10.7603V9.98777C42.0852 8.11792 42.0254 5.96428 41.9028 4.60209H44.7394C44.6985 4.88588 44.6168 5.6395 44.5979 5.90437C44.9627 5.43769 45.793 4.84804 46.6452 4.76606C46.8465 4.74714 47.0289 4.74714 47.2333 4.74714C48.1674 4.74714 49.0794 4.94894 49.7272 5.41877C49.809 5.47868 49.8687 5.51967 49.9285 5.58274C50.4348 5.07507 51.2273 4.58632 52.5041 4.46335C52.7274 4.44443 52.9507 4.42236 53.174 4.42236C54.086 4.42236 54.9571 4.64623 55.5861 5.11291C56.2559 5.57958 56.6805 6.35212 56.6207 7.43052C56.5799 8.65081 56.5201 10.0319 56.4981 11.3941C56.4792 11.9648 56.4792 12.5324 56.4792 13.0811C56.4792 14.4212 56.5201 15.6825 56.6207 16.66H53.8218V16.6568Z" fill="#848484"/>
<path d="M29.2353 30.017C28.8705 30.1179 28.5057 30.1809 28.2006 30.1809C27.3295 30.1809 26.6816 29.7742 26.213 29.1025C25.5841 29.7111 24.6123 30.3417 23.3135 30.3228C20.8605 30.2629 19.9076 28.4719 19.9076 27.2138C19.9076 25.9556 20.5774 24.2466 23.0304 24.2466C24.3293 24.2466 25.2193 24.6533 25.7885 25.0601V22.7646C25.7885 21.4844 25.4834 20.3051 23.9645 20.3051C22.4455 20.3051 21.936 22.3767 21.936 23.638H19.483C19.4641 20.6488 21.024 17.9875 24.1248 17.9875C27.3892 17.9875 28.5654 20.0402 28.4428 23.1713C28.4239 23.8619 28.383 24.8394 28.383 25.7538C28.383 26.3845 28.4019 26.993 28.4428 27.4597C28.5245 28.2512 28.8673 28.2732 29.2321 28.2732V30.0201L29.2353 30.017ZM25.7885 27.0088C25.2224 26.725 24.4299 26.3782 23.823 26.3782C22.8701 26.3782 22.6688 26.8038 22.6688 27.3336C22.6688 27.8633 23.216 28.1471 23.9047 28.1471C24.3922 28.1471 25.2035 27.6994 25.7885 27.3336V27.0088Z" fill="#848484"/>
<path d="M36.0879 26.5547C36.0879 26.5547 36.1886 25.3155 36.1477 24.4799C36.1288 23.6254 35.5187 23.3006 34.9715 23.4835C33.9589 23.8304 33.4903 24.7038 33.1066 25.6782V27.1003C33.1255 29.276 33.2072 31.4296 33.3299 32.8927H30.5121C30.6347 31.6314 30.7134 29.3958 30.7134 27.1602V26.5106C30.7134 24.5998 30.6316 22.7299 30.5121 21.5096H33.3299C33.289 21.9164 33.2481 22.3641 33.2072 22.8308C33.6318 22.0393 34.6476 21.2857 35.72 21.2668C37.566 21.2258 38.3365 22.7299 38.3743 24.193C38.3931 25.6372 38.5378 26.5516 38.5378 26.5516H36.0848L36.0879 26.5547Z" fill="#848484"/>
<path d="M48.29 31.1679C48.29 31.1679 48.3309 34.5828 44.2363 34.5828C41.6417 34.5828 40.4656 32.0634 40.5882 29.1751C40.6291 28.0778 40.648 26.7755 40.67 25.3944C40.1825 25.4133 39.736 25.4354 39.3114 25.4764V22.916C39.736 22.9759 40.1825 22.9979 40.648 23.0389C40.6291 22.0236 40.5882 21.0051 40.5473 20.0308H43.3651C43.3054 20.8853 43.2645 21.9605 43.2645 23.1209C44.947 23.1209 45.7993 23.061 46.9943 22.9191V25.4795C45.5948 25.3975 44.8055 25.3376 43.2834 25.3376C43.2834 26.6588 43.3242 27.5543 43.3651 29.2192C43.406 31.9026 44.0947 32.4292 44.6828 32.4923C45.4124 32.5332 45.8181 32.0035 45.9188 31.1711H48.29V31.1679Z" fill="#848484"/>
<path d="M52.872 31.5778C49.8907 31.5778 49.3026 29.4841 49.3026 28.5507V27.4345H51.7147V28.4498C51.7147 28.9386 52.1393 29.4053 52.8909 29.4053C53.6425 29.4053 54.0042 29.0994 54.0671 28.5728C54.108 28.1881 54.0482 27.7593 52.9538 27.2516L51.4726 26.539C49.9536 25.8264 49.3246 24.6281 49.3246 23.225C49.3246 23.0011 49.3435 22.7993 49.3655 22.5754C49.6706 20.3997 51.2902 19.3244 52.872 19.3244C54.4539 19.3244 56.1144 20.4817 56.1144 22.7804V23.7768H53.8627V22.7804C53.8627 22.0677 53.3343 21.702 52.8091 21.702C52.284 21.702 51.7745 22.0267 51.655 22.7173C51.3908 24.1615 53.0136 24.5682 53.9444 24.9939C56.2339 26.0313 56.5798 27.2894 56.4792 28.5728C56.3566 29.894 55.5672 31.581 52.872 31.581V31.5778Z" fill="#848484"/>
<path d="M15.0991 23.8713C15.0991 23.843 15.0991 23.8114 15.0991 23.7831C15.0991 22.5785 14.0864 21.5348 12.8348 21.5348C11.9196 21.5348 11.1334 22.1245 10.778 22.8749C10.4195 22.1245 9.6333 21.5348 8.72129 21.5348C7.46964 21.5348 6.45698 22.5785 6.45698 23.7831C6.45698 23.8146 6.45698 23.843 6.45698 23.8713C6.45698 23.8713 6.32805 25.3029 7.91621 26.8637C8.63953 27.589 9.4446 28.2795 10.7749 29.3611C12.1052 28.2764 12.9134 27.589 13.6336 26.8637C15.2217 25.2998 15.0928 23.8713 15.0928 23.8713H15.0991Z" fill="#848484"/>
</svg>
