<svg width="85" height="33" viewBox="0 0 85 33" fill="none" xmlns="http://www.w3.org/2000/svg">
<path d="M41.1904 30.2388V24.2508H41.9892V30.2388H41.1904ZM41.8257 28.1671V27.4671H43.1528C43.4359 27.4671 43.6686 27.4104 43.851 27.3C44.0365 27.1896 44.1749 27.0383 44.2692 26.8459C44.3636 26.6567 44.4108 26.4423 44.4108 26.209C44.4108 25.9757 44.3636 25.7549 44.2692 25.5657C44.1749 25.3765 44.0334 25.2252 43.851 25.118C43.6654 25.0108 43.4327 24.954 43.1528 24.954H41.8257V24.254H43.005C43.4925 24.254 43.9013 24.3328 44.2284 24.4873C44.5554 24.6418 44.8039 24.8626 44.9737 25.1432C45.1435 25.4238 45.2253 25.7612 45.2253 26.1459V26.2752C45.2253 26.6567 45.1404 26.9878 44.9737 27.2748C44.807 27.5617 44.5586 27.7793 44.2284 27.9369C43.9013 28.0915 43.4925 28.1703 43.005 28.1703H41.8257V28.1671Z" fill="#848484"/>
<path d="M46.3008 30.2386V25.884H46.9203V27.6782H46.8889C46.8889 27.0412 47.0272 26.5745 47.3071 26.2781C47.587 25.9817 48.0053 25.8335 48.5651 25.8335H48.7129V26.5335H48.4361C48.0021 26.5335 47.6688 26.6502 47.4361 26.8804C47.2034 27.1106 47.087 27.4448 47.087 27.88V30.2386H46.3071H46.3008Z" fill="#848484"/>
<path d="M51.5873 30.3868C51.2068 30.3868 50.8734 30.3206 50.5873 30.1913C50.3011 30.062 50.0558 29.8886 49.8577 29.6742C49.6595 29.4597 49.5117 29.2201 49.4111 28.9521C49.3104 28.6841 49.2601 28.4129 49.2601 28.1354V27.9872C49.2601 27.7097 49.3104 27.4354 49.4142 27.1674C49.518 26.8993 49.669 26.6565 49.8702 26.4421C50.0715 26.2277 50.3137 26.0574 50.603 25.9282C50.8892 25.802 51.2194 25.7358 51.5873 25.7358C51.9553 25.7358 52.2855 25.7989 52.5717 25.9282C52.8579 26.0574 53.1032 26.2277 53.3044 26.4421C53.5057 26.6565 53.6567 26.8993 53.7604 27.1674C53.8642 27.4354 53.9145 27.7097 53.9145 27.9872V28.1354C53.9145 28.4129 53.8642 28.6841 53.7636 28.9521C53.6629 29.2169 53.5151 29.4597 53.317 29.6742C53.1189 29.8886 52.8767 30.062 52.5874 30.1913C52.3012 30.3206 51.9679 30.3868 51.5873 30.3868ZM51.5873 29.6836C51.9113 29.6836 52.1911 29.6111 52.4207 29.4661C52.6503 29.321 52.8264 29.1287 52.9491 28.8827C53.0717 28.6368 53.1315 28.3624 53.1315 28.0597C53.1315 27.757 53.0686 27.4732 52.9459 27.2273C52.8201 26.9813 52.644 26.789 52.4144 26.6471C52.1849 26.5052 51.9081 26.4358 51.5873 26.4358C51.2666 26.4358 50.9992 26.5052 50.7665 26.6471C50.5338 26.789 50.3546 26.9813 50.2288 27.2273C50.103 27.4732 50.0432 27.7507 50.0432 28.0597C50.0432 28.3687 50.103 28.6399 50.2256 28.8827C50.3483 29.1287 50.5244 29.321 50.7539 29.4661C50.9835 29.6111 51.2634 29.6836 51.5873 29.6836Z" fill="#848484"/>
<path d="M56.9021 30.3868C56.5939 30.3868 56.3077 30.33 56.0467 30.2165C55.7856 30.103 55.5592 29.9422 55.3674 29.7341C55.1755 29.5291 55.0246 29.2895 54.9208 29.0151C54.8139 28.744 54.7635 28.4507 54.7635 28.1354V27.9872C54.7635 27.6782 54.8139 27.3849 54.9176 27.1137C55.0214 26.8426 55.1661 26.6029 55.3516 26.3948C55.5403 26.1867 55.7605 26.0259 56.0183 25.9092C56.2762 25.7925 56.5624 25.7326 56.8769 25.7326C57.2071 25.7326 57.509 25.802 57.7795 25.9407C58.0499 26.0795 58.2732 26.2971 58.4462 26.5903C58.6192 26.8836 58.7167 27.2651 58.7387 27.7318L58.4147 27.2083V24.279H59.1947V30.2323H58.5751V28.2994H58.8016C58.7796 28.7944 58.6758 29.1949 58.4934 29.5039C58.3078 29.8097 58.0782 30.0336 57.7984 30.1724C57.5185 30.3111 57.2197 30.3805 56.8989 30.3805L56.9021 30.3868ZM57.0058 29.6994C57.27 29.6994 57.5122 29.6395 57.7292 29.5196C57.9462 29.3998 58.1191 29.2264 58.2512 29.0025C58.3802 28.7755 58.4462 28.5106 58.4462 28.2079V27.8327C58.4462 27.5331 58.3802 27.2809 58.2481 27.0696C58.116 26.8615 57.9399 26.7007 57.7197 26.5872C57.4996 26.4768 57.2606 26.42 56.9995 26.42C56.7134 26.42 56.4586 26.4894 56.2385 26.625C56.0184 26.7606 55.8485 26.9498 55.7259 27.1957C55.6032 27.4417 55.5435 27.7286 55.5435 28.0597C55.5435 28.3908 55.6064 28.6809 55.729 28.93C55.8548 29.1759 56.0278 29.3683 56.2511 29.5007C56.4744 29.6332 56.726 29.6994 57.009 29.6994H57.0058Z" fill="#848484"/>
<path d="M62.1981 30.3679C61.6824 30.3679 61.2861 30.2007 61.0094 29.8634C60.7326 29.526 60.5942 29.0404 60.5942 28.4034V25.8745H61.3742V28.5579C61.3742 28.9016 61.4654 29.1696 61.6509 29.362C61.8365 29.5543 62.0849 29.6521 62.3994 29.6521C62.7139 29.6521 62.9906 29.548 63.1982 29.3368C63.4058 29.1287 63.5064 28.8417 63.5064 28.4759V25.8745H64.2863V30.2386H63.6668V28.3719H63.7643C63.7643 28.8007 63.7077 29.1633 63.5945 29.4597C63.4812 29.7561 63.3114 29.9832 63.085 30.1377C62.8586 30.2922 62.5724 30.371 62.2264 30.371H62.195L62.1981 30.3679Z" fill="#848484"/>
<path d="M67.6638 30.3868C67.2896 30.3868 66.9656 30.3206 66.692 30.1913C66.4184 30.062 66.192 29.8854 66.0128 29.6647C65.8335 29.444 65.6983 29.2012 65.6102 28.9332C65.5221 28.6683 65.475 28.4003 65.475 28.1322V27.984C65.475 27.7066 65.519 27.4354 65.6102 27.1674C65.6983 26.9025 65.8366 26.6597 66.0159 26.4453C66.1983 26.2309 66.4247 26.0574 66.6952 25.9281C66.9656 25.7989 67.2833 25.7327 67.6481 25.7327C68.0129 25.7327 68.3368 25.802 68.6293 25.9376C68.9186 26.0732 69.1513 26.2655 69.3274 26.5115C69.5036 26.7606 69.601 27.0507 69.6231 27.3881H68.8746C68.8368 27.1169 68.711 26.8899 68.5003 26.707C68.2896 26.5241 68.0035 26.4327 67.6449 26.4327C67.3367 26.4327 67.0789 26.502 66.8713 26.6439C66.6637 26.7858 66.5096 26.9782 66.409 27.2241C66.3052 27.4701 66.2549 27.7476 66.2549 28.0566C66.2549 28.3656 66.3052 28.6305 66.409 28.8764C66.5128 29.1224 66.6669 29.321 66.8776 29.4629C67.0852 29.6079 67.3493 29.6805 67.6638 29.6805C67.9091 29.6805 68.1198 29.6363 68.2991 29.5512C68.4783 29.4629 68.623 29.3462 68.7299 29.2012C68.8368 29.053 68.9029 28.889 68.9249 28.703H69.6734C69.6576 29.0467 69.557 29.3431 69.3777 29.5922C69.1953 29.8413 68.9563 30.0368 68.6607 30.1755C68.3651 30.3143 68.0318 30.3836 67.6638 30.3836V30.3868ZM67.6009 32.2125C67.4971 32.2125 67.3996 32.2062 67.3053 32.1936C67.2109 32.181 67.126 32.1621 67.0506 32.14V31.6165C67.126 31.6386 67.2141 31.6544 67.3147 31.6701C67.4154 31.6828 67.5129 31.6891 67.6041 31.6891C67.777 31.6891 67.906 31.6607 67.9877 31.6039C68.0695 31.5472 68.1104 31.4746 68.1104 31.3864C68.1104 31.2981 68.0758 31.2287 68.0097 31.1782C67.9406 31.1278 67.8305 31.0994 67.6732 31.0994H67.365V30.1535H67.8368V30.9291L67.5034 30.6264H67.6324C67.9405 30.6264 68.1921 30.6895 68.3808 30.8188C68.5695 30.9449 68.667 31.131 68.667 31.3706C68.667 31.6102 68.5727 31.8026 68.3871 31.9665C68.1984 32.1305 67.9405 32.2125 67.6103 32.2125H67.6009Z" fill="#848484"/>
<path d="M72.7335 30.3868C72.3529 30.3868 72.0196 30.3206 71.7334 30.1913C71.4472 30.062 71.2019 29.8886 71.0038 29.6742C70.8057 29.4597 70.6578 29.2201 70.5572 28.9521C70.4566 28.6872 70.4062 28.4129 70.4062 28.1354V27.9872C70.4062 27.7097 70.4566 27.4354 70.5603 27.1673C70.6641 26.8993 70.8151 26.6565 71.0164 26.4421C71.2176 26.2277 71.4598 26.0574 71.7491 25.9281C72.0353 25.802 72.3655 25.7358 72.7335 25.7358C73.1014 25.7358 73.4316 25.7989 73.7178 25.9281C74.004 26.0574 74.2493 26.2277 74.4505 26.4421C74.6518 26.6565 74.8028 26.8993 74.9066 27.1673C75.0104 27.4354 75.0607 27.7097 75.0607 27.9872V28.1354C75.0607 28.4129 75.0104 28.684 74.9097 28.9521C74.8091 29.2169 74.6613 29.4597 74.4631 29.6742C74.265 29.8886 74.0229 30.062 73.7335 30.1913C73.4442 30.3206 73.114 30.3868 72.7335 30.3868ZM72.7335 29.6836C73.0574 29.6836 73.3373 29.6111 73.5668 29.466C73.7964 29.321 73.9725 29.1286 74.0952 28.8827C74.2178 28.6367 74.2776 28.3624 74.2776 28.0597C74.2776 27.757 74.2147 27.4732 74.092 27.2273C73.9662 26.9813 73.7901 26.789 73.5606 26.6471C73.331 26.5052 73.0542 26.4358 72.7335 26.4358C72.4127 26.4358 72.1454 26.5052 71.9127 26.6471C71.6799 26.789 71.5007 26.9813 71.3749 27.2273C71.2491 27.4732 71.1893 27.7507 71.1893 28.0597C71.1893 28.3687 71.2491 28.6399 71.3717 28.8827C71.4944 29.1286 71.6705 29.321 71.9001 29.466C72.1296 29.6111 72.4095 29.6836 72.7335 29.6836ZM73.287 25.0105C73.1517 25.0105 73.0354 24.9916 72.9379 24.9506C72.8404 24.9096 72.7492 24.8624 72.6706 24.8087C72.5888 24.7551 72.507 24.7078 72.4252 24.6668C72.3435 24.6259 72.2523 24.6069 72.1485 24.6069C72.0353 24.6069 71.9315 24.6353 71.834 24.6921C71.7365 24.7488 71.6548 24.8277 71.5793 24.9254L71.4503 24.402C71.5321 24.2979 71.6328 24.2128 71.7554 24.1403C71.8781 24.0709 72.0164 24.0331 72.1737 24.0331C72.3089 24.0331 72.4252 24.052 72.5227 24.093C72.6202 24.134 72.7083 24.1813 72.7901 24.2349C72.8718 24.2885 72.9536 24.3358 73.0354 24.3768C73.1171 24.4178 73.2083 24.4367 73.3121 24.4367C73.4253 24.4367 73.5322 24.4083 73.6297 24.3515C73.7272 24.2948 73.8153 24.2159 73.8907 24.1182L74.0197 24.6416C73.9379 24.7457 73.8342 24.8308 73.7115 24.9033C73.5857 24.9727 73.4473 25.0105 73.2901 25.0105H73.287Z" fill="#848484"/>
<path d="M78.0766 30.3868C77.696 30.3868 77.369 30.3206 77.0922 30.1913C76.8155 30.062 76.589 29.8886 76.4161 29.6742C76.2431 29.4597 76.1142 29.2201 76.0292 28.9521C75.9443 28.6872 75.9034 28.4129 75.9034 28.1354V27.9872C75.9034 27.7034 75.9443 27.4291 76.0292 27.1642C76.1142 26.8993 76.2431 26.6565 76.4161 26.4421C76.589 26.2277 76.8092 26.0574 77.0796 25.9282C77.3469 25.802 77.6646 25.7358 78.0262 25.7358C78.498 25.7358 78.8879 25.8367 79.193 26.0417C79.4981 26.2466 79.7276 26.5083 79.8754 26.83C80.0232 27.1516 80.0987 27.4921 80.0987 27.8579V28.2079H76.2431V27.6214H79.5295L79.3502 27.9399C79.3502 27.6309 79.2999 27.3629 79.2024 27.1358C79.1049 26.9088 78.9571 26.7354 78.7622 26.6092C78.5672 26.4831 78.3187 26.4232 78.0231 26.4232C77.7275 26.4232 77.457 26.4926 77.2558 26.6345C77.0513 26.7764 76.9004 26.9687 76.7997 27.2147C76.6991 27.4606 76.6488 27.7413 76.6488 28.0629C76.6488 28.3845 76.6991 28.6525 76.7997 28.8985C76.9004 29.1444 77.0545 29.3431 77.2683 29.485C77.479 29.63 77.7495 29.7025 78.0734 29.7025C78.4162 29.7025 78.693 29.6269 78.9068 29.4755C79.1207 29.3242 79.2496 29.1476 79.2936 28.9458H80.0264C79.9666 29.2453 79.8471 29.5039 79.6678 29.7215C79.4886 29.939 79.2653 30.1062 78.9917 30.2197C78.7213 30.3332 78.4131 30.3899 78.0734 30.3899L78.0766 30.3868Z" fill="#848484"/>
<path d="M82.6334 30.3678C82.0642 30.3678 81.6239 30.2449 81.3126 30.0021C81.0012 29.7561 80.8377 29.4219 80.8282 28.9993H81.561C81.5704 29.1665 81.6585 29.3273 81.8157 29.4755C81.9761 29.6237 82.2497 29.6994 82.6334 29.6994C82.9793 29.6994 83.2467 29.63 83.4291 29.4913C83.6146 29.3525 83.7058 29.1822 83.7058 28.9804C83.7058 28.8007 83.6366 28.662 83.5014 28.5611C83.3662 28.4602 83.146 28.3939 82.841 28.3624L82.3692 28.3119C81.9573 28.2678 81.6207 28.1448 81.3597 27.9399C81.0987 27.7349 80.9698 27.448 80.9698 27.079C80.9698 26.8016 81.039 26.5651 81.1805 26.3664C81.322 26.1678 81.517 26.0164 81.7654 25.9092C82.0139 25.802 82.3032 25.7515 82.6271 25.7515C83.1146 25.7515 83.5108 25.8619 83.8159 26.0763C84.1209 26.2939 84.2782 26.6187 84.2876 27.0475H83.5549C83.5486 26.8741 83.4699 26.7259 83.3158 26.6029C83.1617 26.4799 82.9322 26.42 82.6271 26.42C82.3221 26.42 82.0925 26.4831 81.9352 26.6061C81.778 26.7322 81.6994 26.8898 81.6994 27.079C81.6994 27.243 81.756 27.3723 81.8661 27.47C81.9761 27.5678 82.1617 27.6309 82.4164 27.6561L82.8882 27.7065C83.3536 27.757 83.7278 27.8863 84.0109 28.0944C84.2939 28.3025 84.4323 28.5989 84.4323 28.9804C84.4323 29.2516 84.3536 29.4944 84.1995 29.7025C84.0454 29.9106 83.8316 30.0746 83.5611 30.1913C83.2907 30.3079 82.9793 30.3678 82.6271 30.3678H82.6334Z" fill="#848484"/>
<path d="M47.9171 20.5172V6.47912C47.9171 5.99668 48.3071 5.60568 48.7882 5.60568H51.1532C51.6344 5.60568 52.0243 5.99668 52.0243 6.47912V12.3819H51.7947C51.7947 10.7423 52.0023 9.38323 52.4237 8.30799C52.842 7.22959 53.4647 6.42552 54.2918 5.89262C55.1189 5.35973 56.1221 5.09171 57.3014 5.09171H57.531C59.3173 5.09171 60.701 5.68767 61.6822 6.87958C62.6603 8.0715 63.1509 9.8972 63.1509 12.3567V20.5204C63.1509 21.0028 62.7609 21.3938 62.2797 21.3938H58.8298C58.3486 21.3938 57.9587 21.0028 57.9587 20.5204V12.2148C57.9587 11.4896 57.7448 10.8936 57.3171 10.4269C56.8894 9.96027 56.3045 9.72693 55.5623 9.72693C54.8201 9.72693 54.2257 9.96027 53.7792 10.4269C53.3326 10.8936 53.1093 11.5085 53.1093 12.2716V20.5204C53.1093 21.0028 52.7193 21.3938 52.2382 21.3938H48.7882C48.3071 21.3938 47.9171 21.0028 47.9171 20.5204V20.5172Z" fill="#848484"/>
<path d="M81.7999 10.0076C81.3911 9.01745 80.8062 8.14716 80.0451 7.40616C79.284 6.662 78.3657 6.08181 77.2933 5.66243C76.2178 5.24306 75.007 5.03494 73.6579 5.03494C72.3087 5.03494 71.12 5.24621 70.035 5.66243C68.95 6.08181 68.0286 6.662 67.2675 7.40616C66.5065 8.15032 65.9215 9.01745 65.5127 10.0076C65.1038 10.9977 64.8994 12.0666 64.8994 13.2112V13.8986C64.8994 15.0054 65.0944 16.0428 65.4844 17.0171C65.8743 17.9883 66.4436 18.846 67.1952 19.5902C67.9468 20.3343 68.8651 20.9145 69.9469 21.3339C71.0319 21.7533 72.2678 21.9645 73.6547 21.9645C75.0416 21.9645 76.2775 21.7533 77.3625 21.3339C78.4475 20.9145 79.3627 20.3343 80.1143 19.5902C80.8659 18.846 81.4352 17.9883 81.8251 17.0171C82.2151 16.046 82.4101 15.0054 82.4101 13.8986V13.2112C82.4101 12.0666 82.2056 11.0008 81.7968 10.0076H81.7999ZM76.8248 15.6581C76.5575 16.2793 76.1643 16.7586 75.6423 17.1023C75.1202 17.446 74.4598 17.6163 73.661 17.6163C72.8622 17.6163 72.2238 17.446 71.6923 17.1023C71.1609 16.7586 70.7615 16.2793 70.4941 15.6581C70.2268 15.0401 70.0947 14.3369 70.0947 13.5549C70.0947 12.7729 70.2331 12.0162 70.5099 11.395C70.7866 10.7769 71.1892 10.285 71.7206 9.92242C72.2521 9.5598 72.9 9.38007 73.661 9.38007C74.4221 9.38007 75.0668 9.5598 75.6014 9.92242C76.1329 10.285 76.5386 10.7769 76.8122 11.395C77.0889 12.0162 77.2273 12.7351 77.2273 13.5549C77.2273 14.3748 77.0952 15.0369 76.8279 15.6581H76.8248Z" fill="#848484"/>
<path d="M23.5853 0.513237H16.7861C16.6131 0.513237 16.459 0.620443 16.3961 0.781257L12.3518 11.2562C12.2889 11.417 12.1348 11.5243 11.9619 11.5243C11.7889 11.5243 11.6348 11.417 11.575 11.2594L7.50244 0.781257C7.43954 0.620443 7.28545 0.516388 7.11563 0.516388H0.457946C0.22837 0.516388 0.0396729 0.702429 0.0396729 0.935766V20.9776C0.0396729 21.2078 0.225225 21.397 0.457946 21.397H4.47395C4.70352 21.397 4.8922 21.2109 4.8922 20.9776V8.0368C4.8922 7.57643 5.52746 7.45346 5.69729 7.88229L9.29502 16.9289C9.35791 17.0865 9.51202 17.1906 9.68185 17.1906H13.9368C14.1067 17.1906 14.2608 17.0865 14.3237 16.9257L17.9497 7.75932C18.1195 7.33048 18.7548 7.45346 18.7548 7.91383V20.9776C18.7548 21.2078 18.9403 21.397 19.1731 21.397H23.5884C23.818 21.397 24.0067 21.2109 24.0067 20.9776V0.935766C24.0067 0.705582 23.8212 0.516388 23.5884 0.516388L23.5853 0.513237Z" fill="#848484"/>
<path d="M31.4287 21.7344C30.3249 21.7344 29.3468 21.5357 28.4914 21.1352C27.636 20.7348 26.9661 20.1577 26.4818 19.4041C25.9975 18.6505 25.7554 17.7518 25.7554 16.7018C25.7554 15.5194 26.0699 14.5608 26.6957 13.8261C27.3247 13.0914 28.1895 12.5522 29.2902 12.2116C30.394 11.8679 31.6583 11.6977 33.0829 11.6977H35.4384C35.8221 11.6977 36.1334 12.0098 36.1334 12.3945V13.6874C36.1334 14.072 35.8221 14.3842 35.4384 14.3842H33.0829C32.3785 14.3842 31.8375 14.5608 31.457 14.914C31.0765 15.2671 30.8878 15.7401 30.8878 16.3297C30.8878 16.9194 31.0765 17.364 31.457 17.7172C31.8375 18.0703 32.3785 18.2469 33.0829 18.2469C33.5389 18.2469 33.9415 18.1649 34.2937 18.0041C34.6459 17.8433 34.9352 17.5595 35.1648 17.159C35.2403 17.0266 35.3063 16.8753 35.3598 16.7081C35.5233 16.2131 36.1303 16.0428 36.5077 16.4023L36.7624 16.6451C36.6681 17.7329 36.407 18.6505 35.9793 19.4041C35.5516 20.1577 34.9635 20.7348 34.2119 21.1352C33.4603 21.5357 32.5326 21.7344 31.4319 21.7344H31.4287Z" fill="#848484"/>
<path d="M36.2214 20.9051V16.7018H35.366V11.7544C35.366 11.0292 35.1993 10.4932 34.8659 10.14C34.5326 9.78684 33.9854 9.61026 33.2275 9.61026C32.8658 9.61026 32.3343 9.61972 31.6299 9.63864C30.9254 9.65756 30.1832 9.68593 29.4065 9.72377C28.8026 9.75215 28.2397 9.78368 27.7177 9.81206C27.4724 9.82467 27.2679 9.62917 27.2679 9.38322V5.88631C27.2679 5.66243 27.4409 5.4764 27.6611 5.45748C28.0259 5.4291 28.4378 5.40387 28.8907 5.37549C29.5197 5.33766 30.1707 5.30928 30.8437 5.29036C31.5198 5.27144 32.1425 5.26198 32.7117 5.26198C34.3282 5.26198 35.7025 5.50162 36.8346 5.97776C37.9668 6.45389 38.8316 7.16967 39.4291 8.12194C40.0267 9.07421 40.3286 10.285 40.3286 11.7544V20.9051C40.3286 21.1416 40.1367 21.3339 39.9009 21.3339H36.6491C36.4132 21.3339 36.2214 21.1416 36.2214 20.9051Z" fill="#848484"/>
<path d="M46.1654 18.6852V8.30799C46.1654 8.03996 45.8667 7.87915 45.6434 8.02735L42.2312 10.3134C42.1368 10.3765 42.0834 10.4805 42.0834 10.5941V16.3991C42.0834 16.5126 42.14 16.6167 42.2312 16.6798L45.6434 18.9658C45.8667 19.114 46.1654 18.9564 46.1654 18.6852Z" fill="#848484"/>
</svg>
