<svg width="66" height="34" viewBox="0 0 66 34" fill="none" xmlns="http://www.w3.org/2000/svg">
<path d="M15.8372 33.6742C15.5982 33.4629 15.2805 33.0908 15.1673 32.7913C15.0164 32.3908 15.268 31.2525 15.2554 30.7574C15.2491 30.5272 15.1359 30.234 15.1327 30.007C15.1327 29.7831 15.2397 29.5371 15.2428 29.3101C15.2491 28.9412 15.1044 28.6448 15.0604 28.3421C15.0541 28.2979 15.1422 28.1056 15.1327 27.9385C15.1233 27.7966 15.0227 27.6011 15.0195 27.5317C15.0195 27.4087 15.1327 27.1912 15.1359 27.0272C15.1485 26.2483 14.9535 25.3497 14.9818 24.5771C14.9912 24.3217 15.1044 24.0379 15.0918 23.7951C15.0793 23.5177 14.9315 23.0731 14.8874 22.7546C14.7962 22.0672 14.7774 21.3483 14.7333 20.664C14.7711 20.6136 14.8811 20.6451 14.8811 20.6041C14.8843 20.4275 14.7333 20.0397 14.7145 19.8189C14.7019 19.6897 14.6893 19.223 14.7145 19.1221C14.7302 19.0559 14.8843 19.0779 14.8843 19.0306C14.7616 18.9171 14.6484 18.2486 14.7176 18.1824C14.7365 18.1635 14.8843 18.2108 14.8843 18.1604C14.7648 17.5802 14.5132 16.9243 14.4692 16.3409C14.4283 15.8144 14.4031 14.5751 14.683 14.1495C15.1547 13.44 16.875 13.0616 17.6738 13.1247C19.0041 13.2319 20.3721 14.408 21.2275 15.3634C21.8722 16.0792 22.0483 16.6027 22.3659 17.4982C22.7024 18.4504 23.2968 20.2856 23.2308 21.2631C23.215 21.4807 22.8974 22.2438 22.7968 22.4897C22.1646 24.0096 21.4916 24.8231 19.8815 25.3276C19.4035 25.479 18.3122 25.6997 17.8342 25.6398C17.6706 25.6209 17.3656 25.3907 17.2555 25.3907H16.4913C16.5448 26.3839 16.419 27.4529 16.4913 28.4367C16.507 28.6479 16.6234 28.9664 16.6171 29.1398C16.6171 29.2533 16.5133 29.4457 16.4976 29.6002C16.4473 30.0416 16.507 29.8619 16.6989 30.0511C17.0731 30.4232 16.7303 30.9309 16.7523 31.2903C16.7618 31.4259 16.8718 31.5111 16.8655 31.7066C16.853 32.025 16.614 32.5579 16.6202 32.8291C16.6202 32.9237 16.724 33.0309 16.7335 33.1286C16.7555 33.3368 16.1422 33.63 15.9535 33.6773H15.8309L15.8372 33.6742ZM16.2649 22.5402C16.1925 22.701 16.3687 23.2559 16.4504 23.4262C16.6108 23.7668 16.9253 24.0474 17.309 24.0979C18.5921 24.265 20.8627 23.8141 21.4948 22.5402C21.6143 22.3005 21.7558 21.8149 21.7055 21.5564C21.6803 21.4302 21.4979 21.2978 21.5011 21.1811C21.5011 21.1118 21.7621 20.7807 21.803 20.6136C21.9665 19.9388 21.4225 18.2739 21.1363 17.6117C20.935 17.1513 20.3595 16.0382 20.0293 15.6977C19.9318 15.5968 18.5072 14.6477 18.4128 14.6256C18.1455 14.5657 16.9788 14.6004 16.7146 14.6887C16.4064 14.7896 16.1611 15.0576 16.0667 15.3634C16.0007 15.5747 15.8435 16.4608 15.8403 16.6689C15.8372 17.0347 15.9693 17.5991 16.0038 17.9932C16.1202 19.2924 16.2806 20.6766 16.3341 21.9694C16.3435 22.2185 16.3592 22.3352 16.2649 22.5402Z" fill="#848484"/>
<path d="M0.292114 8.81423C0.373881 8.72594 0.443064 8.61873 0.5437 8.54621C1.65698 7.73898 4.80815 7.91556 6.1227 8.21197C7.11648 8.43584 7.56305 8.70702 8.21089 9.4764C8.80841 10.1859 9.69213 11.6143 9.6827 12.5634C9.66697 13.8972 8.28637 16.0256 7.38379 16.9779C6.9781 17.4099 6.36486 17.6621 5.8208 17.8955C4.77356 18.3432 4.53139 18.3022 3.41497 18.3432C2.9621 18.359 2.85519 18.4095 2.38031 18.3495C2.06897 18.3117 1.60667 18.4189 1.57523 18.7784C1.51233 19.4532 1.52805 20.6672 1.57523 21.3514C1.59409 21.5973 1.7073 21.9095 1.70416 22.1365C1.70416 22.351 1.60352 22.578 1.6161 22.8839C1.62554 23.1204 1.82052 23.7951 1.81738 23.8708C1.81738 23.915 1.74189 24.0285 1.72303 24.1042C1.64126 24.4415 1.60667 24.7506 1.57836 25.0974C1.80479 25.0407 1.66957 25.3654 1.62868 25.501C1.52805 25.8479 1.29848 26.2641 0.877065 26.0245C0.100282 25.583 0.584585 23.6848 0.505963 22.9185C0.493384 22.7956 0.417907 22.7167 0.417907 22.6726C0.417907 22.6411 0.493387 22.6568 0.499677 22.6505C0.565719 22.5685 0.417907 22.5685 0.417907 22.5465C0.417907 22.4897 0.490242 22.4203 0.499677 22.3384C0.559429 21.8622 0.358161 21.2852 0.414769 20.8469C0.424203 20.7712 0.490242 20.7933 0.499677 20.7586C0.537415 20.6041 0.424203 20.2194 0.414769 20.0239C0.367596 19.0937 0.590881 17.9207 0.502825 17.0788C0.465086 16.7193 0.446214 16.8328 0.499677 16.4576C0.594023 15.7608 0.282678 14.7454 0.339285 14.0107L0.295262 13.9098V12.7494C0.417912 12.2386 0.361298 11.712 0.377022 11.1949C0.380167 11.0845 0.421055 10.9868 0.421055 10.867C0.433634 10.2616 0.487099 9.54577 0.295262 8.98135V8.81423H0.292114ZM2.63818 9.19892C2.36458 9.2273 1.6224 9.35658 1.57523 9.6656C1.50604 10.0913 1.59409 10.7377 1.57523 11.1981C1.56579 11.4062 1.48716 11.6521 1.48716 11.8602C1.48716 12.0337 1.57836 12.1283 1.57836 12.2733C1.57836 12.8693 1.32992 13.6859 1.45257 14.304C1.47144 14.3986 1.5595 14.4301 1.56893 14.4774C1.58151 14.5468 1.45886 14.6634 1.45257 14.7643C1.44314 14.9188 1.56893 15.1333 1.56893 15.2594C1.56893 15.3729 1.45886 15.518 1.45257 15.6346C1.44943 15.7166 1.49031 16.0225 1.50918 16.1108C1.59409 16.4986 1.8614 16.8234 2.26394 16.8864C2.80801 16.9716 4.35528 16.9338 4.88048 16.7919C5.66984 16.5806 7.39952 15.3698 7.79263 14.654C7.93415 14.3986 8.44046 12.885 8.47506 12.6012C8.61343 11.4125 7.49386 9.83587 6.41202 9.41649C6.10383 9.29667 4.26409 9.14847 3.91186 9.18946C3.81751 9.20208 3.75147 9.26829 3.61939 9.2746C3.31119 9.28721 3.03444 9.16108 2.63818 9.19892Z" fill="#848484"/>
<path d="M46.0687 7.0705L47.6097 6.94753L47.8361 6.84347L49.8583 1.78256C49.874 1.67536 49.7073 1.45778 49.7042 1.29066C49.6885 0.742006 50.3929 0.407763 50.8175 0.795608C51.2923 1.2276 50.9024 2.0096 50.2797 1.94023C49.8457 3.59566 49.0658 5.1502 48.7073 6.8277L51.8647 6.57545C51.9496 6.59752 51.9119 7.09573 51.9748 7.19978C53.3302 6.36733 53.4749 8.9782 52.0157 8.27818L52.1792 9.76965L53.4623 9.64668C53.368 10.107 53.2516 10.6809 53.8963 10.7251C54.7108 10.7818 54.8932 10.1102 54.4561 9.5237L56.0285 9.48271L56.0694 10.9332C55.4876 10.6652 54.8744 10.9899 55.0568 11.6805C55.192 12.1976 55.7958 12.0841 56.1543 11.8855C56.2109 12.3111 56.2864 12.74 56.277 13.1688L57.8903 13.0868C57.9375 13.131 57.2802 14.0296 57.8525 14.2251C58.4249 14.4206 58.9281 13.8972 58.645 13.3485C58.6073 13.276 58.4469 13.172 58.5538 13.1058C58.6105 13.0711 59.7929 12.9575 59.837 13.0017C59.4942 16.3409 58.9029 19.6581 58.2457 22.9469C57.8966 24.7001 57.5223 28.011 55.7298 28.8371C53.8617 29.698 49.6853 28.8592 47.572 28.629C45.3863 28.3894 43.0874 28.2601 40.9269 27.9132C38.1688 27.4718 37.6373 26.7938 37.1845 24.0821C36.5681 20.3771 35.9265 16.4608 35.5303 12.7305C35.4233 11.7373 35.2629 10.6494 35.6844 9.70343C36.2536 8.42323 37.999 8.02908 39.2412 7.79889C41.1753 7.43628 43.1597 7.32591 45.119 7.1651L42.4364 1.87716C42.3892 1.60283 42.3263 1.73211 42.1313 1.68797C41.1596 1.45778 41.5496 0.123976 42.4427 0.423531C42.9081 0.578039 42.9584 1.06048 42.7666 1.46094C43.317 2.23032 43.6912 3.10376 44.1598 3.92044C44.7699 4.98938 45.4775 6.00156 46.075 7.07681L46.0687 7.0705ZM50.7703 10.9332C50.7609 10.9174 50.481 10.7661 50.4275 10.7598C49.6476 10.662 48.7356 10.8386 47.9462 10.8449C46.9241 10.8544 45.8046 10.6746 44.8013 10.7598C44.4994 10.785 44.1881 10.9395 43.8925 10.9679C43.2132 11.0341 42.4553 11.0026 41.7854 10.9679C41.3609 10.9458 39.9834 10.9647 39.6752 11.217C39.4456 11.4062 39.7098 11.9454 39.9488 12.062C40.2381 12.2008 40.9017 12.0589 41.2445 12.0431C41.5496 12.0305 41.8546 12.0778 42.1534 12.0021L44.7384 11.9611C44.8045 12.0274 44.6504 12.822 44.6535 12.9765C44.6535 13.3328 44.7227 13.3044 44.6504 13.7143C44.534 14.3765 44.4554 15.2405 44.4491 15.9153C44.446 16.3157 44.5718 16.7982 44.5309 17.1576C44.49 17.4919 44.4837 17.7662 44.4963 18.1099C44.5089 18.4126 44.6598 18.8194 44.6598 19.1505C44.6598 19.4185 44.5309 19.7527 44.5277 20.0207C44.5183 21.2852 44.6378 22.5685 44.6567 23.8298C44.6598 24.0884 44.5277 24.8073 44.6126 24.9524C44.6535 25.0217 45.2039 25.5357 45.2636 25.5452C45.3989 25.4127 45.7511 25.2393 45.8549 25.1163C45.9587 24.9934 45.8234 24.6717 45.814 24.4983C45.7888 24.1168 45.8423 23.7163 45.814 23.3379C45.7731 22.7546 45.663 22.5118 45.6913 21.8843C45.7102 21.4744 45.5813 21.0361 45.6064 20.6419C45.6379 20.1595 45.6599 20.2478 45.5781 19.7622C45.5058 19.3302 45.5875 19.1662 45.6096 18.7815C45.6379 18.2518 45.5341 17.8482 45.6064 17.3279C45.6693 16.8675 45.4492 16.1675 45.4429 15.6756C45.4303 14.881 45.8171 13.8846 45.814 13.1404C45.814 13.0521 45.7448 12.9859 45.7291 12.8598C45.6913 12.5066 45.7322 12.0589 45.9241 11.7562C46.5813 11.6963 47.2135 11.9391 47.8613 11.9264C48.1129 11.9201 48.4305 11.8508 48.6853 11.8413C49.374 11.8129 50.0155 11.8918 50.6917 11.6742C50.6162 11.5386 50.7892 10.9679 50.7703 10.9363V10.9332ZM53.0503 23.565L51.6288 18.3779C51.7138 18.1667 51.503 18.0216 51.4905 17.9459C51.481 17.8923 51.5314 17.8103 51.5156 17.7126C51.4653 17.391 51.2609 17.1324 51.1634 16.8612C51.0125 16.445 50.9275 15.4423 50.4086 15.2972C50.2137 15.2436 50.1539 15.3855 50.1288 15.5589C50.0816 15.8774 50.3017 15.9531 50.3803 16.1991C50.4307 16.3536 50.4338 16.5554 50.4778 16.7225C50.6131 17.2238 50.8363 17.6748 50.9181 18.154C51.0785 19.1032 51.371 19.7433 51.6288 20.623C52.0157 21.9379 52.4056 23.5839 52.7044 24.9303C52.7201 24.9965 52.6761 25.0627 52.6981 25.1384C52.7516 25.3213 53.1793 25.4884 53.3239 25.3907C53.6856 25.1479 54.0095 23.3095 54.1385 22.8082C54.4813 21.4933 54.802 20.2667 55.0568 18.9234C55.2297 18.0153 55.5065 16.8139 55.5725 15.9184C55.5977 15.5873 55.5033 14.7202 55.0379 15.2184C54.8681 15.4013 55.0033 15.5779 54.9844 15.7828C54.9247 16.4198 54.5095 17.1387 54.4215 17.6684C54.4058 17.7662 54.4592 17.9207 54.4498 18.0658C54.39 19.1126 53.7233 22.1838 53.3271 23.1582C53.3051 23.2086 53.1321 23.6375 53.0472 23.5618L53.0503 23.565Z" fill="#848484"/>
<path d="M27.9418 13.3423C28.7877 13.235 30.2878 13.8215 31.0395 14.2346C32.7031 15.1522 33.961 16.8833 34.0743 18.8194C34.1843 20.7082 33.8101 24.1042 31.9641 25.1195C31.2376 25.5168 29.7375 25.851 28.9261 25.7596C26.7436 25.5168 25.1554 23.8456 24.3503 21.8938C24.0767 21.2284 23.8 19.409 23.9321 18.7248C24.1711 17.4666 24.8881 15.8144 25.7246 14.8432C26.1901 14.304 27.2373 13.4305 27.9449 13.3391L27.9418 13.3423ZM28.3129 14.9157C27.4575 15.0513 26.5046 16.1833 26.0486 16.8738C25.8787 17.1293 25.5171 17.6779 25.4196 17.9428C25.2529 18.3968 25.1366 19.8946 25.1806 20.396C25.3535 22.3794 26.558 23.7605 28.489 24.2082C30.7438 24.7316 31.9703 23.8235 32.7062 21.7235C33.0962 20.6167 33.1717 18.9833 32.7786 17.8797C32.4924 17.0757 31.6087 15.7608 30.8162 15.4139C30.3161 15.1963 28.8255 14.8369 28.3129 14.9157Z" fill="#848484"/>
<path d="M11.7299 13.2603C11.8243 13.3675 11.9092 13.6607 11.9123 13.8058C11.9186 14.058 11.7802 14.386 11.7897 14.5972C11.796 14.717 11.9092 14.8747 11.9123 15.0513C11.9123 15.2972 11.7991 15.6504 11.7834 15.9184C11.6482 18.1004 12.0161 20.5726 11.6513 22.7041C11.6073 22.9532 11.3934 23.5397 11.4154 23.751C11.4249 23.8456 11.5947 23.9812 11.6828 23.978C11.8557 23.9717 12.5319 23.5114 12.708 23.5713C12.8998 23.6343 12.8715 24.2492 12.8621 24.4195C12.8149 25.2299 12.5853 25.8637 11.6828 25.9299C11.2708 25.9614 11.0349 25.9299 10.777 25.5956C9.93106 24.5046 10.5758 22.5685 10.4625 21.2694C10.6449 19.8253 10.5349 18.3716 10.5852 16.918C10.6072 16.3189 10.7959 15.313 10.7078 14.7675C10.689 14.6445 10.5852 14.5657 10.5852 14.4333C10.5852 14.1715 10.8588 13.7459 11.0381 13.5598C11.0947 13.5031 11.4783 13.1814 11.5255 13.1751C11.5853 13.1625 11.6922 13.2224 11.7299 13.2634V13.2603Z" fill="#848484"/>
<path d="M60.6579 7.65385C60.8718 7.78944 61.9662 7.57817 62.0448 7.69169L62.1454 9.01919C61.7617 8.88045 61.2334 8.96243 61.1045 9.40388C60.878 10.167 61.7177 10.4381 62.2303 9.97146L62.3153 11.3967C62.2901 11.4819 60.9441 11.4913 60.7428 11.5481C60.7177 11.671 60.8277 11.7152 60.8749 11.8098C61.2303 12.4877 60.2805 13.0175 59.8937 12.5445C59.6421 12.2355 59.9534 11.8476 60.0824 11.5481L58.5917 11.6111L58.4093 10.2206C58.3621 10.1417 58.2741 10.2836 58.2112 10.312C57.9502 10.435 57.5979 10.517 57.4029 10.2363C56.9469 9.57731 57.7929 9.06964 58.3464 9.5174L58.3055 7.90296L59.7522 7.73584C59.4094 7.31015 59.4691 6.7205 60.073 6.62905C60.7648 6.525 60.8938 7.12411 60.661 7.65385H60.6579Z" fill="#848484"/>
<path d="M54.8682 4.38082L56.2739 3.96775L56.6859 5.37723C55.9563 5.0966 55.6072 5.95427 56.0444 6.49662C56.3369 6.85609 56.6199 6.72365 56.8715 6.41149C56.9312 6.33581 56.9029 6.21914 57.0161 6.24752C57.1168 6.67005 57.4533 7.17772 57.5099 7.60025C57.5162 7.63809 57.5319 7.68854 57.4879 7.7043L55.9815 8.15522C56.0318 8.3318 56.2268 8.41378 56.3022 8.59981C56.601 9.34713 55.5538 9.66876 55.2865 9.24622C55.1449 9.0255 55.2236 8.69757 55.1575 8.44531L53.8367 8.85838L53.3807 7.49304C53.6071 7.59394 53.8272 7.61286 54.0411 7.47096C54.6292 7.08312 54.0757 5.88805 53.3366 6.31058C53.214 6.38311 53.1983 6.46509 53.0913 6.52185L52.6416 5.27002C52.629 5.21642 52.6668 5.20381 52.7045 5.18173C52.9121 5.06822 53.4373 4.98939 53.7014 4.89479C53.8335 4.84749 54.1826 4.76866 54.082 4.61416C53.9436 4.39974 53.7769 4.28622 53.7895 3.99297C53.7989 3.72495 54.0631 3.51369 54.3147 3.479C55.0003 3.38441 55.0349 3.84477 54.8682 4.38712V4.38082Z" fill="#848484"/>
<path d="M63.2618 2.51727L64.5857 2.84836L64.2964 4.42181C64.4159 4.53848 65.1455 3.9236 65.243 4.652C65.3028 5.09029 65.0732 5.65787 64.5512 5.51282C64.3342 5.44976 64.2461 5.23534 64.048 5.16912L63.7178 6.66059C63.5574 6.62275 62.5447 6.38941 62.4976 6.3295C62.4535 6.27275 62.68 6.00472 62.7083 5.87544C62.9316 4.82857 60.9692 4.83803 61.4031 6.03941L60.0791 5.79031C60.2112 5.23219 60.3465 4.67091 60.3685 4.09072C60.2553 4.06234 60.3056 4.15063 60.2364 4.18532C59.7426 4.44073 59.359 4.37767 59.4156 3.73441C59.469 3.12584 60.1483 2.94611 60.4911 3.46639L60.9314 1.93708C61.1138 2.04114 62.3403 2.21456 62.3938 2.26501C62.4598 2.32808 62.2837 2.38484 62.246 2.42898C61.9881 2.74115 61.834 3.21728 62.2994 3.41593C62.5636 3.52945 62.9284 3.55468 63.136 3.32449C63.158 3.29927 63.2586 3.12899 63.2586 3.11638V2.51411L63.2618 2.51727Z" fill="#848484"/>
<path d="M11.403 8.20251C11.9376 8.11106 12.1326 8.38539 12.3307 8.82684C12.5823 9.39127 12.6703 9.92416 11.9911 10.2016C11.2677 10.4949 10.601 10.1165 10.5444 9.33136C10.513 8.8836 10.9595 8.27818 11.403 8.20251Z" fill="#848484"/>
<path d="M30.1309 17.7725C30.9745 17.5769 31.0941 18.8488 30.2442 18.8046C29.6493 18.773 29.6304 17.8893 30.1309 17.7725Z" fill="#848484"/>
<path d="M27.7317 17.987C28.0842 18.3405 27.5837 18.9402 27.1871 18.5961C26.7653 18.23 27.3571 17.6115 27.7317 17.987Z" fill="#848484"/>
</svg>
