<svg width="112" height="26" viewBox="0 0 112 26" fill="none" xmlns="http://www.w3.org/2000/svg">
<path d="M14.992 15.2797C14.9637 15.1946 14.8977 15.1284 14.8128 15.1L12.9227 14.441C12.8598 14.4189 12.7938 14.4189 12.734 14.441L10.844 15.1C10.7591 15.1284 10.693 15.1946 10.6647 15.2797L7.44751 24.5817C8.17083 24.9223 8.9256 25.1966 9.71496 25.3952L12.5548 16.9982C12.5957 16.8816 12.7057 16.8027 12.8284 16.8027C12.951 16.8027 13.0611 16.8816 13.102 16.9982L15.9607 25.3921C16.7406 25.1934 17.4922 24.9191 18.2092 24.5849L14.992 15.2829V15.2797Z" fill="#848484"/>
<path d="M8.8627 13.2964L0.487915 16.1437C0.686042 16.932 0.959645 17.692 1.29929 18.4172L10.5767 15.1915C10.6616 15.1631 10.7276 15.0969 10.7559 15.0117L11.4132 13.1166C11.4352 13.0536 11.4352 12.9874 11.4132 12.9274L10.7559 11.0324C10.7276 10.9472 10.6616 10.881 10.5767 10.8526L1.29929 7.6269C0.96279 8.34583 0.692331 9.09945 0.494205 9.88144L8.86584 12.7477C8.9822 12.7887 9.06083 12.8991 9.06083 13.022C9.06083 13.145 8.9822 13.2554 8.86584 13.2964H8.8627Z" fill="#848484"/>
<path d="M10.6647 10.7643C10.693 10.8495 10.7591 10.9157 10.844 10.9441L12.734 11.6031C12.7969 11.6252 12.863 11.6252 12.9227 11.6031L14.8128 10.9441C14.8977 10.9157 14.9637 10.8495 14.992 10.7643L18.2092 1.46237C17.4922 1.12498 16.7406 0.853804 15.9607 0.655152L13.102 9.049C13.0611 9.16567 12.951 9.2445 12.8284 9.2445C12.7057 9.2445 12.5957 9.16567 12.5548 9.049L9.71496 0.652C8.92874 0.850653 8.17083 1.12498 7.44751 1.46552L10.6647 10.7675V10.7643Z" fill="#848484"/>
<path d="M16.7909 12.7477L25.1625 9.88144C24.9644 9.09945 24.6908 8.34583 24.3574 7.6269L15.0769 10.8526C14.992 10.881 14.926 10.9472 14.8977 11.0324L14.2404 12.9274C14.2184 12.9905 14.2184 13.0567 14.2404 13.1166L14.8977 15.0117C14.926 15.0969 14.992 15.1631 15.0769 15.1915L24.3574 18.4172C24.6971 17.692 24.9707 16.932 25.1688 16.1437L16.794 13.2964C16.6777 13.2554 16.599 13.145 16.599 13.022C16.599 12.8991 16.6777 12.7887 16.794 12.7477H16.7909Z" fill="#848484"/>
<path d="M31.6787 7.06564H34.7512L38.0188 14.8257L41.2863 7.06564H44.3588L39.2484 19.1393H36.7923L31.6819 7.06564H31.6787Z" fill="#848484"/>
<path d="M53.3311 17.5595C52.8216 18.0861 52.2461 18.4803 51.5983 18.742C50.9504 19.0037 50.2743 19.1361 49.5698 19.1361C48.749 19.1361 47.9817 18.9848 47.2583 18.6789C46.5382 18.3762 45.9092 17.9474 45.3777 17.3987C44.8462 16.8501 44.428 16.1942 44.126 15.4406C43.8241 14.6838 43.67 13.8545 43.67 12.9527C43.67 12.0509 43.821 11.2153 44.126 10.4522C44.428 9.6891 44.8462 9.03008 45.3777 8.48142C45.9092 7.93276 46.535 7.50393 47.2583 7.20122C47.9785 6.89851 48.749 6.744 49.5698 6.744C50.2743 6.744 50.9473 6.87644 51.5857 7.13815C52.2241 7.39987 52.7965 7.78772 53.3059 8.29538V6.86698H56.2558V18.9406H53.5512L53.3311 17.5595ZM53.3059 12.9527C53.3059 12.4261 53.2147 11.9594 53.0355 11.5495C52.8562 11.1396 52.614 10.7864 52.3121 10.49C52.0102 10.1936 51.6486 9.96974 51.2303 9.81208C50.812 9.65757 50.3655 9.57874 49.8906 9.57874C49.4157 9.57874 48.9975 9.65757 48.5886 9.81208C48.1798 9.96974 47.8213 10.1936 47.5194 10.49C47.2175 10.7864 46.9784 11.1396 46.8055 11.5495C46.6325 11.9594 46.5476 12.4292 46.5476 12.9527C46.5476 13.4761 46.6325 13.9207 46.8055 14.3338C46.9784 14.7437 47.2143 15.0969 47.5194 15.3933C47.8213 15.6897 48.1798 15.9135 48.5886 16.0712C48.9975 16.2289 49.4314 16.3045 49.8906 16.3045C50.3497 16.3045 50.812 16.2257 51.2303 16.0712C51.6486 15.9167 52.0071 15.6897 52.3121 15.3933C52.614 15.0969 52.8562 14.7437 53.0355 14.3338C53.2147 13.9239 53.3059 13.4635 53.3059 12.9527Z" fill="#848484"/>
<path d="M62.6903 12.9527C62.6903 12.0509 62.8538 11.2153 63.1809 10.4522C63.508 9.6891 63.9514 9.03008 64.508 8.48142C65.0647 7.93276 65.7251 7.50393 66.4862 7.20122C67.2472 6.89851 68.0555 6.744 68.9077 6.744C69.76 6.744 70.5588 6.89536 71.3041 7.20122C72.0494 7.50393 72.7036 7.93276 73.2696 8.48142C73.8357 9.03323 74.2823 9.6891 74.6094 10.4522C74.9364 11.2153 75.1 12.0509 75.1 12.9527C75.1 13.8545 74.9364 14.6869 74.6094 15.4406C74.2823 16.1973 73.8357 16.8501 73.2696 17.3987C72.7036 17.9505 72.0494 18.3762 71.3041 18.6789C70.5588 18.9816 69.76 19.1361 68.9077 19.1361C68.0555 19.1361 67.2504 18.9848 66.4862 18.6789C65.7251 18.3762 65.0647 17.9474 64.508 17.3987C63.9514 16.8501 63.508 16.1942 63.1809 15.4406C62.8538 14.6838 62.6903 13.8545 62.6903 12.9527ZM65.615 12.9275C65.615 13.4383 65.6999 13.8955 65.8729 14.3086C66.0459 14.7185 66.2786 15.0685 66.5742 15.3554C66.8698 15.6424 67.2158 15.8662 67.6183 16.0208C68.0209 16.1784 68.4486 16.2541 68.9077 16.2541C69.3669 16.2541 69.7663 16.1753 70.1594 16.0208C70.5525 15.8662 70.8953 15.6424 71.1909 15.3554C71.4865 15.0685 71.7192 14.7185 71.8922 14.3086C72.0652 13.8986 72.1501 13.4383 72.1501 12.9275C72.1501 12.4166 72.0652 11.9626 71.8922 11.559C71.7192 11.1553 71.4865 10.8116 71.1909 10.5247C70.8953 10.2378 70.5525 10.017 70.1594 9.85938C69.7663 9.70487 69.348 9.62604 68.9077 9.62604C68.4674 9.62604 68.0177 9.70487 67.6183 9.85938C67.2158 10.017 66.8698 10.2378 66.5742 10.5247C66.2786 10.8116 66.0459 11.1585 65.8729 11.559C65.6999 11.9626 65.615 12.4166 65.615 12.9275Z" fill="#848484"/>
<path d="M83.1602 9.81839H82.5407C81.962 9.81839 81.4683 9.90037 81.0563 10.0675C80.6443 10.2315 80.2984 10.4238 80.0185 10.6382C79.704 10.8873 79.4398 11.1585 79.226 11.4549V19.1393H76.2604V6.99311H78.9807L79.2291 8.62963C79.7072 8.06835 80.2827 7.63321 80.9588 7.32735C81.635 7.02149 82.3677 6.87013 83.1602 6.87013V9.81839Z" fill="#848484"/>
<path d="M89.3997 19.1393V16.2762L94.4377 9.80577H89.4971V6.94265H98.1109V9.80577L93.0729 16.2762H98.2367V19.1393H89.3997Z" fill="#848484"/>
<path d="M111.005 14.6051C110.907 15.2798 110.668 15.8947 110.291 16.4528C109.913 17.011 109.451 17.4871 108.904 17.8812C108.353 18.2754 107.743 18.5844 107.074 18.8051C106.401 19.0259 105.706 19.1362 104.985 19.1362C104.133 19.1362 103.328 18.9849 102.564 18.679C101.803 18.3763 101.142 17.9475 100.586 17.3988C100.029 16.8501 99.5856 16.1943 99.2585 15.4407C98.9315 14.6839 98.7679 13.8546 98.7679 12.9528C98.7679 12.051 98.9315 11.2153 99.2585 10.4523C99.5856 9.68919 100.029 9.03017 100.586 8.48151C101.142 7.93285 101.803 7.50402 102.564 7.20131C103.325 6.8986 104.133 6.74409 104.985 6.74409C105.885 6.74409 106.706 6.87969 107.441 7.15086C108.177 7.42204 108.813 7.80673 109.347 8.30809C109.879 8.80945 110.3 9.41802 110.612 10.1306C110.923 10.8464 111.086 11.6473 111.102 12.5334V13.6654H101.765C101.913 14.4695 102.284 15.1033 102.885 15.5636C103.482 16.024 104.183 16.2542 104.985 16.2542C105.608 16.2542 106.177 16.1091 106.693 15.8222C107.209 15.5353 107.599 15.1285 107.86 14.6019H111.005V14.6051ZM107.734 11.3289C107.489 10.8023 107.124 10.3892 106.64 10.0833C106.155 9.78064 105.602 9.62613 104.982 9.62613C104.363 9.62613 103.765 9.77748 103.249 10.0833C102.734 10.3861 102.337 10.8023 102.057 11.3289H107.734Z" fill="#848484"/>
<path d="M58.7214 17.3199L61.2719 15.4752V3.24709H58.322V19.1393H61.2719V17.3199H58.7214Z" fill="#848484"/>
<path d="M85.0534 6.04714L87.6008 4.20251V3.41736H84.6541V19.1393H87.6008V6.04714H85.0534Z" fill="#848484"/>
</svg>
