<svg width="85" height="29" viewBox="0 0 85 29" fill="none" xmlns="http://www.w3.org/2000/svg">
<path d="M34.0157 12.7792C34.0157 12.8076 34.0063 12.8234 33.9905 12.8234H33.7106C33.6572 12.8234 33.6163 12.8455 33.588 12.8896C33.2892 13.6432 32.9527 14.4788 32.5816 15.3933C32.2577 16.1973 31.8457 17.2127 31.3488 18.4361C31.2891 18.5749 31.245 18.6411 31.2136 18.6411C31.1759 18.6411 31.135 18.5906 31.0941 18.4929C30.4997 16.9982 30.0878 15.9955 29.8613 15.4847C29.7009 15.0969 29.5405 14.709 29.3801 14.3243C29.1003 13.659 28.8833 13.2081 28.7323 12.9779C28.6506 12.877 28.5688 12.8234 28.487 12.8234H28.3392C28.3141 12.8234 28.2983 12.8202 28.292 12.8108C28.2857 12.8013 28.2826 12.7919 28.2826 12.7792V12.6342C28.2826 12.6058 28.2983 12.5901 28.3266 12.5901H30.2387C30.2733 12.5901 30.2922 12.6027 30.2922 12.6247V12.7698C30.2922 12.8045 30.2796 12.8234 30.2576 12.8234H29.7198C29.6474 12.8234 29.6097 12.8612 29.6097 12.9338C29.6097 12.9874 29.6254 13.0536 29.6569 13.1387C29.9242 13.7914 30.2104 14.4851 30.5123 15.2198C31.0501 16.5883 31.3426 17.3199 31.3897 17.4208C31.4117 17.4807 31.4337 17.5122 31.4558 17.5122C31.4746 17.5122 31.4935 17.4933 31.5155 17.4555C31.5721 17.3609 31.7388 16.9509 32.0218 16.2194C32.1634 15.841 32.308 15.4626 32.4558 15.0842C32.4747 15.0401 32.5691 14.7941 32.7357 14.3432C32.9024 13.8892 32.9968 13.6275 33.0188 13.5581C33.088 13.3311 33.1225 13.1419 33.1225 12.9937C33.1225 12.8802 33.0785 12.8234 32.9873 12.8234H32.4967C32.4558 12.8234 32.437 12.8076 32.437 12.7792V12.6342C32.437 12.6058 32.4495 12.5901 32.4715 12.5901H33.9654C33.9937 12.5901 34.0094 12.6027 34.0094 12.6247V12.7792H34.0157ZM38.4846 16.9068C38.4846 17.3924 38.3304 17.7897 38.0222 18.105C37.692 18.433 37.214 18.5969 36.5882 18.5969C35.8523 18.5969 35.3334 18.4613 35.0315 18.1933C34.9969 18.1618 34.978 18.1019 34.978 18.0136C34.978 17.9947 34.978 17.8212 34.9749 17.4996C34.9749 17.178 34.9717 17.0046 34.9717 16.9825C34.9717 16.9446 34.9937 16.9257 35.0315 16.9257H35.2107C35.2453 16.9257 35.2673 16.9446 35.2705 16.9825C35.2768 17.0203 35.2862 17.1118 35.2957 17.26C35.3145 17.5753 35.4309 17.8338 35.6447 18.0325C35.7454 18.1271 35.8932 18.2059 36.0819 18.269C36.2706 18.3321 36.4404 18.3667 36.5945 18.3667C37.1763 18.3667 37.5662 18.1712 37.7612 17.7834C37.8493 17.6037 37.8933 17.3766 37.8933 17.1086C37.8933 16.869 37.8115 16.664 37.6449 16.4906C37.4593 16.2982 37.1323 16.1185 36.67 15.9514C36.1448 15.7653 35.7737 15.5761 35.5504 15.387C35.2548 15.1379 35.1101 14.75 35.1101 14.2203C35.1101 13.7221 35.3114 13.3027 35.7139 12.9621C36.019 12.7004 36.4215 12.568 36.9215 12.568C37.2517 12.568 37.5568 12.6247 37.8398 12.7351C38.0191 12.8045 38.1543 12.877 38.2393 12.9558C38.2801 12.9842 38.3021 13.0252 38.3084 13.0756C38.3399 13.2964 38.3556 13.5959 38.3556 13.9712C38.3556 14.0311 38.3462 14.0626 38.3304 14.0626H38.1197C38.0977 14.0626 38.0851 14.0437 38.0757 14.009C38.0568 13.9239 38.038 13.8135 38.0159 13.6748C37.9719 13.473 37.8713 13.3279 37.7109 13.2365C37.4153 13.0662 37.0756 12.9811 36.692 12.9811C36.346 12.9811 36.0882 13.0567 35.9215 13.2049C35.7454 13.3594 35.6604 13.6338 35.6604 14.0248C35.6604 14.2644 35.7422 14.4725 35.9057 14.6523C35.9844 14.7405 36.1385 14.832 36.3649 14.9329C36.5536 15.0086 36.7454 15.0874 36.9341 15.1662C37.3115 15.3302 37.5316 15.4311 37.5977 15.4689C37.8178 15.5888 38.0002 15.7338 38.1543 15.9041C38.3776 16.1595 38.4908 16.4969 38.4908 16.9163L38.4846 16.9068ZM46.5417 17.9347C46.5417 17.96 46.4945 18.0546 46.4002 18.2122C46.3782 18.2721 46.3247 18.3699 46.2461 18.5023C46.2241 18.537 46.1989 18.5559 46.1706 18.5559H42.0068C41.9722 18.5559 41.9533 18.5402 41.9533 18.5118V18.3667C41.9533 18.3384 41.9691 18.3226 41.9974 18.3226H42.6546C42.7081 18.3226 42.7332 18.2911 42.7332 18.2312C42.7332 18.2059 42.7301 18.0293 42.7207 17.7014C42.7113 17.3735 42.7144 16.6482 42.7238 15.5257C42.7364 14.4032 42.7427 13.8135 42.7427 13.7599C42.7427 13.1387 42.6861 12.8265 42.5729 12.8265H42.0791C42.0382 12.8265 42.0194 12.8076 42.0194 12.7729V12.6468C42.0194 12.6121 42.0382 12.5932 42.0728 12.5932H44.4378C44.4661 12.5932 44.4818 12.6058 44.4818 12.6279V12.7824C44.4818 12.8108 44.4692 12.8265 44.4472 12.8265H43.5698C43.5258 12.8265 43.5006 12.8486 43.4912 12.8865C43.4817 12.9274 43.4691 13.6401 43.4471 15.0243C43.4283 16.3266 43.422 17.0708 43.422 17.2505C43.422 17.9253 43.5006 18.2627 43.6547 18.2627C44.595 18.2627 45.136 18.2564 45.2775 18.2438C45.7335 18.2059 46.0983 18.1019 46.375 17.9316C46.4442 17.8875 46.4882 17.8654 46.5008 17.8654C46.5291 17.8875 46.5448 17.9064 46.5448 17.9316L46.5417 17.9347ZM52.7119 18.5086C52.7119 18.537 52.7025 18.5528 52.6868 18.5528H50.6709C50.6426 18.5528 50.6269 18.5339 50.6269 18.4992V18.3794C50.6269 18.3384 50.6426 18.3194 50.6709 18.3194H51.2684C51.3156 18.3194 51.3345 18.2942 51.325 18.2406C51.2999 18.146 51.1993 17.8433 51.0231 17.3293C50.847 16.8122 50.7527 16.5347 50.7338 16.4969C50.7118 16.437 50.6803 16.4086 50.6426 16.4086H48.5293C48.5041 16.4149 48.4821 16.4307 48.4632 16.4622C48.4223 16.541 48.3531 16.7271 48.2525 17.0203C48.155 17.3104 48.0921 17.5059 48.0701 17.6131C48.0229 17.8465 48.0009 17.9884 48.0009 18.0325C48.0009 18.2248 48.0229 18.3226 48.0701 18.3226H48.7337C48.7683 18.3226 48.7871 18.3447 48.7871 18.3825V18.5086C48.7871 18.537 48.7714 18.5528 48.7431 18.5528H46.9757C46.9474 18.5528 46.9317 18.537 46.9317 18.5086V18.3636C46.9317 18.3352 46.9442 18.3194 46.9663 18.3194H47.3436C47.4065 18.3194 47.4946 18.1807 47.6015 17.9064C47.7116 17.632 48.0387 16.8374 48.5796 15.5257C48.9255 14.6996 49.3469 13.6968 49.8438 12.5175C49.8753 12.4261 49.9067 12.3756 49.9413 12.363C50.0231 12.341 50.1268 12.3031 50.2558 12.2527C50.2746 12.2432 50.2998 12.259 50.325 12.3C50.3501 12.3378 50.3407 12.3819 50.2904 12.4324C50.2023 12.5238 50.1583 12.6121 50.1583 12.6941C50.1583 12.7824 50.1772 12.8928 50.218 13.022C50.3753 13.4603 50.6583 14.2802 51.0703 15.4847C51.4823 16.6861 51.7685 17.4649 51.9289 17.8181C52.083 18.1492 52.193 18.3131 52.2622 18.3131H52.6742C52.6962 18.3131 52.7088 18.3352 52.7088 18.373V18.4992L52.7119 18.5086ZM50.5483 16.0081C50.4288 15.6613 50.2998 15.2797 50.1646 14.8635C50.0262 14.4473 49.8847 14.0153 49.74 13.5644C49.7306 13.5266 49.718 13.5045 49.7054 13.495C49.6928 13.5076 49.6803 13.5297 49.6614 13.5644C49.2966 14.4599 49.0356 15.0937 48.8752 15.4658C48.7179 15.841 48.6393 16.0334 48.6393 16.046C48.6393 16.0649 48.6519 16.0712 48.6802 16.0712H50.5294C50.5577 16.0712 50.5671 16.0491 50.5514 16.005L50.5483 16.0081ZM62.7818 12.7792C62.7818 12.8076 62.7661 12.8234 62.7378 12.8234H62.4327C62.3792 12.8234 62.3352 12.8549 62.2975 12.9148C62.2755 12.9464 62.1088 13.3531 61.7912 14.1383C61.483 14.8951 61.3131 15.3113 61.288 15.3838C60.9043 16.2478 60.4515 17.2852 59.9357 18.4929C59.8917 18.6001 59.8539 18.6537 59.8162 18.6537C59.7784 18.6537 59.7439 18.6064 59.7061 18.5086C59.4199 17.8149 59.0866 16.9825 58.706 16.0113C58.4765 15.3523 58.2563 14.8005 58.0488 14.3527C58.0205 14.2865 57.9984 14.2518 57.989 14.2518C57.9733 14.2518 57.9607 14.2739 57.945 14.3117C57.9292 14.3716 57.6871 14.9676 57.2091 16.0901C56.6461 17.4239 56.2971 18.2217 56.1587 18.4897C56.1178 18.5717 56.0832 18.6127 56.0549 18.6127C56.0046 18.6127 55.9637 18.5591 55.9291 18.4519C55.5832 17.5942 55.2247 16.7081 54.8536 15.7874C54.5422 15.0275 54.2152 14.2297 53.8692 13.3973C53.8252 13.2775 53.734 13.1103 53.5925 12.8959C53.5327 12.8455 53.4635 12.8202 53.3912 12.8202H53.2025C53.1742 12.8202 53.1585 12.8013 53.1585 12.7666V12.631C53.1585 12.6027 53.1711 12.5869 53.1931 12.5869H55.0391C55.0831 12.5869 55.1052 12.6058 55.1052 12.6405V12.7761C55.1052 12.8045 55.0894 12.8202 55.058 12.8202H54.5234C54.4636 12.8202 54.4322 12.8455 54.4322 12.8959C54.4322 12.9527 54.4447 13.0094 54.4668 13.0662C54.9951 14.3243 55.2876 15.0275 55.3442 15.1851C55.8065 16.4433 56.1021 17.2001 56.231 17.446C56.2625 17.5091 56.2971 17.5122 56.3348 17.4555C56.5644 16.9289 56.8065 16.3739 57.0613 15.7843C57.4953 14.8099 57.7437 14.195 57.8035 13.9333C57.8192 13.8734 57.8129 13.7946 57.7846 13.7C57.6934 13.5139 57.5959 13.2995 57.4858 13.063C57.3883 12.8991 57.3034 12.8171 57.228 12.8171H56.7719C56.7405 12.8171 56.7248 12.8013 56.7248 12.7729V12.6279C56.7248 12.5995 56.7405 12.5837 56.7719 12.5837H58.9545C58.9859 12.5837 59.0017 12.5995 59.0017 12.6279V12.7635C59.0017 12.7982 58.9828 12.8171 58.945 12.8171H58.2406C58.2029 12.8171 58.184 12.8392 58.184 12.8833C58.184 12.9054 58.2123 12.9779 58.2657 13.0977C58.3915 13.3815 58.6809 14.1036 59.1306 15.2671C59.3759 15.9072 59.6495 16.6104 59.9577 17.3798C59.986 17.4397 60.0112 17.4712 60.0269 17.4712C60.0426 17.4712 60.0583 17.4523 60.0803 17.4145C60.1715 17.2568 60.3351 16.8973 60.571 16.3392C60.6936 16.0523 60.8131 15.7685 60.9326 15.4847C61.1622 14.9802 61.376 14.3811 61.5742 13.6874C61.6402 13.4603 61.6748 13.2333 61.6748 13.0126C61.6748 12.8801 61.6182 12.8139 61.505 12.8139H61.0773C61.0395 12.8139 61.0207 12.795 61.0207 12.7603V12.6342C61.0207 12.5995 61.0427 12.5806 61.0867 12.5806H62.7189C62.7535 12.5806 62.7724 12.5995 62.7724 12.6342V12.7698L62.7818 12.7792ZM68.3954 12.7887C68.3954 12.8108 68.3859 12.8234 68.3702 12.8234H68.0652C67.9897 12.8234 67.9079 12.8928 67.8262 13.0284C67.6186 13.3689 67.367 13.7883 67.0745 14.277C66.7915 14.7248 66.499 15.1946 66.1971 15.6897C66.1688 15.7527 66.1531 15.8 66.1531 15.8284C66.1531 15.841 66.1531 16.109 66.15 16.6388C66.15 17.1685 66.1468 17.4555 66.1468 17.4965C66.1468 18.042 66.2034 18.3163 66.3166 18.3163H67.0682C67.0682 18.3163 67.0934 18.3163 67.0997 18.3257C67.1091 18.3321 67.1123 18.3447 67.1123 18.3699V18.5149C67.1123 18.537 67.0997 18.5496 67.0777 18.5496H64.7222C64.6813 18.5496 64.6624 18.5307 64.6624 18.496V18.3762C64.6624 18.3352 64.6813 18.3163 64.7159 18.3163H65.4329C65.4832 18.3163 65.5084 18.2784 65.5084 18.2059L65.4958 15.8662C65.4958 15.778 65.4801 15.7149 65.4518 15.677C65.4015 15.6108 65.1342 15.1694 64.6467 14.359C64.436 14.0027 64.1498 13.5518 63.785 13.0094C63.6844 12.8833 63.5649 12.8202 63.4265 12.8202H63.2692C63.2441 12.8202 63.2284 12.8171 63.2221 12.8076C63.2158 12.7982 63.2126 12.7887 63.2126 12.7761V12.65C63.2126 12.609 63.2315 12.5901 63.2692 12.5901H65.2285C65.2694 12.5901 65.2883 12.609 65.2883 12.6437V12.7792C65.2883 12.8076 65.2757 12.8234 65.2537 12.8234H64.7505C64.675 12.8234 64.6373 12.8549 64.6373 12.9148C64.6373 12.959 64.6561 13.0189 64.6907 13.0946C64.87 13.3973 65.087 13.763 65.3386 14.1919C65.6876 14.8162 65.9172 15.2072 66.0242 15.3586C66.0587 15.409 66.0902 15.4185 66.1154 15.3838C66.216 15.2514 66.3921 14.977 66.6342 14.5608C66.8827 14.1414 67.0462 13.845 67.1249 13.6716C67.2569 13.3847 67.323 13.1387 67.323 12.9338C67.323 12.8612 67.2852 12.8234 67.2098 12.8234H66.8261C66.8009 12.8234 66.7852 12.8108 66.7852 12.7887V12.6342C66.7852 12.6058 66.7978 12.5901 66.8261 12.5901H68.3734C68.3954 12.5901 68.4079 12.6027 68.4079 12.6247V12.7856L68.3954 12.7887ZM73.7291 17.9253C73.6473 18.0924 73.5498 18.2848 73.4366 18.4992C73.4146 18.5339 73.3831 18.5528 73.3454 18.5528H69.2099C69.1816 18.5528 69.1659 18.5339 69.1659 18.4992V18.3636C69.1659 18.3352 69.1784 18.3194 69.2005 18.3194H69.8483C69.9081 18.3194 69.9363 18.2879 69.9363 18.228C69.9363 18.2028 69.9364 17.7519 69.9269 16.8816C69.9207 16.0081 69.9175 15.5572 69.9175 15.532C69.9175 15.5036 69.9175 15.2009 69.9143 14.6302C69.9143 14.0531 69.9112 13.7504 69.9112 13.7126C69.9112 13.1198 69.8546 12.8234 69.7414 12.8234H69.2131C69.1847 12.8234 69.169 12.8076 69.169 12.7792V12.6342C69.169 12.6058 69.1879 12.5901 69.2225 12.5901H73.1347C73.1882 12.5901 73.2574 12.5901 73.3454 12.5806C73.4366 12.5743 73.4806 12.5711 73.4775 12.5711C73.5152 12.5711 73.5309 12.5869 73.5215 12.6153C73.4806 12.7761 73.4303 12.9621 73.3674 13.1734C73.3454 13.2396 73.3202 13.2743 73.2982 13.2743C73.2982 13.2743 73.2762 13.2522 73.2385 13.2081C73.1315 13.104 72.9586 13.0284 72.7258 12.9842C72.3988 12.9243 71.7069 12.8896 70.6502 12.8802C70.6156 12.8802 70.5905 12.8991 70.5748 12.9338C70.5622 12.9684 70.5559 13.6937 70.5559 15.1095C70.5559 15.1694 70.5811 15.1978 70.6314 15.1978H72.7699C72.8108 15.1978 72.8328 15.1757 72.8391 15.1315C72.8485 15.0874 72.8611 14.9928 72.8737 14.8509C72.8925 14.709 72.902 14.6302 72.9051 14.6144C72.9051 14.5577 72.924 14.5324 72.9586 14.5324H73.0246C73.0592 14.5324 73.0781 14.5577 73.0781 14.6081C73.0781 14.6207 73.0718 14.7437 73.0592 14.977C73.0466 15.2072 73.0403 15.346 73.0403 15.3901C73.0403 15.4343 73.0403 15.5888 73.0498 15.8505C73.0561 16.1122 73.0592 16.2541 73.0592 16.2699C73.0592 16.3329 73.0435 16.3676 73.012 16.3676H72.9429C72.9146 16.3676 72.8957 16.3487 72.8894 16.3077C72.8768 16.1217 72.8642 15.8978 72.8453 15.6424C72.8359 15.5825 72.8076 15.5541 72.7636 15.5541C72.7385 15.5541 72.3768 15.5478 71.6849 15.5352C70.993 15.5225 70.6408 15.5162 70.6282 15.5162C70.5905 15.5162 70.5716 15.5415 70.5716 15.5951V17.2473C70.5716 17.9474 70.6471 18.3005 70.7981 18.3005C72.1629 18.3005 73.0686 18.1965 73.5184 17.9852C73.6253 17.9253 73.6913 17.8875 73.7165 17.8748C73.7448 17.8748 73.7542 17.8938 73.7417 17.9316L73.7291 17.9253ZM80.3553 18.4992C80.3553 18.5339 80.3427 18.5528 80.3207 18.5528H78.8992C78.8678 18.5528 78.83 18.5339 78.7892 18.4992C78.6791 18.4014 78.4747 18.1586 78.1759 17.7613C78.0187 17.5469 77.8614 17.3356 77.7042 17.1212C77.5281 16.8595 77.2859 16.4496 76.9777 15.8946C76.9557 15.8442 76.9337 15.8189 76.9085 15.8189C76.7733 15.8189 76.5312 15.8 76.1821 15.7653C76.1349 15.7496 76.1129 15.7653 76.1129 15.8095C76.1129 15.8662 76.1129 16.0491 76.116 16.3676C76.116 16.6798 76.1192 17.0109 76.1192 17.3577C76.1192 17.9978 76.1852 18.3163 76.3173 18.3163H77.0972C77.1255 18.3163 77.1412 18.3321 77.1412 18.3604V18.5055C77.1412 18.5339 77.1287 18.5496 77.1067 18.5496H74.7889C74.7637 18.5496 74.748 18.5465 74.7417 18.537C74.7354 18.5276 74.7323 18.5181 74.7323 18.5055V18.3699C74.7323 18.3447 74.7354 18.3289 74.7449 18.3257C74.7543 18.3194 74.7669 18.3163 74.7794 18.3163H75.3518C75.399 18.3163 75.421 18.2721 75.421 18.1807V14.0248C75.4147 13.2207 75.3644 12.8202 75.2669 12.8202H74.7103C74.682 12.8202 74.6662 12.8076 74.6662 12.7856V12.6247C74.6662 12.6027 74.6788 12.5901 74.7008 12.5901H76.0091C76.05 12.5901 76.2167 12.5837 76.5091 12.5711C76.8047 12.5585 76.9683 12.5522 77.0029 12.5522C77.1916 12.5522 77.3771 12.568 77.5595 12.5964C77.9621 12.6594 78.286 12.8108 78.5313 13.0473C78.8175 13.3184 78.959 13.6621 78.959 14.0784C78.959 14.5514 78.8206 14.9392 78.5407 15.2451C78.3678 15.4311 78.0879 15.5919 77.6979 15.7243C77.6759 15.737 77.6665 15.7527 77.6728 15.778C77.8017 16.1153 78.0973 16.5442 78.5596 17.0708C78.8017 17.3451 78.9779 17.5438 79.0879 17.6636C79.2829 17.8685 79.4496 18.023 79.5848 18.1239C79.7704 18.2627 80.0062 18.3289 80.2861 18.3289C80.3333 18.3289 80.3553 18.3415 80.3553 18.3636V18.4992ZM78.2357 14.3117C78.2357 13.9239 78.1067 13.6054 77.852 13.3594C77.4935 13.0189 76.9746 12.8518 76.2953 12.8518C76.1947 12.8518 76.1412 12.8707 76.1349 12.9117C76.1349 13.7504 76.1286 14.2739 76.116 14.482V15.4816C76.116 15.5131 76.1349 15.5352 76.1758 15.5415C76.2418 15.5541 76.4274 15.5604 76.7324 15.5604C76.8582 15.5604 76.9966 15.5478 77.1538 15.5257C77.3111 15.5036 77.3834 15.491 77.3677 15.491C77.9463 15.3397 78.2388 14.9455 78.2388 14.3117H78.2357ZM84.7581 16.9068C84.7581 17.3924 84.604 17.7897 84.2958 18.105C83.9656 18.433 83.4876 18.5969 82.8618 18.5969C82.1259 18.5969 81.6101 18.4613 81.305 18.1933C81.2705 18.1618 81.2516 18.1019 81.2516 18.0136C81.2516 17.9947 81.2516 17.8212 81.2485 17.4996C81.2485 17.178 81.2453 17.0046 81.2453 16.9825C81.2453 16.9446 81.2673 16.9257 81.305 16.9257H81.4843C81.5189 16.9257 81.5409 16.9446 81.5472 16.9825C81.5535 17.0203 81.5629 17.1118 81.5724 17.26C81.5912 17.5753 81.7076 17.8338 81.9215 18.0325C82.0221 18.1271 82.1699 18.2059 82.3586 18.269C82.5473 18.3321 82.7171 18.3667 82.8712 18.3667C83.453 18.3667 83.843 18.1712 84.038 17.7834C84.126 17.6037 84.17 17.3766 84.17 17.1086C84.17 16.869 84.0883 16.664 83.9216 16.4906C83.7361 16.2982 83.409 16.1185 82.9467 15.9514C82.4215 15.7653 82.0504 15.5761 81.8271 15.387C81.5315 15.1379 81.3837 14.75 81.3837 14.2203C81.3837 13.7221 81.585 13.3027 81.9875 12.9621C82.2926 12.7004 82.6951 12.568 83.1951 12.568C83.5253 12.568 83.8304 12.6247 84.1134 12.7351C84.2927 12.8045 84.4279 12.877 84.5128 12.9558C84.5537 12.9842 84.5757 13.0252 84.582 13.0756C84.6135 13.2964 84.6292 13.5959 84.6292 13.9712C84.6292 14.0311 84.6197 14.0626 84.604 14.0626H84.3933C84.3713 14.0626 84.3587 14.0437 84.3493 14.009C84.3304 13.9239 84.3115 13.8135 84.2895 13.6748C84.2455 13.473 84.1417 13.3279 83.9845 13.2365C83.6889 13.0662 83.3492 12.9811 82.9655 12.9811C82.6196 12.9811 82.3618 13.0567 82.1951 13.2049C82.019 13.3594 81.934 13.6338 81.934 14.0248C81.934 14.2644 82.0158 14.4725 82.1793 14.6523C82.258 14.7405 82.412 14.832 82.6385 14.9329C82.8272 15.0086 83.019 15.0874 83.2077 15.1662C83.5851 15.3302 83.8052 15.4311 83.8713 15.4689C84.0914 15.5888 84.277 15.7338 84.4279 15.9041C84.6544 16.1595 84.7644 16.4969 84.7644 16.9163L84.7581 16.9068Z" fill="#848484"/>
<path fill-rule="evenodd" clip-rule="evenodd" d="M14.81 18.4235C13.1023 19.4514 11.6934 20.7695 10.5864 22.3776C10.2845 22.7844 10.0801 23.2258 9.97633 23.6957C10.8821 22.3429 12.0299 21.2015 13.4168 20.2744C14.1275 19.8866 14.8257 19.4893 15.505 19.0794C17.1781 18.31 18.8323 17.4996 20.4676 16.6482C21.8828 15.8032 23.0024 14.6901 23.82 13.3121C24.0182 12.6973 24.2509 12.0918 24.515 11.499C24.9396 14.4977 23.9395 16.9856 21.5117 18.9564C20.7286 19.546 19.9172 20.0947 19.0744 20.6055C17.546 21.4254 16.0365 22.2641 14.5458 23.1186C14.3477 23.2132 14.1433 23.3078 13.9357 23.4056C13.8319 23.4592 13.8319 23.5002 13.9357 23.5285C14.6087 23.4056 15.2754 23.3236 15.939 23.2826C18.0303 22.8569 19.9739 22.1001 21.7727 21.0154C22.6879 20.287 23.515 19.4767 24.254 18.5843C24.4522 18.2375 24.6251 17.8811 24.7761 17.5122C24.754 21.4317 22.7099 23.7524 18.6373 24.4745C18.0869 24.5533 17.5366 24.6227 16.9831 24.6795C16.4673 24.6574 15.9736 24.711 15.5018 24.8434C14.2565 24.9443 13.096 25.288 12.0205 25.8745C10.6776 26.7164 9.45743 27.6908 8.36301 28.8007C7.33778 26.6565 6.87233 24.402 6.96982 22.0434C7.08932 21.6492 7.14909 21.2393 7.1428 20.8073C7.52962 18.8902 8.44477 17.2442 9.88512 15.8631C11.3821 14.586 12.7155 13.1829 13.8917 11.6599C15.288 9.35486 15.7817 6.88274 15.3729 4.2435C15.1653 2.93176 14.8603 1.6421 14.4578 0.371357C14.4861 0.317752 14.5143 0.260994 14.5458 0.20739C15.3289 0.850645 16.0962 1.50967 16.8542 2.18445C17.4139 2.88447 17.9077 3.62547 18.3354 4.41062C19.4109 7.135 19.0335 9.66387 17.2032 11.9909C15.5836 13.6905 13.9011 15.3365 12.1526 16.9352C11.7186 17.4586 11.2815 17.9789 10.8475 18.5023C10.7909 18.5559 10.7909 18.6127 10.8475 18.6663C11.2123 18.2942 11.6054 17.9505 12.0236 17.6352C13.6967 16.6545 15.3226 15.6108 16.8982 14.5041C17.8825 13.6842 18.7379 12.7635 19.4675 11.7418C20.606 9.7427 20.9268 7.6269 20.4267 5.39758C20.1846 4.52098 19.9078 3.657 19.5996 2.80248C19.6279 2.76149 19.6562 2.7205 19.6877 2.67951C20.6626 4.0007 21.5463 5.37235 22.3419 6.80076C23.7414 9.50306 23.3923 11.9752 21.2979 14.2171C20.628 14.8036 19.9141 15.3365 19.1656 15.8252C17.6938 16.6735 16.2441 17.5374 14.8131 18.4203L14.81 18.4235Z" fill="#848484"/>
<path fill-rule="evenodd" clip-rule="evenodd" d="M5.66784 14.4662C7.16479 14.4378 8.64288 14.4662 10.1084 14.5482C7.69313 16.2604 6.29998 18.5402 5.92888 21.3875C5.81881 21.8227 5.73073 22.2641 5.66784 22.7056C5.40052 20.9145 4.74639 19.2686 3.70859 17.7613C2.87205 16.7681 1.78393 16.273 0.444214 16.2793C0.698948 15.614 1.19272 15.1883 1.92547 15.0023C2.33116 14.9739 2.73681 14.9487 3.14564 14.9203C3.262 14.7815 3.3784 14.6459 3.49476 14.5072C4.22122 14.4662 4.94452 14.4536 5.67098 14.4662H5.66784Z" fill="#848484"/>
</svg>
