<svg width="118" height="25" viewBox="0 0 118 25" fill="none" xmlns="http://www.w3.org/2000/svg">
<path d="M30.792 16.8168L30.8046 16.7096H30.748C30.6127 16.7064 30.4995 16.7663 30.4115 16.8357C30.3234 16.9082 30.2511 16.9934 30.1882 17.0659C30.0089 17.2771 29.8234 17.4821 29.6284 17.6808C29.1755 18.1443 28.7007 18.5731 28.2006 18.9704L28.2667 19.0556L28.3201 18.961C27.3767 18.4092 26.5621 17.7218 25.9489 16.8073C25.3168 15.8677 24.9268 14.7703 24.8545 13.6383C24.8419 13.4428 24.8388 13.2442 24.8388 13.0455C24.8388 12.5915 24.8608 12.1311 24.8608 11.6676C24.8608 10.9802 24.8105 10.2865 24.5526 9.6243C24.3482 9.09456 24.0211 8.6405 23.6217 8.25896L23.5462 8.33779L23.5054 8.43869C23.7349 8.53329 23.9551 8.63104 24.1658 8.75717C24.4677 8.94006 24.7444 9.15763 24.996 9.40673C25.5495 9.95539 25.9583 10.6365 26.2319 11.3712C26.3672 11.7338 26.4709 12.1122 26.5464 12.4937C26.5747 12.6325 26.5747 12.8217 26.6722 12.9951C26.7225 13.0802 26.7949 13.1401 26.8704 13.178C26.9458 13.2158 27.0276 13.2379 27.1031 13.2505C27.2194 13.2694 27.3358 13.2789 27.4521 13.2789C27.7698 13.2789 28.0843 13.219 28.3768 13.1527C28.8139 13.055 29.2479 12.9352 29.6756 12.809C29.8486 12.7586 30.0561 12.7113 30.2574 12.6325C30.4555 12.5536 30.6474 12.437 30.7731 12.2383C30.9052 12.0271 30.9429 11.7716 30.9492 11.5194V11.4752C30.9492 11.1851 30.9052 10.8919 30.8801 10.6586C30.8203 10.0815 30.6819 9.51709 30.4838 8.97789C30.0907 7.9058 29.468 6.922 28.7195 6.06748C28.3736 5.67333 27.9868 5.30756 27.5434 5.01746C27.0748 4.70845 26.559 4.52241 26.0275 4.38997C25.5463 4.2733 25.0369 4.19132 24.5306 4.19132C23.9268 4.19132 23.3261 4.30483 22.7757 4.6107C22.2914 4.87872 21.8857 5.28864 21.6687 5.81207C21.5649 6.06433 21.4926 6.36073 21.4926 6.65713C21.4926 6.88101 21.5335 7.10489 21.6341 7.30669L21.8291 7.20894C21.8071 7.1711 21.7851 7.15534 21.7662 7.14588C21.7316 7.12696 21.6971 7.11435 21.6593 7.10173C21.6027 7.08597 21.5398 7.0702 21.4863 7.06074C21.4329 7.04813 21.3826 7.04182 21.3731 7.03552C21.219 6.99452 21.0649 6.95984 20.9108 6.93146C20.3857 6.83371 19.851 6.79587 19.3164 6.79587C18.9453 6.79587 18.5742 6.81479 18.2062 6.84317C17.4892 6.89993 16.7848 7.01344 16.0803 7.05759C15.964 7.06389 15.8445 7.0702 15.725 7.0702C15.1872 7.0702 14.6368 6.98191 14.2091 6.69497C13.8946 6.4837 13.6242 6.23775 13.3726 5.95396L13.2908 6.02649L13.3946 5.99811C13.0518 4.75574 12.2278 3.62059 11.297 2.76607C10.3409 1.88947 9.16476 1.24307 7.90053 0.943511C7.45081 0.836301 6.99793 0.77639 6.54192 0.77639C6.19913 0.77639 5.85633 0.811075 5.5104 0.883599C4.79966 1.03495 4.10779 1.29352 3.47253 1.64983C2.21773 2.3593 1.20509 3.485 0.774247 4.88503C0.639018 5.32647 0.544678 5.82468 0.544678 6.31974C0.544678 6.64136 0.585536 6.96299 0.676738 7.26255C0.727055 7.42336 0.79942 7.57787 0.906345 7.71346C1.01013 7.84904 1.14848 7.96256 1.32145 8.02562C1.44725 8.07292 1.57617 8.09184 1.70197 8.09184C1.95985 8.09184 2.21146 8.01301 2.43475 7.92157L2.39386 7.82067L2.28691 7.84274C2.35924 8.17382 2.44101 8.50491 2.52592 8.82969C2.62341 9.18916 2.7209 9.55178 2.84041 9.90809C2.94733 10.2266 3.03856 10.5608 3.18008 10.8824C3.29644 11.1505 3.46626 11.3743 3.6864 11.5351C3.90654 11.696 4.17386 11.7906 4.47576 11.7969H4.5072C5.02925 11.7969 5.51986 11.5131 5.73371 11.018C5.80919 10.8383 5.85007 10.6491 5.85007 10.4568C5.85007 10.1351 5.73998 9.81349 5.51355 9.5707L5.43492 9.64322L5.51355 9.7189L5.53243 9.69998L5.45381 9.6243L5.4821 9.72836C5.66451 9.67791 5.82175 9.56439 5.95698 9.43196C6.09221 9.29952 6.20229 9.15132 6.28091 9.01889C6.51678 8.62789 6.63943 8.16121 6.63943 7.70715V7.65039C6.63314 7.44228 6.59853 7.23732 6.53878 7.03867L6.43501 7.0702L6.41297 7.17741C7.31555 7.37291 8.03574 7.94364 8.55465 8.6878C9.07355 9.43196 9.39117 10.3558 9.48237 11.2356C9.50438 11.4406 9.51385 11.6455 9.51385 11.8505C9.51385 13.5973 8.74648 15.2812 7.68351 16.6686C7.02623 17.5294 6.24633 18.3019 5.38463 18.9578L5.45066 19.0429L5.51669 18.9578C5.39719 18.8632 5.27768 18.7686 5.16132 18.6709L5.09214 18.756L5.16762 18.6772C4.82797 18.3555 4.48205 18.0402 4.15813 17.7091C3.96315 17.5105 3.77759 17.3055 3.59833 17.0943C3.53543 17.0217 3.46626 16.9366 3.37506 16.8641C3.287 16.7947 3.17377 16.7348 3.03854 16.7348H2.98195C2.87502 16.7506 2.78383 16.7979 2.71464 16.8641C2.61086 16.9618 2.55422 17.0974 2.51963 17.233C2.48503 17.3717 2.47563 17.5168 2.47563 17.6429C2.47563 17.7249 2.47875 17.8006 2.48818 17.8636C2.54479 18.3839 2.93478 18.7907 3.2587 19.1092C3.6235 19.4655 4.01346 19.7997 4.39399 20.134C5.01039 20.6732 5.65821 21.1745 6.3375 21.6317C7.71181 22.5556 9.22449 23.2903 10.8252 23.7381C11.7655 24.003 12.7247 24.1638 13.6871 24.2962C14.6714 24.4286 15.6621 24.5295 16.6558 24.5611C16.8477 24.5674 17.0426 24.5705 17.2376 24.5705C18.8446 24.5705 20.4485 24.3687 22.0053 23.9714C24.5086 23.3313 26.8169 22.2056 28.8327 20.5628C29.0183 20.4114 29.1975 20.2569 29.3768 20.1024C29.7573 19.7682 30.1473 19.4339 30.5121 19.0776C30.836 18.7592 31.226 18.3555 31.2826 17.8321C31.2889 17.769 31.2952 17.6934 31.2952 17.6114C31.2952 17.4411 31.2763 17.2393 31.2071 17.0659C31.1725 16.9776 31.1254 16.8956 31.0562 16.8325C30.987 16.7663 30.8958 16.719 30.7888 16.7064L30.7763 16.8136L30.7637 16.9208C30.8235 16.9271 30.8675 16.9524 30.9084 16.9871C30.9681 17.0407 31.0121 17.1353 31.0405 17.2519C31.0688 17.3654 31.0782 17.4947 31.0782 17.6114C31.0782 17.6871 31.075 17.7533 31.0687 17.81C31.0279 18.2294 30.6851 18.611 30.3611 18.9231C30.0026 19.2731 29.6158 19.6074 29.2353 19.9385C29.0592 20.093 28.8768 20.2443 28.6944 20.3957C26.7037 22.0164 24.4268 23.1295 21.9518 23.7602C20.4139 24.1543 18.8258 24.353 17.2376 24.353C17.0458 24.353 16.854 24.353 16.6653 24.3435C15.6809 24.3151 14.6966 24.2142 13.7185 24.0818C12.7625 23.9525 11.8127 23.7917 10.8882 23.53C9.31572 23.0885 7.82188 22.3633 6.4633 21.452C5.79345 21.0011 5.1519 20.5029 4.54179 19.97C4.16126 19.6357 3.77446 19.3015 3.41594 18.9547C3.09517 18.6456 2.74923 18.2609 2.70835 17.8416C2.70206 17.7848 2.6989 17.7186 2.6989 17.6429C2.6989 17.4884 2.71777 17.3087 2.77123 17.1762C2.79639 17.11 2.831 17.0564 2.86874 17.0186C2.90962 16.9807 2.95049 16.9587 3.01339 16.9524H3.04483C3.11402 16.9524 3.17692 16.9807 3.24611 17.0344C3.31215 17.088 3.37819 17.1636 3.43794 17.2362C3.62034 17.4506 3.80905 17.6587 4.00718 17.8605C4.33739 18.1979 4.68332 18.5132 5.02297 18.8348V18.8411C5.14247 18.9389 5.26198 19.0366 5.38463 19.1312L5.45066 19.1817L5.51669 19.1312C6.39411 18.4628 7.18349 17.6745 7.8565 16.801C8.93833 15.3884 9.73082 13.6636 9.73082 11.8505C9.73082 11.6392 9.72139 11.4279 9.69623 11.2135C9.59874 10.2959 9.2748 9.34367 8.73074 8.56482C8.18668 7.78598 7.42248 7.17426 6.45701 6.96615L6.27462 6.92515L6.33124 7.10489C6.38785 7.28462 6.41927 7.47066 6.42242 7.6567V7.70715C6.42242 8.12337 6.30923 8.55536 6.09538 8.90537C6.02619 9.02204 5.9224 9.16078 5.80604 9.2743C5.68968 9.39096 5.55446 9.48241 5.42552 9.51394L5.39719 9.52025L5.35945 9.56124L5.28712 9.63692L5.3563 9.71259C5.54185 9.91124 5.63305 10.1793 5.63305 10.4536C5.63305 10.6144 5.60162 10.7784 5.53558 10.9266C5.35947 11.3365 4.95063 11.573 4.5072 11.573H4.48206C4.22418 11.5667 4.0009 11.4879 3.81535 11.3554C3.6298 11.2198 3.48199 11.0275 3.38135 10.791C3.24927 10.4883 3.15805 10.1603 3.04798 9.83557C2.93162 9.48871 2.83413 9.12925 2.73664 8.76978C2.64859 8.445 2.56996 8.12022 2.49763 7.79229L2.46934 7.66616L2.34983 7.71661C2.13912 7.8049 1.91267 7.87112 1.69882 7.87112C1.59189 7.87112 1.49127 7.85535 1.39378 7.81751C1.26169 7.76706 1.15791 7.68192 1.07299 7.57472C0.988083 7.46435 0.92519 7.33192 0.881162 7.19002C0.79625 6.91569 0.758507 6.61614 0.758507 6.31343C0.758507 5.84676 0.846587 5.36747 0.978671 4.94178C1.39065 3.60167 2.36242 2.51696 3.57633 1.83272C4.18958 1.48586 4.86256 1.23361 5.55128 1.08856C5.87835 1.01919 6.20856 0.987655 6.53563 0.987655C6.97276 0.987655 7.40677 1.04441 7.8439 1.14847C9.0704 1.43856 10.212 2.06605 11.1429 2.92057C12.0517 3.74987 12.8505 4.8598 13.1776 6.04856L13.1839 6.07379L13.1996 6.09271C13.4606 6.38911 13.7468 6.65082 14.077 6.87155C14.5613 7.19633 15.1526 7.28147 15.7124 7.28462C15.8382 7.28462 15.9608 7.28147 16.0803 7.27201C16.7974 7.22786 17.5049 7.11435 18.2094 7.05759C18.5742 7.02921 18.939 7.01029 19.3038 7.01029C19.8259 7.01029 20.3479 7.04813 20.8574 7.14272C21.0083 7.1711 21.1561 7.20579 21.304 7.24363C21.326 7.24993 21.3574 7.25624 21.392 7.26255C21.4486 7.27516 21.5178 7.28777 21.5713 7.30354C21.5996 7.30984 21.6216 7.3193 21.6341 7.32561H21.6404V7.32876L21.675 7.27516L21.6216 7.30354C21.6342 7.32561 21.6404 7.32876 21.6404 7.32876L21.675 7.27516L21.6216 7.30354L21.8166 7.20579C21.7348 7.04182 21.6971 6.84948 21.6971 6.65398C21.6971 6.39226 21.76 6.12108 21.8543 5.8909C22.0493 5.42107 22.4172 5.04584 22.8638 4.79674C23.3733 4.51295 23.9362 4.40574 24.5117 4.40574C24.996 4.40574 25.4866 4.48141 25.9552 4.59808C26.4741 4.72421 26.9647 4.90394 27.405 5.19404C27.8264 5.47152 28.2006 5.82468 28.5371 6.20622C29.273 7.04182 29.88 8.00355 30.2605 9.04726C30.4524 9.57385 30.5876 10.1194 30.6442 10.6743C30.6694 10.914 30.7102 11.1978 30.7102 11.4689V11.5099C30.7071 11.7433 30.6694 11.9577 30.5687 12.1153C30.4807 12.2572 30.3328 12.3518 30.1567 12.4212C29.9806 12.4906 29.7794 12.5379 29.597 12.5915C29.1724 12.7176 28.7415 12.8343 28.3107 12.932C28.0214 12.9982 27.7226 13.0518 27.4333 13.0518C27.3264 13.0518 27.2226 13.0455 27.1188 13.0266C27.0559 13.0172 26.9961 12.9982 26.949 12.9762C26.9018 12.9509 26.8672 12.9194 26.8389 12.8753C26.776 12.7744 26.7697 12.6072 26.7383 12.4433C26.6596 12.0523 26.5527 11.6644 26.4144 11.2892C26.1313 10.5324 25.7067 9.8198 25.1281 9.24592C24.8639 8.98735 24.5746 8.75717 24.257 8.56482C24.0306 8.42924 23.801 8.32833 23.5682 8.23058L23.0305 8.0067L23.4519 8.40716C23.8324 8.76978 24.1375 9.19862 24.3293 9.69367C24.5715 10.318 24.6218 10.9802 24.6218 11.6581C24.6218 12.1153 24.5998 12.5757 24.5998 13.0361C24.5998 13.2379 24.6029 13.4397 24.6155 13.6415C24.6909 14.8145 25.0967 15.9465 25.7477 16.9177C26.3829 17.8636 27.2226 18.5731 28.1881 19.1375L28.251 19.1754L28.3075 19.1281C28.8139 18.7276 29.2951 18.2925 29.7574 17.8227C29.9555 17.6208 30.1442 17.4127 30.3266 17.1983C30.3895 17.1258 30.4524 17.0501 30.5184 16.9965C30.5844 16.9429 30.6505 16.9145 30.7197 16.9145H30.7511L30.7637 16.8073L30.792 16.8168ZM27.6786 18.92L27.6188 19.0114C27.7666 19.106 27.9176 19.1911 28.0717 19.2668L28.1189 19.1691L28.0528 19.0839C27.6188 19.4182 27.166 19.7303 26.688 20.0204C26.5464 20.1056 26.4018 20.1907 26.254 20.2695L26.3074 20.3641L26.3986 20.3042C26.32 20.1813 26.2351 20.0709 26.1691 19.9668C26.0779 19.8249 25.9867 19.683 25.8986 19.5412L25.8074 19.6011L25.8609 19.6957C26.3483 19.4182 26.8609 19.0556 27.2289 18.6046L27.144 18.5353L27.0779 18.6204C27.2509 18.7592 27.4333 18.8916 27.622 19.0114L27.6817 18.92L27.7415 18.8285C27.5591 18.7119 27.383 18.5857 27.2163 18.4501L27.1314 18.3839L27.0622 18.4691C26.7257 18.8884 26.2319 19.2384 25.7571 19.5065L25.6596 19.5632L25.7193 19.6578C25.8105 19.7997 25.9017 19.9416 25.9898 20.0835C26.0621 20.197 26.1471 20.3105 26.2194 20.4209L26.2728 20.506L26.3609 20.4587C26.5087 20.3768 26.6565 20.2916 26.8043 20.2033C27.2886 19.9101 27.7478 19.5948 28.1881 19.2542L28.3264 19.147L28.1692 19.0713C28.0214 18.9988 27.8799 18.92 27.7383 18.8285L27.6786 18.92ZM9.59247 19.3993L9.68679 19.4529C10.083 18.7686 10.5453 18.1222 11.0674 17.5263C11.5643 16.9587 12.1209 16.4542 12.7656 16.0663C13.3569 15.71 14.0047 15.4514 14.6745 15.2812C15.3413 15.114 16.0268 15.0352 16.7124 15.0352C17.4294 15.0352 18.1496 15.1235 18.8478 15.2875C20.3102 15.6375 21.6562 16.3249 22.6405 17.4695C23.5525 18.529 24.1249 19.8533 24.4362 21.2187L24.5431 21.1934L24.5023 21.0925C23.584 21.4646 22.6499 21.761 21.6813 22.0038L21.6436 22.0133C19.9925 22.4263 18.2943 22.6502 16.5961 22.6534H16.5552C13.8946 22.6534 11.2404 22.0889 8.82825 20.9696L8.78107 21.0673L8.88173 21.1115C9.12702 20.5407 9.3786 19.9795 9.68994 19.4466L9.59558 19.393L9.50126 19.3393C9.18362 19.888 8.92575 20.4556 8.68045 21.0295L8.63956 21.1272L8.73389 21.1714C11.1743 22.3065 13.8601 22.8773 16.5521 22.8773H16.5929C18.3132 22.8741 20.0271 22.6471 21.6939 22.2277L21.7316 22.2182C22.7066 21.9723 23.6531 21.6727 24.5809 21.2975L24.6658 21.2628L24.6438 21.1714C24.3262 19.7776 23.7412 18.4218 22.8009 17.3276C21.7788 16.1388 20.3919 15.4325 18.895 15.0762C18.1811 14.9059 17.4452 14.8176 16.7093 14.8176C16.0049 14.8176 15.3004 14.8996 14.618 15.0731C13.9292 15.2465 13.2625 15.5145 12.6493 15.8834C11.9826 16.2839 11.4102 16.8073 10.9007 17.3844C10.3692 17.9898 9.90065 18.6488 9.49496 19.3457L9.58932 19.3993H9.59247ZM8.62068 21.0042L8.66786 20.9065C8.31878 20.7394 7.97283 20.5628 7.63633 20.3704C7.40047 20.238 7.16776 20.0961 6.93818 19.9542L6.88159 20.0457L6.97592 20.1024C7.00422 20.0551 7.03253 20.0078 7.06083 19.9668C7.21808 19.7367 7.37218 19.5065 7.53256 19.2763C7.54829 19.2542 7.56402 19.2321 7.58289 19.2069L7.49168 19.147L7.43506 19.2384C7.51053 19.2857 7.58604 19.3299 7.66466 19.374C7.90682 19.5096 8.15526 19.6326 8.41314 19.7398C8.61127 19.8218 8.8534 19.9416 9.0987 19.9921L9.12074 19.8849L9.02323 19.8344C8.83454 20.2002 8.66158 20.5817 8.52321 20.9696L8.62382 21.0074L8.72448 21.0452C8.85971 20.6668 9.02637 20.2979 9.21191 19.9385L9.27798 19.8092L9.13644 19.7808C8.92888 19.743 8.69933 19.6294 8.49176 19.5443C8.24332 19.4403 8.00115 19.3236 7.76843 19.1911C7.69295 19.1502 7.62063 19.106 7.54516 19.0587L7.45709 19.0051L7.40047 19.0902C7.38474 19.1123 7.36905 19.1344 7.35332 19.1565C7.19608 19.3866 7.03884 19.6168 6.88159 19.847C6.85015 19.8943 6.81868 19.9416 6.79038 19.9921L6.73376 20.0835L6.82497 20.1403C7.05769 20.2885 7.29041 20.4272 7.53256 20.5628C7.87536 20.7551 8.22442 20.9349 8.57664 21.1051L8.6836 21.1556L8.72448 21.0421L8.62382 21.0042H8.62068ZM15.8507 14.0325L15.7438 14.0388C15.7532 14.1933 15.769 14.351 15.7973 14.5023C15.813 14.5906 15.8256 14.7041 15.8633 14.8176L15.9639 14.7798L15.9545 14.6726C15.5771 14.7041 15.1997 14.7609 14.8318 14.8429L14.8538 14.9501L14.9607 14.9721C14.967 14.9438 14.9702 14.9154 14.9702 14.887C14.9702 14.7956 14.9481 14.7167 14.945 14.6568C14.9293 14.4708 14.9199 14.2816 14.9199 14.0956V14.0829C14.9199 13.9095 14.9261 13.7361 14.9419 13.5627C14.9513 13.4523 14.9827 13.3199 14.9827 13.1748H14.8758L14.8444 13.2789C15.1148 13.3609 15.4073 13.405 15.6966 13.405C15.769 13.405 15.8382 13.405 15.9105 13.3955L15.9011 13.2883L15.7973 13.26C15.7753 13.3451 15.7721 13.4302 15.7627 13.4964C15.7501 13.6163 15.7438 13.7361 15.7438 13.8559C15.7438 13.9158 15.7438 13.9757 15.747 14.0356L15.8539 14.0293L15.9608 14.023C15.9608 13.9663 15.9577 13.9095 15.9577 13.8559C15.9577 13.7424 15.9639 13.632 15.9765 13.5185C15.986 13.4428 15.9891 13.3703 16.0048 13.3167L16.0457 13.1685L15.8916 13.1811C15.8256 13.1874 15.7595 13.1874 15.6935 13.1874C15.4262 13.1874 15.1557 13.1464 14.9041 13.0708L14.7658 13.0298V13.1748C14.7658 13.2852 14.7375 13.4113 14.7249 13.5437C14.7092 13.7235 14.7029 13.9001 14.7029 14.0798V14.0924C14.7029 14.2847 14.7123 14.4802 14.728 14.6726C14.7375 14.7577 14.7532 14.8303 14.7532 14.8839V14.9249L14.7154 15.0888L14.879 15.051C15.2375 14.9721 15.6054 14.9154 15.9734 14.8839L16.1149 14.8712L16.0677 14.7388C16.0394 14.66 16.0268 14.5591 16.0111 14.4582C15.986 14.3131 15.9671 14.1681 15.9608 14.0199L15.8539 14.0262L15.8507 14.0325ZM24.4362 20.1371L24.4457 20.2443C24.518 20.238 24.5809 20.2191 24.6375 20.2033C24.7822 20.1655 24.9237 20.1182 25.0621 20.0677C25.2791 19.9889 25.4898 19.8912 25.6942 19.7871L25.6438 19.6894L25.5527 19.7493C25.6439 19.8912 25.7351 20.0362 25.8263 20.1781C25.8892 20.279 25.9552 20.402 26.0307 20.5218L26.1219 20.465L26.0715 20.3704C25.8766 20.4745 25.6784 20.5723 25.4803 20.67C25.2759 20.7709 25.0652 20.8655 24.8576 20.9569C24.7979 20.9822 24.735 21.0105 24.6752 21.0358L24.7161 21.1367L24.823 21.1115C24.7444 20.7741 24.6501 20.4398 24.54 20.1087L24.4362 20.1434L24.3325 20.1781C24.4394 20.4997 24.5337 20.8308 24.6092 21.1619L24.6375 21.288L24.757 21.2376C24.8199 21.2124 24.8797 21.184 24.9425 21.1588C25.1564 21.0673 25.3671 20.9696 25.5747 20.8687C25.7759 20.7709 25.9741 20.67 26.1722 20.5659L26.276 20.5123L26.2131 20.4146C26.1439 20.3042 26.0779 20.1813 26.0087 20.0709C25.9175 19.929 25.8263 19.784 25.7351 19.6421L25.6816 19.5569L25.5936 19.6042C25.3986 19.7083 25.1941 19.7997 24.9866 19.8754C24.8545 19.9258 24.7193 19.97 24.5809 20.0047C24.5211 20.0204 24.4677 20.0362 24.4268 20.0394L24.2884 20.052L24.3325 20.1844L24.4362 20.1497V20.1371ZM21.9361 5.94766L22.0367 5.98865C22.2034 5.56927 22.5305 5.22873 22.9204 4.99854C23.4142 4.70529 23.9708 4.59178 24.54 4.59178C24.9866 4.59178 25.4394 4.66115 25.8734 4.7652C26.3703 4.88187 26.8452 5.04584 27.2698 5.31386C27.6754 5.56927 28.0339 5.90036 28.3579 6.25983C29.0026 6.97245 29.5435 7.79544 29.9303 8.67834C30.336 9.60854 30.5498 10.6176 30.5498 11.6329C30.5498 11.6707 30.5498 11.7117 30.5498 11.7496H30.6568L30.5498 11.7338C30.531 11.8505 30.4964 11.9577 30.4366 12.0428C30.3989 12.0996 30.3454 12.1437 30.2857 12.1784L30.3392 12.273L30.4461 12.2856C30.4492 12.2446 30.4524 12.2005 30.4524 12.1595C30.4524 11.7811 30.2888 11.3933 30.1473 11.1032C30.1253 11.0527 30.0655 11.0243 30.0215 11.0243C29.9838 11.0243 29.9523 11.0369 29.924 11.059C29.8988 11.0811 29.8737 11.1189 29.8737 11.1662L29.88 11.2072C29.9429 11.4122 29.9901 11.6171 30.0278 11.8284C30.0561 11.9892 30.0656 12.1753 30.1127 12.3581L30.2165 12.3298L30.1756 12.2289C30.1221 12.2509 30.0624 12.2698 30.0058 12.2888C29.9429 12.3077 29.8768 12.3298 29.8108 12.3487L29.8422 12.4527L29.9492 12.4433C29.9335 12.2982 29.8737 12.1216 29.8108 11.9608C29.751 11.8 29.6882 11.6644 29.6724 11.6297C29.6599 11.6045 29.641 11.5824 29.6158 11.5667C29.5907 11.5509 29.5655 11.5478 29.5435 11.5478C29.5058 11.5478 29.4712 11.5604 29.4429 11.5856C29.4146 11.6077 29.3894 11.6487 29.3894 11.696L29.3957 11.7433C29.446 11.8946 29.4838 12.0523 29.5215 12.2162C29.5467 12.3266 29.5907 12.4307 29.6127 12.5221L29.7165 12.4937L29.685 12.3897C29.5844 12.4212 29.4837 12.4496 29.38 12.478C29.2038 12.5284 29.0277 12.5789 28.8516 12.623L28.8799 12.7271L28.9868 12.7397C28.9868 12.7176 28.99 12.6955 28.99 12.6735C28.99 12.5631 28.968 12.459 28.9554 12.3834C28.924 12.1973 28.8768 11.9987 28.8045 11.8189C28.7919 11.7843 28.7636 11.7559 28.7384 11.7433C28.7101 11.7275 28.685 11.7212 28.6535 11.7212C28.6221 11.7212 28.5906 11.7275 28.5591 11.7559C28.5277 11.7811 28.5057 11.8284 28.5057 11.8662V11.8852C28.5277 12.0743 28.5623 12.2572 28.5812 12.437C28.5938 12.5316 28.5906 12.6703 28.6346 12.8027L28.7384 12.7681L28.7101 12.664C28.534 12.7081 28.361 12.7523 28.1849 12.7901C28.0874 12.8122 27.9868 12.8311 27.8893 12.8437L27.905 12.9509L28.0119 12.9352C27.9931 12.7964 27.9428 12.6608 27.8956 12.5536C27.8861 12.5253 27.8641 12.5032 27.839 12.4874C27.8138 12.4717 27.7886 12.4685 27.7666 12.4685C27.732 12.4685 27.7006 12.4811 27.6723 12.5032C27.644 12.5253 27.6188 12.5662 27.6188 12.6135V12.6199C27.6251 12.7334 27.644 12.8721 27.6817 12.9982L27.7855 12.9636L27.7729 12.8563C27.71 12.8627 27.6503 12.869 27.5874 12.8721C27.5182 12.8753 27.4333 12.8816 27.3484 12.8816C27.276 12.8816 27.2069 12.8753 27.1503 12.8627C27.0936 12.85 27.0496 12.828 27.0276 12.8027C26.9961 12.7744 26.971 12.705 26.9553 12.6167C26.9395 12.5284 26.9333 12.4307 26.9144 12.3424C26.8766 12.1626 26.8326 11.9798 26.7823 11.8032C26.6817 11.4469 26.5559 11.1 26.3986 10.7658C26.103 10.1288 25.7005 9.53917 25.1879 9.05357C24.6815 8.57428 23.9991 8.09184 23.2695 7.97833L23.2538 8.08554L23.3198 8.0004C23.1846 7.89319 23.0462 7.79544 22.9015 7.704L22.8449 7.79544L22.8984 7.89004C23.043 7.80805 23.1657 7.74184 23.3198 7.71661C23.4047 7.70084 23.4928 7.69454 23.5808 7.69454C23.7003 7.69454 23.8261 7.70715 23.9456 7.72922C24.3419 7.79859 24.7318 7.9531 25.0872 8.14545C25.8011 8.53329 26.4332 9.13555 26.8421 9.83557C26.8672 9.87971 26.9207 9.91124 26.9679 9.90809C27.0087 9.90809 27.0433 9.89233 27.0685 9.8671C27.0936 9.84187 27.1157 9.80404 27.1157 9.75989C27.1157 9.73466 27.1094 9.70944 27.0968 9.69052C26.6533 8.84861 25.9803 8.17698 25.1249 7.74814C24.7287 7.54949 24.2916 7.39183 23.8418 7.33822C23.7569 7.32876 23.6626 7.32246 23.5682 7.32246C23.2475 7.32246 22.8764 7.38867 22.6374 7.64408L22.716 7.71661L22.7726 7.62201C22.694 7.57471 22.6153 7.53057 22.5367 7.48958L22.4864 7.58733L22.587 7.63147C22.6877 7.40129 22.8575 7.22471 23.0714 7.10173C23.2821 6.98191 23.5337 6.91569 23.7853 6.91569C23.9236 6.91569 24.062 6.93461 24.1972 6.97245L24.235 6.97876C24.2821 6.97876 24.3199 6.95669 24.3419 6.92831C24.3639 6.90308 24.3765 6.87155 24.3796 6.83056C24.3796 6.80848 24.3733 6.78326 24.3608 6.75803C24.345 6.73596 24.323 6.71389 24.301 6.70443C24.0903 6.60983 23.8733 6.55938 23.6532 6.55938C23.455 6.55938 23.2538 6.60037 23.0588 6.68236C22.9015 6.74857 22.7223 6.85263 22.5745 6.99137C22.4266 7.12696 22.3009 7.30039 22.2757 7.51165L22.3826 7.52426L22.4298 7.42651C22.3732 7.39813 22.3134 7.36976 22.2537 7.34138L22.2097 7.43913H22.3166C22.3166 7.3666 22.3103 7.30038 22.3103 7.23417C22.3103 7.08597 22.3229 6.95038 22.3701 6.81164C22.4424 6.59407 22.5745 6.39541 22.7348 6.22514C23.0493 5.8909 23.4707 5.65756 23.9142 5.53143C24.1909 5.4526 24.474 5.41476 24.7539 5.41476C25.3703 5.41476 25.9835 5.5945 26.5276 5.90982C26.9773 6.17154 27.3861 6.51524 27.7478 6.89677C27.7761 6.92515 27.817 6.94723 27.861 6.94723C27.9113 6.94723 27.949 6.92515 27.9774 6.89362C28.0025 6.86524 28.0214 6.8274 28.0214 6.78326C28.0214 6.74857 28.0088 6.71073 27.9868 6.68236C27.3452 5.85621 26.4018 5.24134 25.3545 5.07106C25.1627 5.03953 24.9708 5.02377 24.7759 5.02377C23.9267 5.02377 23.0588 5.31702 22.4612 5.95396C22.1908 6.24406 21.9298 6.68866 21.9266 7.14272C21.9266 7.23101 21.9361 7.31615 21.9612 7.40444L22.065 7.37606L22.1059 7.27516C22.0461 7.24993 21.9895 7.22786 21.9298 7.20579L21.892 7.30669L21.999 7.28147C21.9486 7.05444 21.914 6.84002 21.914 6.62875C21.914 6.41118 21.9486 6.19991 22.0367 5.98234L21.9361 5.94135L21.8354 5.90036C21.7379 6.14631 21.6971 6.38911 21.6971 6.62875C21.6971 6.86209 21.7348 7.09227 21.7882 7.32876L21.8008 7.38552L21.8543 7.40759C21.9109 7.42967 21.9675 7.45174 22.0241 7.47696L22.2254 7.55895L22.1688 7.34768C22.1499 7.28147 22.1436 7.21525 22.1436 7.14272C22.1436 6.7801 22.3763 6.36073 22.6185 6.10217C23.1657 5.51882 23.9739 5.24134 24.7759 5.24134C24.9583 5.24134 25.1438 5.2571 25.3231 5.28548C26.3074 5.44314 27.2069 6.02649 27.817 6.81479L27.8578 6.78326H27.8044L27.8138 6.81479L27.8547 6.78326H27.8012H27.8516L27.8138 6.74857L27.8012 6.78326H27.8516L27.8138 6.74857L27.8578 6.78956V6.72965C27.8358 6.72965 27.8201 6.73911 27.8138 6.74857L27.8578 6.78956L27.9019 6.74857C27.9019 6.74857 27.8767 6.72965 27.8578 6.73281V6.79272L27.9019 6.75173C27.5276 6.36073 27.1062 6.00126 26.6345 5.72693C26.0621 5.39269 25.4111 5.2035 24.7539 5.2035C24.452 5.2035 24.1501 5.24449 23.8544 5.32963C23.3796 5.46522 22.9235 5.71747 22.5776 6.08325C22.3983 6.27244 22.2506 6.49632 22.1656 6.74857C22.1059 6.91885 22.0933 7.08281 22.0933 7.24363C22.0933 7.313 22.0933 7.38237 22.0996 7.45174V7.51796L22.1625 7.54634C22.2191 7.57156 22.2757 7.59994 22.3323 7.62832L22.4675 7.69454L22.4864 7.54318C22.5021 7.40759 22.5902 7.27201 22.716 7.15849C22.8418 7.04182 23.0022 6.95038 23.1374 6.89047C23.3072 6.81794 23.477 6.78326 23.6469 6.78326C23.8324 6.78326 24.0211 6.82425 24.2067 6.90939L24.2381 6.83686L24.1721 6.87786L24.2067 6.90939L24.2381 6.83686L24.1721 6.87786L24.2412 6.83686H24.1595L24.1721 6.87786L24.2412 6.83686H24.1595H24.2287L24.1752 6.78956C24.1752 6.78956 24.1595 6.81479 24.1595 6.83686H24.2287L24.1752 6.78956L24.2318 6.84002V6.76434C24.2035 6.76434 24.1847 6.77695 24.1752 6.78956L24.2318 6.84002V6.76434V6.84317L24.2538 6.76749H24.2318V6.84317L24.2538 6.76749C24.0997 6.72335 23.9425 6.70128 23.7821 6.70128C23.4928 6.70128 23.2066 6.7738 22.9613 6.91569C22.716 7.05759 22.5084 7.26885 22.3858 7.54634L22.3449 7.64093L22.4361 7.68823C22.5116 7.72922 22.587 7.77021 22.6625 7.81436L22.738 7.8585L22.7978 7.79544C22.9644 7.61255 23.2758 7.54318 23.5682 7.54318C23.6563 7.54318 23.7381 7.54949 23.8167 7.55895C24.235 7.60625 24.6469 7.75445 25.0275 7.94679C25.842 8.35356 26.4804 8.99051 26.9049 9.79458L26.9647 9.76304H26.8986L26.9049 9.79458L26.9647 9.76304H26.8986H26.9679L26.9207 9.71259C26.9207 9.71259 26.8986 9.74097 26.8986 9.76304H26.9679L26.9207 9.71259L26.9647 9.76304V9.69683C26.9458 9.69683 26.9301 9.70313 26.9207 9.71259L26.9647 9.76304V9.69683V9.76935L27.0276 9.73151C27.0182 9.71575 26.9867 9.69367 26.9647 9.69683V9.76935L27.0276 9.73151C26.5968 8.99366 25.9363 8.36617 25.1879 7.95941C24.8136 7.7576 24.4048 7.59679 23.9802 7.52111C23.8482 7.49904 23.7129 7.48327 23.5777 7.48327C23.4771 7.48327 23.3795 7.48958 23.2789 7.5085C23.0839 7.54318 22.933 7.62517 22.7883 7.70715L22.6311 7.79544L22.782 7.89319C22.9204 7.98148 23.0525 8.07608 23.1814 8.17698L23.2034 8.1959H23.2318C23.8859 8.29995 24.5463 8.75717 25.0369 9.21754C25.5275 9.68106 25.9175 10.2486 26.2005 10.8635C26.3514 11.1883 26.4741 11.5257 26.5716 11.8694C26.6219 12.0428 26.6628 12.2194 26.7005 12.396C26.7131 12.4622 26.7225 12.5631 26.7414 12.6672C26.7603 12.7681 26.7886 12.8816 26.8735 12.9667C26.9395 13.0329 27.0213 13.0645 27.1031 13.0834C27.1848 13.1023 27.2698 13.1086 27.3515 13.1086C27.4459 13.1086 27.5371 13.1023 27.6031 13.096C27.6691 13.0928 27.7383 13.0865 27.8012 13.0771L27.9333 13.0613L27.8924 12.9352C27.861 12.8343 27.8452 12.7144 27.839 12.6104H27.7635L27.839 12.6135H27.7635L27.8107 12.6735C27.8107 12.6735 27.839 12.6419 27.839 12.6135H27.7635L27.8107 12.6735L27.7698 12.623V12.6892L27.8107 12.6735L27.7698 12.623V12.6892V12.6135L27.732 12.6798L27.7698 12.6892V12.6135L27.732 12.6798L27.7729 12.6104L27.7006 12.6419L27.732 12.6798L27.7729 12.6104L27.7006 12.6419C27.7446 12.7428 27.7855 12.8627 27.8012 12.9699L27.817 13.0802L27.9239 13.0645C28.0277 13.0487 28.1314 13.0298 28.2321 13.0077C28.4113 12.9699 28.5906 12.9257 28.7667 12.8816L28.8799 12.8532L28.8422 12.7428C28.8139 12.664 28.8107 12.5379 28.7982 12.4244C28.7761 12.2352 28.7447 12.0523 28.7227 11.8694L28.6661 11.8757H28.7227V11.8694L28.6661 11.8757H28.7227H28.6472L28.6944 11.9325L28.7227 11.8757H28.6472L28.6944 11.9325L28.6535 11.882V11.9482L28.6944 11.9325L28.6535 11.882V11.9482V11.8978L28.6283 11.9419L28.6535 11.9482V11.8978L28.6283 11.9419L28.6598 11.8883L28.6 11.9104L28.6252 11.9419L28.6567 11.8883L28.5969 11.9104C28.6598 12.0712 28.7038 12.2572 28.7353 12.4338C28.751 12.5158 28.7699 12.6104 28.7667 12.6861V12.7302L28.7478 12.8879L28.8988 12.8469C29.078 12.7996 29.2542 12.7491 29.4303 12.6987C29.5309 12.6703 29.6347 12.6388 29.7353 12.6104L29.836 12.5789L29.8076 12.478C29.7793 12.3708 29.7385 12.2667 29.7165 12.1784C29.6787 12.0176 29.6378 11.8536 29.5844 11.6865L29.5152 11.7086H29.5875V11.6865L29.5152 11.7086L29.5624 11.7653C29.5624 11.7653 29.5875 11.737 29.5875 11.7086H29.5152L29.5624 11.7653L29.5215 11.718V11.7811L29.5624 11.7685L29.5215 11.7212V11.7843V11.7117L29.4838 11.7748L29.5215 11.7843V11.7117L29.4554 11.7433L29.4838 11.7748L29.5215 11.7117L29.4554 11.7433C29.4711 11.7748 29.5309 11.9072 29.5875 12.0617C29.6473 12.2131 29.7039 12.3897 29.7102 12.4874L29.7227 12.6199L29.8485 12.582C29.9146 12.5631 29.9806 12.541 30.0467 12.5221C30.1064 12.5032 30.1693 12.4811 30.2322 12.4559L30.3203 12.4212L30.2951 12.3298C30.2542 12.1753 30.2448 11.9955 30.2133 11.8189C30.1756 11.5982 30.1253 11.3869 30.0593 11.1725L29.9869 11.1946H30.0624V11.1725L29.9869 11.1946L30.0372 11.2514C30.0372 11.2514 30.0624 11.2198 30.0624 11.1946H29.9869L30.0372 11.2514L29.9932 11.1978V11.2671L30.0372 11.2514L29.9932 11.1978V11.2671V11.1883L29.924 11.223C29.9334 11.2482 29.9712 11.2671 29.9932 11.2671V11.1883L29.924 11.223C30.0624 11.5005 30.2102 11.8694 30.2071 12.1816C30.2071 12.2162 30.207 12.2509 30.2008 12.2856L30.1756 12.5L30.3611 12.3897C30.4429 12.3424 30.5216 12.2762 30.5813 12.191C30.6631 12.0712 30.7071 11.9325 30.7291 11.7937V11.7843V11.7748C30.7291 11.7338 30.7291 11.6928 30.7291 11.6518C30.7291 10.6081 30.509 9.56754 30.0907 8.60897C29.6944 7.704 29.1441 6.86209 28.4805 6.13054C28.1472 5.76162 27.7761 5.41792 27.3484 5.14674C26.8955 4.8598 26.3955 4.68953 25.886 4.5697C25.4394 4.46249 24.9708 4.39312 24.5023 4.39312C23.9047 4.39312 23.3072 4.50979 22.7726 4.82827C22.348 5.08052 21.9864 5.45576 21.7977 5.92558L21.8983 5.96658L21.9361 5.94766ZM21.5083 7.37606L21.4769 7.48012C22.5336 7.8049 23.5337 8.46707 24.0431 9.45403C24.3953 10.1351 24.4645 10.8919 24.4645 11.6707C24.4645 12.128 24.4425 12.5883 24.4425 13.0455C24.4425 13.1464 24.4425 13.2473 24.4457 13.3482C24.5023 15.3348 25.4268 17.233 26.9364 18.5006L27.0056 18.4186L26.9301 18.3398C26.7414 18.5195 26.5653 18.7056 26.3703 18.8632C26.1565 19.0366 25.9269 19.1943 25.6847 19.333L25.6533 19.352L25.7068 19.4466L25.7979 19.3866L25.7728 19.3488C25.4898 18.9074 25.2067 18.4659 24.9268 18.0245C24.6501 17.5925 24.3733 17.1605 24.0934 16.7285C23.9551 16.5141 23.8135 16.2965 23.672 16.0821C23.5431 15.8897 23.4141 15.6375 23.216 15.4577C23.1877 15.4325 23.15 15.4199 23.1185 15.4199C23.0839 15.4199 23.0493 15.4325 23.021 15.4546C22.9927 15.4767 22.9707 15.5177 22.9707 15.5618L22.977 15.6059C23.0588 15.8614 23.2286 16.0821 23.3513 16.2807C23.4802 16.492 23.6123 16.697 23.7412 16.9051C24.0211 17.3497 24.301 17.7911 24.584 18.2326C24.8608 18.6646 25.1344 19.0965 25.4111 19.5285C25.4237 19.5506 25.4363 19.5695 25.4489 19.5885L25.5401 19.5285L25.4898 19.4308C25.3105 19.5254 25.1249 19.6074 24.9331 19.683C24.8167 19.7272 24.7004 19.7682 24.5809 19.806C24.518 19.8281 24.4268 19.8407 24.3356 19.8849L24.3828 19.9826L24.4866 19.9479C24.1941 19.1123 23.7915 18.3146 23.2601 17.6051C22.8323 17.0343 22.326 16.5235 21.7442 16.1073C21.0775 15.6343 20.3227 15.2969 19.5459 15.0604C18.6402 14.783 17.6842 14.6379 16.7345 14.6379C16.5363 14.6379 16.3413 14.6442 16.1432 14.6568L16.1495 14.764L16.2564 14.7483C16.2407 14.6411 16.2061 14.5496 16.1904 14.4708C16.1589 14.3131 16.1401 14.1523 16.1338 13.9915C16.1338 13.9379 16.1306 13.8874 16.1306 13.8338C16.1306 13.7361 16.1338 13.6383 16.1432 13.5437C16.1495 13.4744 16.1684 13.3892 16.1684 13.2946V13.2631L16.0583 13.2694L16.074 13.3766C16.3759 13.3325 16.6684 13.2316 16.9137 13.0582C17.1621 12.8879 17.3666 12.6451 17.4924 12.3266C17.6905 11.8284 17.6936 11.2987 17.7943 10.8194C17.8446 10.5829 17.9169 10.3527 18.049 10.1667C18.2125 9.93962 18.4704 9.81349 18.7503 9.70629C19.068 9.58646 19.3919 9.4761 19.6938 9.2743C19.9768 9.0851 20.2284 8.84546 20.4297 8.56798C20.6247 8.29995 20.7819 7.96571 20.7819 7.6094V7.58733C20.7787 7.42967 20.7473 7.26255 20.6781 7.11435L20.5806 7.16164L20.5649 7.26885C20.8731 7.313 21.1781 7.37922 21.4769 7.47066L21.5083 7.3666L21.5398 7.26255C21.2285 7.16795 20.914 7.09858 20.5964 7.05128L20.3951 7.0229L20.4831 7.20579C20.5366 7.3193 20.5649 7.45489 20.568 7.59048V7.6094C20.568 7.8995 20.4359 8.19274 20.2567 8.43869C20.0711 8.6941 19.8416 8.91798 19.5774 9.09141C19.307 9.2743 18.9987 9.38151 18.678 9.50133C18.3886 9.61169 18.0836 9.75358 17.8792 10.0374C17.7188 10.2613 17.6402 10.523 17.5867 10.7721C17.4798 11.2797 17.4766 11.7937 17.2942 12.2415C17.1842 12.519 17.008 12.7271 16.7942 12.8753C16.5803 13.0235 16.3193 13.1149 16.0457 13.1559L15.9482 13.1717L15.9545 13.2694V13.2883C15.9545 13.3514 15.9388 13.4302 15.9293 13.5217C15.9231 13.6226 15.9168 13.7266 15.9168 13.8307C15.9168 13.8874 15.9168 13.941 15.9199 13.9978C15.9262 14.1681 15.9482 14.3384 15.9797 14.5086C16.0017 14.6127 16.0331 14.6978 16.0426 14.7735L16.0551 14.8744L16.1558 14.8681C16.3476 14.8555 16.5395 14.8492 16.7313 14.8492C17.659 14.8492 18.5931 14.9911 19.4799 15.2622C20.2378 15.4956 20.9706 15.8204 21.6153 16.2776C22.1782 16.678 22.6688 17.1731 23.0839 17.7281C23.5997 18.4186 23.9928 19.1975 24.279 20.0141L24.3199 20.1308L24.4299 20.0772C24.4834 20.052 24.562 20.0362 24.6438 20.011C24.7665 19.9731 24.8891 19.929 25.0086 19.8817C25.2067 19.806 25.3986 19.7177 25.5873 19.62L25.6942 19.5664L25.6313 19.4655C25.6187 19.4434 25.6061 19.4245 25.5936 19.4056C25.32 18.9736 25.0432 18.5416 24.7665 18.1096C24.4834 17.6681 24.2035 17.2267 23.9268 16.7821C23.7947 16.574 23.6657 16.369 23.5368 16.1609C23.4079 15.9496 23.2475 15.7384 23.1846 15.5334L23.1154 15.5555H23.1877V15.5334L23.1154 15.5555H23.1877H23.1123L23.1625 15.6154C23.1625 15.6154 23.1909 15.5807 23.1909 15.5555H23.1154L23.1657 15.6154L23.1217 15.5618V15.6312L23.1657 15.6154L23.1217 15.5618V15.6312V15.5586L23.0745 15.6123L23.1217 15.6312V15.5586L23.0745 15.6123C23.2318 15.7541 23.3607 15.9906 23.4959 16.1987C23.6374 16.41 23.7758 16.6276 23.9142 16.842C24.1941 17.2708 24.4708 17.7028 24.7476 18.1348C25.0306 18.5763 25.3137 19.0177 25.5936 19.4592L25.6187 19.497L25.6722 19.5821L25.7948 19.5159C26.0432 19.374 26.2854 19.2101 26.5087 19.0272C26.7162 18.8569 26.8955 18.6709 27.0811 18.4943L27.1691 18.4092L27.0748 18.3303C25.6124 17.1006 24.7161 15.2591 24.6626 13.3388C24.6626 13.241 24.6595 13.1401 24.6595 13.0424C24.6595 12.5946 24.6815 12.1311 24.6815 11.6676C24.6815 10.8793 24.6155 10.0815 24.2381 9.34997C23.6909 8.29365 22.6374 7.60625 21.543 7.26885L21.5115 7.37291L21.5083 7.37606ZM15.335 7.34453L15.3256 7.45174C15.4639 7.46435 15.6023 7.47066 15.7407 7.47066C16.2973 7.47066 16.8445 7.38552 17.3791 7.32561C18.0301 7.25309 18.6905 7.19318 19.3478 7.19318C19.6749 7.19318 19.9988 7.20894 20.3196 7.24363L20.3322 7.13642L20.2378 7.19002C20.3165 7.32561 20.3636 7.47066 20.3636 7.62201C20.3636 7.65354 20.3636 7.68823 20.3573 7.72292C20.3196 7.99724 20.1624 8.26211 19.9705 8.48284C19.7976 8.68149 19.5963 8.85492 19.3699 8.99051C19.1371 9.1324 18.8729 9.21754 18.6025 9.32159C18.1402 9.49502 17.7408 9.76304 17.5364 10.2549C17.354 10.6869 17.332 11.1441 17.2628 11.5698C17.225 11.8 17.1747 12.0271 17.0867 12.2289C16.9986 12.4307 16.8728 12.6009 16.6873 12.7271C16.4042 12.9163 16.0488 12.9982 15.6903 12.9982C15.5048 12.9982 15.3161 12.9762 15.14 12.9352C14.6399 12.8217 14.1808 12.5631 13.8349 12.1847C13.4607 11.7716 13.2436 11.2324 13.1398 10.6775C13.0832 10.3811 13.0612 10.0784 13.0612 9.7725C13.0612 9.35313 13.1021 8.9306 13.1556 8.51437C13.1933 8.22428 13.2499 7.87427 13.3694 7.57787C13.4921 7.27831 13.6682 7.03867 13.9418 6.93777L13.9041 6.83686L13.8411 6.92515C14.2814 7.23417 14.7846 7.41075 15.3256 7.45805L15.335 7.35084L15.3444 7.24363C14.8349 7.19948 14.3758 7.03551 13.9638 6.74857L13.9167 6.71704L13.8632 6.73596C13.511 6.8684 13.2971 7.1711 13.165 7.49904C13.0329 7.83012 12.9732 8.1959 12.9355 8.4923C12.882 8.91483 12.838 9.34682 12.838 9.77881C12.838 10.0941 12.86 10.4126 12.9197 10.7248C13.0267 11.3081 13.2594 11.8883 13.6682 12.3392C14.0424 12.7523 14.5456 13.0329 15.0834 13.1527C15.2752 13.1969 15.4765 13.219 15.6809 13.219C16.0709 13.219 16.4703 13.1307 16.7973 12.9099C17.0238 12.7586 17.1747 12.5473 17.2754 12.3203C17.376 12.0933 17.4295 11.8473 17.4672 11.6077C17.5364 11.1694 17.5647 10.7279 17.7282 10.3432C17.9075 9.92386 18.2377 9.69683 18.6717 9.52971C18.9359 9.4288 19.2126 9.34051 19.4736 9.18285C19.7189 9.03465 19.9422 8.84861 20.1278 8.63104C20.3353 8.3914 20.5208 8.09815 20.5649 7.7576C20.5712 7.71346 20.5743 7.67246 20.5743 7.62832C20.5743 7.42967 20.5146 7.24993 20.4202 7.08597L20.3919 7.03867L20.3385 7.03236C20.0082 6.99452 19.6749 6.98191 19.3447 6.98191C18.6748 6.98191 18.005 7.04498 17.3508 7.11435C16.8099 7.17426 16.269 7.25624 15.7344 7.25624C15.6023 7.25624 15.4702 7.24993 15.3413 7.24047L15.3319 7.34768L15.335 7.34453ZM1.40007 7.73238L1.44725 7.63463C1.31831 7.57471 1.2271 7.4675 1.15791 7.33507L1.06044 7.38552L1.07614 7.49273C1.29628 7.45805 1.51014 7.34453 1.67053 7.24678C1.71141 7.22471 1.746 7.1711 1.74285 7.12065C1.74285 7.03552 1.67681 6.97245 1.58876 6.9693H1.56676C1.43468 6.99137 1.30574 7.0229 1.17995 7.06705C1.12963 7.08597 1.07617 7.10489 1.0227 7.12696L1.0667 7.22786L1.02581 7.12696L1.00067 7.13642L0.95034 7.15534L0.99752 7.25309L1.09818 7.21525C1.06673 7.13011 1.04468 7.03867 1.02581 6.95038C0.98493 6.73911 0.966079 6.51839 0.966079 6.29766C0.966079 5.85937 1.04156 5.41161 1.1705 4.99854C1.19566 4.9134 1.22397 4.83142 1.25542 4.74628L1.15476 4.70845L1.08559 4.79358C1.16421 4.85665 1.25539 4.89448 1.30256 4.91656C1.43465 4.97962 1.57932 5.03323 1.7397 5.03323H1.79318C1.83406 5.03323 1.87179 5.01115 1.8938 4.98277C1.91896 4.9544 1.93154 4.91971 1.93154 4.88187C1.93154 4.83457 1.90324 4.78097 1.86236 4.75574C1.72084 4.66745 1.56989 4.617 1.43781 4.55709C1.40007 4.54132 1.33089 4.49087 1.24283 4.46249L1.21139 4.56655L1.31201 4.60754C1.34346 4.52871 1.38122 4.44988 1.41581 4.37105L1.3183 4.32375L1.24598 4.40574C1.40637 4.54763 1.61709 4.67376 1.84981 4.68322H1.85606C1.90324 4.68322 1.94101 4.66115 1.96616 4.63277C1.99132 4.60439 2.0039 4.57286 2.0039 4.53187C2.0039 4.49403 1.98817 4.44988 1.95357 4.4215C1.85608 4.33952 1.75228 4.29222 1.66108 4.24177C1.58561 4.20078 1.50699 4.15663 1.42837 4.11249L1.37808 4.20708L1.47555 4.25754C1.51014 4.18817 1.54787 4.12195 1.58561 4.05258L1.49129 3.99897L1.41581 4.0778C1.49443 4.15348 1.59193 4.20078 1.69256 4.23231C1.7932 4.26384 1.89066 4.27961 1.97872 4.28276H1.98501C2.02904 4.28276 2.06991 4.26069 2.09193 4.23231C2.11394 4.20393 2.12652 4.1724 2.12652 4.13771C2.12652 4.09357 2.10136 4.03681 2.05104 4.01159C1.95355 3.95798 1.85294 3.91384 1.75544 3.86969C1.70827 3.85077 1.6548 3.81924 1.58876 3.79401L1.55102 3.89492L1.64538 3.95167C1.92842 3.48185 2.28693 3.05932 2.70205 2.69354L2.62973 2.61156L2.52907 2.65255C2.5731 2.76607 2.64858 2.86066 2.69576 2.93003C2.79325 3.07508 2.91273 3.22013 3.06998 3.32734C3.09199 3.3431 3.1203 3.35256 3.1486 3.35256C3.19577 3.35256 3.23354 3.32734 3.25555 3.30211C3.27757 3.27373 3.29014 3.2422 3.29329 3.20436C3.29329 3.18229 3.29013 3.16022 3.27755 3.1413C3.19893 2.98049 3.092 2.84174 3.0008 2.70616C2.95677 2.64624 2.90962 2.53588 2.831 2.44444L2.74923 2.51696L2.81841 2.6021C2.87187 2.55796 2.92849 2.51381 2.9851 2.46967L2.91903 2.38453L2.81526 2.41291C2.84357 2.51696 2.89389 2.6021 2.93477 2.67462C2.99767 2.78814 3.0763 2.90165 3.18323 2.9931C3.21467 3.01832 3.24925 3.02778 3.2807 3.02778C3.31529 3.02778 3.34675 3.01832 3.37506 2.99625C3.40336 2.97418 3.4285 2.93319 3.4285 2.88589L3.41909 2.83544C3.37192 2.70931 3.30585 2.59579 3.23981 2.49174C3.19264 2.42237 3.1486 2.33092 3.06998 2.25209L2.9945 2.32777L3.06057 2.41606C3.23983 2.28363 3.42849 2.1575 3.62033 2.04713C3.89708 1.88632 4.18644 1.74758 4.48206 1.62776L4.44117 1.52685L4.33422 1.53316C4.34051 1.64352 4.37827 1.74127 4.40029 1.81064C4.45375 1.97146 4.54496 2.1102 4.6393 2.23317C4.66446 2.26786 4.71162 2.28678 4.74622 2.28678C4.7871 2.28678 4.81853 2.27101 4.84369 2.24894C4.86885 2.22687 4.89087 2.19218 4.89087 2.14173L4.88142 2.09443C4.83111 1.95254 4.78709 1.80434 4.73992 1.65298C4.72105 1.59938 4.71163 1.52055 4.67704 1.43541L4.57638 1.4764L4.61412 1.57731C4.89087 1.47325 5.17708 1.38811 5.4664 1.31874C5.83435 1.23045 6.19916 1.18946 6.56711 1.18946C6.95078 1.18946 7.33443 1.23361 7.7181 1.3219L7.74014 1.21469L7.71495 1.3219L7.76528 1.33451L7.79043 1.2273L7.68666 1.19892C7.6615 1.29036 7.66151 1.3755 7.65522 1.43856C7.64893 1.51739 7.64263 1.59938 7.64263 1.68136C7.64263 1.75389 7.64579 1.82956 7.65837 1.90524C7.66466 1.93993 7.6835 1.97776 7.71495 1.99984C7.74326 2.02191 7.77786 2.02822 7.80617 2.02822C7.83762 2.02822 7.86593 2.01876 7.89423 2.00299C7.91939 1.98722 7.94453 1.95884 7.95711 1.92101C8.00429 1.77281 8.02001 1.6246 8.02944 1.48586C8.03258 1.43541 8.04203 1.36919 8.04203 1.29982V1.25568L7.93197 1.26198L7.90679 1.36604C7.94767 1.3755 7.99171 1.38811 8.03574 1.40073L8.06403 1.29667L7.96026 1.26829C7.92881 1.38811 7.91623 1.51739 7.91623 1.64352C7.91623 1.74758 7.92569 1.84848 7.93826 1.93993C7.94141 1.97776 7.96655 2.0156 7.99485 2.03452C8.02315 2.05344 8.05461 2.0629 8.08292 2.0629C8.11122 2.0629 8.13953 2.05659 8.16783 2.03767C8.19614 2.02191 8.22128 1.98722 8.23072 1.94939C8.25902 1.82326 8.2779 1.67821 8.2779 1.53316C8.2779 1.45433 8.27159 1.37865 8.25901 1.30298L8.15209 1.3219L8.1238 1.42595C8.62069 1.56785 9.09872 1.76335 9.55158 2.0093L9.60187 1.9147L9.50126 1.87371C9.46981 1.94938 9.46035 2.02506 9.44463 2.08182C9.41947 2.18903 9.39749 2.3057 9.39749 2.42867V2.48228C9.40063 2.52958 9.42577 2.56741 9.45093 2.58949C9.47923 2.61471 9.51385 2.62733 9.55473 2.63048C9.6019 2.63048 9.66478 2.59895 9.68679 2.5485C9.74969 2.42237 9.77799 2.29308 9.80315 2.16696C9.81258 2.11966 9.82516 2.05975 9.83459 1.99353L9.72768 1.98407L9.6742 2.07867C9.71823 2.10389 9.76542 2.12912 9.80945 2.1575L9.86607 2.0629L9.76227 2.02822C9.73711 2.10389 9.72455 2.17642 9.70883 2.23948C9.69625 2.30254 9.68679 2.36561 9.68679 2.43183C9.68679 2.47597 9.68995 2.51696 9.69938 2.56111C9.70567 2.59895 9.72766 2.63048 9.75597 2.6494C9.78427 2.66832 9.81258 2.67462 9.83774 2.67462C9.88177 2.67462 9.93209 2.6557 9.96354 2.6021C10.0201 2.5012 10.0453 2.39714 10.0548 2.28993C10.061 2.23948 10.0673 2.18588 10.0705 2.12596L9.96354 2.11966L9.90695 2.2111C10.124 2.34354 10.3315 2.48858 10.5328 2.63994L10.5988 2.5548L10.5013 2.5075C10.4132 2.68724 10.3944 2.90165 10.3849 3.06878V3.07508C10.3849 3.11923 10.407 3.16022 10.4353 3.18229C10.4636 3.20436 10.495 3.21698 10.5296 3.21698C10.5737 3.21698 10.6271 3.1949 10.6554 3.1413C10.7246 3.01202 10.8032 2.8449 10.8347 2.67147L10.7278 2.65255L10.6585 2.73769C10.7152 2.78183 10.7686 2.82598 10.8221 2.87328C11.3284 3.30211 11.7813 3.79717 12.1555 4.34583C12.4417 4.76205 12.665 5.20035 12.8631 5.66387L12.9638 5.61972L13.0487 5.55035C13.0267 5.52513 13.0078 5.4999 12.9889 5.47468C12.6147 5.008 12.231 4.54763 11.7687 4.14402C10.8598 3.34941 9.75285 2.76291 8.56724 2.51696C8.17413 2.43498 7.77157 2.39399 7.36903 2.39399C5.49783 2.39399 3.63607 3.27373 2.61399 4.91025C2.48819 5.11206 2.38126 5.32332 2.29006 5.54405L2.39071 5.58504L2.45989 5.50305C2.25233 5.32332 1.96617 5.21296 1.69256 5.21296C1.53846 5.21296 1.38747 5.24764 1.26168 5.33593C1.13274 5.42107 1.03525 5.55981 0.991224 5.7427C0.9755 5.80576 0.969227 5.87198 0.969227 5.9382C0.969227 6.20937 1.095 6.47109 1.30256 6.64136C1.51956 6.8211 1.82778 6.88731 2.11396 6.89047C2.14227 6.89047 2.17057 6.89047 2.19573 6.89047L2.18944 6.78326L2.08252 6.79903C2.1297 7.10804 2.1957 7.42336 2.28376 7.73238L2.38757 7.70084L2.28065 7.72292V7.73238L2.38757 7.7103L2.36238 7.60309C2.15797 7.65355 1.94413 7.7103 1.74915 7.7103C1.63908 7.7103 1.5416 7.69138 1.44725 7.64724L1.40007 7.74499L1.35289 7.84274C1.48183 7.90265 1.61706 7.92472 1.74915 7.92472C1.98187 7.92472 2.21144 7.8585 2.41271 7.81121L2.51652 7.78598L2.49448 7.67562V7.66616C2.40957 7.36976 2.34353 7.06074 2.2995 6.76119L2.28376 6.66344L2.18629 6.66974C2.16428 6.66974 2.13912 6.66974 2.11396 6.66974C1.86552 6.66974 1.59506 6.60353 1.44096 6.47109C1.28371 6.34181 1.1862 6.13685 1.1862 5.93504C1.1862 5.88775 1.19251 5.8373 1.20194 5.79315C1.23654 5.65756 1.29942 5.57243 1.38118 5.51567C1.46295 5.45891 1.56991 5.43053 1.68941 5.43053C1.90327 5.43053 2.14856 5.52513 2.31524 5.66702L2.42845 5.76477L2.48504 5.62603C2.56995 5.41476 2.67061 5.21611 2.79012 5.02377C3.76503 3.45977 5.55758 2.61156 7.36273 2.61156C7.74955 2.61156 8.13638 2.6494 8.51691 2.73138C9.66479 2.97103 10.7372 3.5386 11.6209 4.31114C12.0643 4.69899 12.4386 5.14989 12.8128 5.61342C12.8348 5.63864 12.8537 5.66387 12.8725 5.68909L13.3726 6.31343L13.0549 5.57558C12.8537 5.10575 12.6241 4.65169 12.3285 4.2197C11.9417 3.65527 11.4762 3.14445 10.9573 2.703C10.9007 2.6557 10.8441 2.60841 10.7875 2.56426L10.646 2.45075L10.6146 2.63048C10.5925 2.76291 10.5233 2.91427 10.4573 3.03409L10.5233 3.06878V2.9931C10.5045 2.9931 10.473 3.00571 10.4573 3.03409L10.5233 3.06878V2.9931V3.06247L10.5674 3.00886L10.5233 2.9931V3.06247L10.5674 3.00886L10.5202 3.06878H10.5957C10.5957 3.0467 10.5831 3.02148 10.5674 3.00886L10.5202 3.06878H10.5957V3.07193C10.602 2.91742 10.6271 2.72508 10.6932 2.59579L10.7341 2.51696L10.6617 2.46336C10.4541 2.3057 10.2403 2.1575 10.017 2.02191L9.86292 1.92731L9.85033 2.10705C9.85033 2.15434 9.84088 2.20795 9.83459 2.26155C9.82516 2.34984 9.8063 2.41921 9.76856 2.49174L9.83144 2.52642V2.45075C9.81257 2.45075 9.78429 2.46021 9.76856 2.48858L9.83144 2.52327V2.44759V2.52012L9.87233 2.46021L9.83144 2.44759V2.52012L9.87233 2.46021L9.82519 2.52642L9.90381 2.51381C9.90381 2.49489 9.88491 2.47282 9.87233 2.46336L9.82519 2.52958L9.90381 2.51696C9.89752 2.48543 9.89436 2.4539 9.89436 2.42552C9.89436 2.37822 9.90063 2.33092 9.91321 2.28047C9.92894 2.2111 9.94152 2.14804 9.96039 2.09128L9.98869 2.0093L9.91321 1.96515C9.86604 1.93677 9.81888 1.90839 9.77171 1.88317L9.62706 1.80118L9.61132 1.96515C9.60817 2.01245 9.5956 2.06605 9.58302 2.11966C9.56101 2.23633 9.53584 2.34669 9.48866 2.44129L9.55158 2.47282V2.40345C9.52957 2.40345 9.49495 2.42237 9.48866 2.44129L9.55158 2.47282V2.40345V2.46336L9.58932 2.41921L9.55158 2.40345V2.46336L9.58932 2.41921L9.54844 2.46651H9.61132C9.61132 2.44129 9.59875 2.42867 9.58932 2.41921L9.54844 2.46651H9.61132V2.42237C9.61132 2.32777 9.63019 2.22687 9.6522 2.12281C9.66793 2.05659 9.67737 1.99353 9.69623 1.94623L9.73397 1.85479L9.64905 1.80749C9.18047 1.55523 8.68675 1.35027 8.17728 1.20523L8.01059 1.15793L8.03888 1.3282C8.04832 1.38811 8.05462 1.45433 8.05462 1.52055C8.05462 1.64668 8.0389 1.77911 8.01374 1.88947L8.08606 1.90524L8.04518 1.84218C8.04518 1.84218 8.01688 1.8674 8.01374 1.88947L8.08606 1.90524L8.04518 1.84218L8.07977 1.89263V1.82956L8.04518 1.83902L8.07977 1.88947V1.82641V1.89578L8.11751 1.84218L8.07977 1.82956V1.89893L8.11751 1.84533L8.07347 1.90839L8.14895 1.89893L8.11751 1.84848L8.07347 1.91155L8.14895 1.90209C8.13637 1.8201 8.1301 1.72866 8.1301 1.63722C8.1301 1.5237 8.14267 1.41334 8.16783 1.31874L8.19613 1.21469L8.09236 1.18631C8.04833 1.17369 8.00429 1.16108 7.96026 1.15162L7.81561 1.11378L7.82505 1.26514V1.29667C7.82505 1.34712 7.81875 1.40703 7.81246 1.46694C7.80303 1.60253 7.79043 1.73181 7.74954 1.85164L7.81246 1.87055L7.77787 1.8138L7.75269 1.84848L7.81561 1.8674L7.78102 1.81064L7.80931 1.85794V1.80118L7.78102 1.81064L7.80931 1.85794V1.80118V1.87055L7.8502 1.81695L7.80931 1.80118V1.87055L7.8502 1.81695L7.80617 1.87371L7.87849 1.8611L7.8502 1.81695L7.80617 1.87371L7.87849 1.8611C7.86906 1.79803 7.8659 1.73497 7.8659 1.6719C7.8659 1.59938 7.8722 1.52685 7.87849 1.45118C7.88478 1.3755 7.88795 1.29982 7.90368 1.24937L7.93512 1.13901L7.77473 1.10117C7.37533 1.01288 6.97591 0.965583 6.57651 0.965583C6.19284 0.965583 5.81234 1.00973 5.42552 1.10117C5.12676 1.17054 4.83427 1.26199 4.54809 1.36919L4.44117 1.41019L4.48517 1.51424C4.50718 1.56154 4.51663 1.63406 4.54179 1.71289C4.58897 1.8611 4.63298 2.01245 4.68644 2.1638L4.76192 2.13542H4.6833L4.68959 2.1638L4.76507 2.13542H4.68644H4.76192L4.71163 2.07867C4.71163 2.07867 4.68959 2.10705 4.68644 2.13542H4.76192L4.71163 2.07867L4.75881 2.12912V2.05975C4.73679 2.05975 4.72421 2.06605 4.71163 2.07551L4.75881 2.12596V2.05659V2.13542L4.82169 2.08497C4.80911 2.06605 4.77768 2.05344 4.75881 2.05344V2.13227L4.82169 2.08182C4.73363 1.9683 4.65815 1.84848 4.61727 1.72551C4.59211 1.65614 4.56382 1.571 4.56068 1.50794L4.55438 1.35658L4.41284 1.41334C4.10779 1.53631 3.80904 1.67821 3.52286 1.84533C3.32159 1.962 3.12661 2.09128 2.94107 2.23002L2.84041 2.3057L2.92847 2.39399C2.97565 2.44129 3.01966 2.51696 3.06998 2.59895C3.13602 2.69985 3.19263 2.7976 3.22722 2.8985L3.29329 2.87328H3.22096V2.8985L3.29329 2.87328H3.22096H3.29958L3.2524 2.81337C3.2524 2.81337 3.22097 2.84805 3.22411 2.87328H3.30273L3.25555 2.81337L3.29644 2.86382V2.7976L3.25555 2.81021L3.29644 2.86066V2.79445V2.86382L3.34047 2.81337L3.29644 2.7976V2.86697L3.34047 2.81652C3.26185 2.74715 3.1958 2.6557 3.13919 2.5548C3.09517 2.47912 3.05426 2.4066 3.03854 2.34669L2.99765 2.18903L2.86874 2.28993C2.80899 2.33408 2.75236 2.38137 2.69576 2.42867L2.61084 2.5012L2.68316 2.58633C2.73348 2.64309 2.78065 2.74399 2.83726 2.82913C2.93161 2.96787 3.02912 3.10031 3.09831 3.23905L3.16119 3.20752H3.08887L3.09516 3.23905L3.15804 3.20752H3.08572H3.15175L3.10146 3.16652L3.08572 3.20752H3.15175L3.10146 3.16652L3.15804 3.21698V3.1413C3.12974 3.1413 3.11089 3.15706 3.10146 3.16652L3.15804 3.21698L3.19893 3.15391L3.15804 3.1413V3.21698L3.19893 3.15391C3.07628 3.07193 2.9725 2.94895 2.88444 2.81652C2.83098 2.73769 2.76809 2.65255 2.73979 2.58003L2.68316 2.43813L2.56681 2.53904C2.13596 2.91742 1.76172 3.35572 1.4661 3.84762L1.40007 3.95798L1.52273 4.00528C1.56676 4.02104 1.62021 4.04942 1.67682 4.0778C1.77431 4.12195 1.86866 4.16294 1.95672 4.21339L1.99131 4.14717H1.91584C1.91584 4.16609 1.92842 4.20078 1.95672 4.21339L1.99131 4.14717H1.91584H1.98501L1.93154 4.10303L1.91584 4.14717H1.98501L1.93154 4.10303L1.98816 4.15033V4.07465C1.96615 4.07465 1.94097 4.08726 1.93154 4.10303L1.98816 4.15033V4.07465C1.92526 4.07465 1.84351 4.05888 1.76489 4.03366C1.68627 4.00843 1.61394 3.97059 1.56991 3.92645L1.46925 3.83185L1.40007 3.95167C1.35919 4.02104 1.32145 4.09357 1.28371 4.16609L1.23653 4.26069L1.33089 4.31114C1.40637 4.35213 1.48499 4.39628 1.56676 4.44042C1.66425 4.49087 1.75229 4.53502 1.82147 4.59178L1.86865 4.53502H1.79633L1.82147 4.59178L1.86865 4.53502H1.79633H1.85921L1.81203 4.49403L1.79633 4.53502H1.85921L1.81203 4.49403L1.86551 4.54133V4.47195C1.84035 4.47195 1.82146 4.48457 1.81203 4.49403L1.86551 4.54133V4.47195C1.71455 4.47195 1.53216 4.37105 1.40007 4.25123L1.29316 4.15348L1.23024 4.28592C1.1925 4.3679 1.15477 4.44988 1.12017 4.53502L1.07614 4.64538L1.18935 4.68007C1.23024 4.69268 1.29 4.73367 1.35919 4.7652C1.50385 4.83142 1.64223 4.87872 1.75859 4.95124L1.79633 4.89133H1.72715C1.72715 4.9134 1.74287 4.94178 1.75859 4.95124L1.79633 4.89133L1.746 4.84403L1.72715 4.89133H1.79633L1.746 4.84403L1.79633 4.88818V4.82196L1.746 4.84403L1.79633 4.88818V4.82196H1.79003H1.7523C1.63908 4.82196 1.52588 4.78728 1.41266 4.73052C1.35606 4.70529 1.28056 4.66745 1.23968 4.63277L1.12332 4.53502L1.06985 4.68007C1.0384 4.7652 1.00697 4.85349 0.978671 4.94178C0.846587 5.37693 0.764803 5.84045 0.764803 6.30712C0.764803 6.54046 0.786805 6.7738 0.830833 7.00083C0.849702 7.09858 0.874864 7.19948 0.912603 7.30038L0.953488 7.4139L1.06044 7.3603L1.08244 7.35084L1.12332 7.33822C1.16735 7.3193 1.21766 7.30039 1.26797 7.28147C1.38119 7.24047 1.49443 7.2121 1.61079 7.19318L1.60135 7.13327V7.19318H1.61079L1.60135 7.13327V7.19318V7.12696H1.53843C1.53843 7.1711 1.56676 7.19002 1.60135 7.19318V7.12696H1.53843H1.6045L1.56676 7.06705C1.56676 7.06705 1.53532 7.10173 1.53532 7.12696H1.60135L1.56361 7.06705C1.41266 7.16164 1.21453 7.25939 1.04785 7.28462L0.900049 7.30669L0.969227 7.44228C1.05099 7.60309 1.17679 7.75445 1.35919 7.83958L1.40637 7.74184L1.40007 7.73238ZM2.81526 8.69411L2.91903 8.66573C2.82783 8.32833 2.74293 7.99094 2.66117 7.65039C2.58884 7.34768 2.5291 7.03552 2.43789 6.72335L2.33409 6.75488L2.34983 6.86209C2.38128 6.85578 2.4127 6.85263 2.44415 6.84317C2.48189 6.83371 2.5165 6.81164 2.53537 6.78011C2.55423 6.75173 2.56366 6.72019 2.56366 6.68866C2.56366 6.65713 2.55423 6.6256 2.53537 6.59722C2.5165 6.56884 2.48189 6.54361 2.44415 6.53416C2.39698 6.52154 2.34982 6.51208 2.30265 6.50578L2.28691 6.61299L2.37497 6.54992C2.34353 6.50578 2.29635 6.48686 2.25232 6.48686C2.22087 6.48686 2.1863 6.49632 2.158 6.52154L2.22717 6.60353L2.23977 6.49632C2.01334 6.47109 1.79947 6.46478 1.63594 6.3828C1.4724 6.30397 1.35604 6.11162 1.35919 5.92874C1.35919 5.90351 1.35919 5.88144 1.36548 5.85621C1.38121 5.76477 1.42524 5.70171 1.48814 5.65756C1.55104 5.61342 1.6391 5.58819 1.7303 5.58819C1.76175 5.58819 1.79632 5.58819 1.82777 5.59765C1.93784 5.61972 2.03218 5.67017 2.13281 5.73955C2.23345 5.80576 2.3404 5.88775 2.47563 5.94135L2.52907 5.95081C2.57939 5.95081 2.61712 5.92243 2.63913 5.89721C2.66115 5.86883 2.67061 5.8373 2.67376 5.80261C2.67376 5.78054 2.66745 5.75531 2.65487 5.73324C2.62971 5.68909 2.6014 5.6481 2.56681 5.60711L2.48189 5.67648L2.5794 5.72378C2.75551 5.36116 2.96937 5.02692 3.21782 4.72106L3.1329 4.65169L3.04798 4.72106C3.16434 4.86611 3.29013 4.99539 3.4002 5.12782C3.54801 5.31071 3.68641 5.4999 3.8122 5.6954C4.06379 6.08325 4.27447 6.49947 4.45058 6.92831C4.62669 7.35714 4.77136 7.79544 4.88772 8.24635C4.94747 8.47338 5.00094 8.69726 5.05126 8.92744C5.09214 9.11348 5.11415 9.32159 5.16447 9.5234L5.26828 9.49502L5.28398 9.38781C5.23051 9.38151 5.1802 9.37835 5.12673 9.37835C4.9915 9.37835 4.85943 9.39727 4.74936 9.40673C4.55124 9.42565 4.35311 9.45718 4.15813 9.50448C3.95371 9.55178 3.75243 9.61484 3.5543 9.69052C3.42221 9.74097 3.26812 9.79773 3.12975 9.88602L3.18948 9.97746L3.29329 9.94278C3.15491 9.52025 3.02909 9.09141 2.91273 8.65942L2.80897 8.6878L2.7052 8.71618C2.82156 9.15132 2.95049 9.58331 3.08887 10.009L3.1329 10.1446L3.2524 10.0658C3.35933 9.99323 3.50084 9.94278 3.63607 9.88917C3.82162 9.81665 4.01347 9.75674 4.20846 9.71259C4.394 9.66845 4.58267 9.64007 4.77136 9.62115C4.88772 9.60854 5.01352 9.59277 5.12988 9.59277C5.17391 9.59277 5.2148 9.59277 5.25568 9.60223L5.41607 9.62746L5.37519 9.4698C5.32802 9.28691 5.30601 9.08195 5.26198 8.88014C5.21166 8.64996 5.15819 8.41978 5.09844 8.18959C4.97894 7.73238 4.83426 7.28462 4.65185 6.84317C4.4726 6.40172 4.25561 5.97604 3.99459 5.57558C3.8625 5.37062 3.72099 5.17512 3.56689 4.98593C3.45053 4.84088 3.32474 4.7116 3.21467 4.57916L3.12975 4.47511L3.04483 4.57916C2.78695 4.89448 2.56367 5.24449 2.38127 5.62288L2.34983 5.68594L2.39386 5.73955C2.41902 5.77108 2.44102 5.79946 2.45674 5.83099L2.51963 5.7963H2.4473L2.45674 5.83099L2.51963 5.7963H2.4473H2.51022L2.45989 5.75531L2.4473 5.7963H2.51022L2.45989 5.75531L2.51963 5.80261V5.72693C2.49132 5.72693 2.46933 5.7427 2.45989 5.75531L2.51963 5.80261L2.54796 5.73009L2.51963 5.72378V5.79946L2.54796 5.72693C2.44418 5.68594 2.34984 5.61342 2.23977 5.54405C2.13284 5.47152 2.01016 5.399 1.85606 5.37062C1.80889 5.36116 1.76488 5.35801 1.71771 5.35801C1.58877 5.35801 1.45982 5.39269 1.35289 5.46837C1.24597 5.54405 1.16422 5.66072 1.14221 5.81207C1.13592 5.84676 1.13277 5.88459 1.13277 5.91928C1.13277 6.1873 1.28687 6.44586 1.53217 6.56884C1.7586 6.6792 1.99758 6.67605 2.20514 6.70128L2.25232 6.70758L2.28691 6.67605L2.24291 6.62245V6.69182L2.28691 6.67605L2.24291 6.62245V6.69182V6.6256L2.18944 6.66344C2.20516 6.68551 2.22719 6.69182 2.24291 6.69182V6.6256L2.18944 6.66344L2.21458 6.70128L2.25862 6.70758C2.2995 6.71389 2.34038 6.72019 2.37812 6.72965L2.39386 6.66974L2.34353 6.70443L2.37812 6.72965L2.39386 6.66974L2.34353 6.70443L2.39071 6.6729H2.33409L2.34353 6.70443L2.39071 6.6729L2.34353 6.64136L2.33409 6.6729H2.39071L2.34353 6.64136L2.39386 6.67605L2.37812 6.61299L2.34038 6.63821L2.39071 6.6729L2.37497 6.60983C2.35296 6.61614 2.32466 6.61929 2.29635 6.6256L2.1737 6.64452L2.20829 6.76434C2.2932 7.06074 2.35297 7.37291 2.42845 7.68192C2.51022 8.02247 2.59826 8.36302 2.68946 8.70356L2.79327 8.67519L2.81526 8.69411ZM5.47266 10.8824L5.37204 10.8414C5.22738 11.1851 4.88459 11.3775 4.5135 11.3806C4.46947 11.3806 4.42543 11.3806 4.3814 11.3712C4.12667 11.3397 3.94742 11.2293 3.80276 11.0685C3.65809 10.9077 3.55115 10.6869 3.46623 10.4473C3.4285 10.3401 3.39076 10.2297 3.35302 10.1194L3.24926 10.154L3.2807 10.2581C3.45052 10.2045 3.59832 10.1194 3.73984 10.0721C3.90966 10.0121 4.08578 9.9617 4.26189 9.9207C4.44744 9.87971 4.63929 9.85133 4.82799 9.83557C4.86887 9.83241 4.91602 9.83241 4.96319 9.83241C5.00093 9.83241 5.04182 9.83241 5.0827 9.83241C5.17076 9.83241 5.26196 9.83241 5.3563 9.81034L5.33431 9.70313L5.24624 9.7662C5.37832 9.95854 5.45066 10.195 5.45066 10.4284C5.45066 10.5703 5.4255 10.7122 5.36889 10.8414L5.46951 10.8824L5.57017 10.9234C5.63621 10.7658 5.66764 10.5955 5.66764 10.4252C5.66764 10.1477 5.58276 9.87025 5.42552 9.64007L5.38463 9.58016L5.31542 9.59592C5.24623 9.60854 5.16761 9.61169 5.08585 9.61169C5.04811 9.61169 5.00723 9.61169 4.96634 9.61169C4.91602 9.61169 4.86571 9.61169 4.81539 9.618C4.61412 9.63376 4.41599 9.66529 4.22101 9.70944C4.03546 9.75043 3.85306 9.80404 3.67381 9.8671C3.51027 9.92701 3.36249 10.009 3.22411 10.05L3.11716 10.0815L3.15175 10.1856C3.18949 10.2959 3.22726 10.4063 3.265 10.5167C3.3562 10.7721 3.4694 11.0149 3.64236 11.2104C3.81533 11.4059 4.0512 11.5478 4.35626 11.5856C4.40972 11.5919 4.46318 11.5951 4.5135 11.5951C4.95693 11.5951 5.38777 11.3586 5.57332 10.9234L5.47266 10.8824ZM9.31887 14.4235L9.41949 14.4645C9.74341 13.632 9.91951 12.7365 9.91951 11.8442C9.91951 10.7374 9.64592 9.64007 9.03582 8.67834C8.76222 8.24635 8.38483 7.79544 7.93512 7.44228C7.48855 7.09227 6.9665 6.84002 6.40357 6.8211V6.92831L6.50104 6.88731C6.38782 6.59722 6.21174 6.33235 5.97587 6.13054C5.74315 5.92874 5.45064 5.79315 5.11414 5.75846H5.09844C5.05756 5.75846 5.01039 5.78054 4.98838 5.80892C4.96322 5.84045 4.9569 5.87198 4.9569 5.90351C4.9569 5.93189 4.96321 5.96027 4.98208 5.9855C4.99781 6.01072 5.02926 6.03595 5.06385 6.04541C5.77774 6.25983 6.24633 6.93146 6.25262 7.67877V7.70084C6.25262 8.06977 6.15827 8.45131 5.97587 8.76978C5.8941 8.91168 5.79659 9.04096 5.68023 9.14817C5.60476 9.21754 5.51986 9.26484 5.41922 9.31529L5.46951 9.41304L5.57647 9.40042C5.55131 9.20177 5.49785 9.00627 5.46011 8.82654C5.40979 8.59635 5.35632 8.36617 5.29657 8.13599C5.16763 7.6567 5.01353 7.18056 4.82169 6.71704C4.63929 6.27874 4.4223 5.85306 4.15813 5.4526C3.92855 5.10575 3.65807 4.7116 3.30899 4.43727L3.24296 4.52241L3.32473 4.59493C4.3248 3.44716 5.80604 2.77868 7.34388 2.77868C7.57031 2.77868 7.79986 2.79445 8.02944 2.82282C9.20877 2.97733 10.3378 3.49446 11.2655 4.24177C11.7278 4.61385 12.1272 5.04269 12.5015 5.50621C12.86 5.94766 13.2122 6.41749 13.6745 6.78956L13.7437 6.70443L13.6965 6.60668C13.4418 6.7265 13.2562 6.92831 13.1179 7.16164C12.9826 7.39498 12.8946 7.65354 12.838 7.8995C12.7059 8.47023 12.643 9.0788 12.643 9.6716C12.643 9.80719 12.6461 9.94278 12.6524 10.0784C12.6839 10.7059 12.8348 11.3365 13.1304 11.8757C13.4261 12.418 13.8695 12.8721 14.4827 13.1464C14.5425 13.1717 14.6054 13.1969 14.6651 13.219L14.7029 13.1181L14.5991 13.0834C14.555 13.2221 14.5519 13.364 14.5393 13.4744C14.5205 13.6793 14.511 13.8843 14.511 14.0893C14.511 14.2816 14.5205 14.4771 14.5362 14.6694C14.5393 14.7136 14.5393 14.7735 14.5456 14.8334C14.5519 14.8965 14.5645 14.9658 14.6022 15.0321L14.6966 14.9753L14.6714 14.8681C13.3914 15.1771 12.1901 15.7951 11.2215 16.76C10.5674 17.4127 10.0013 18.1569 9.51696 18.9389C9.37229 19.1722 9.23394 19.4119 9.10185 19.6578L9.19621 19.7083L9.24024 19.6105C9.02639 19.5128 8.79367 19.4655 8.60812 19.3898C8.3471 19.2826 8.09235 19.1596 7.84705 19.0209C7.77786 18.9799 7.70552 18.9389 7.63633 18.8979L7.57975 18.9893L7.66781 19.0524C7.94141 18.6583 8.21813 18.2641 8.49802 17.8731C8.82194 17.4222 9.15216 16.9713 9.48552 16.5267C9.82516 16.0758 10.1837 15.6343 10.4919 15.1487C10.5076 15.1235 10.517 15.092 10.517 15.0604C10.517 15.01 10.4919 14.969 10.4636 14.9406C10.4321 14.9122 10.3944 14.8933 10.3472 14.8933C10.3063 14.8933 10.2592 14.9122 10.2308 14.9438C9.85032 15.3442 9.52954 15.7857 9.20247 16.2208C8.85968 16.6749 8.52634 17.1353 8.19298 17.5956C7.90051 18.0024 7.61118 18.4123 7.32814 18.8285L7.41621 18.8916L7.47594 18.8001C7.37845 18.7371 7.27783 18.6709 7.18349 18.6015C7.07342 18.5227 6.96333 18.4407 6.85326 18.3555C6.80294 18.3177 6.74635 18.2609 6.67402 18.2105L6.61425 18.3019L6.68972 18.3808C7.85647 17.2803 8.83453 15.9465 9.41319 14.455L9.31257 14.414L9.21191 14.373C8.64584 15.8298 7.6898 17.1384 6.54192 18.22L6.4413 18.3146L6.55452 18.3902C6.60483 18.4218 6.65831 18.4754 6.7212 18.5258C6.83127 18.611 6.94133 18.6961 7.05769 18.7781C7.15518 18.8474 7.2558 18.9168 7.35958 18.983L7.44765 19.0398L7.50742 18.9515C7.79046 18.5384 8.07664 18.1285 8.36911 17.7218C8.69932 17.2614 9.03581 16.8042 9.37545 16.3501C9.70252 15.915 10.0201 15.4798 10.3881 15.092L10.3472 15.0541V15.1109L10.3881 15.0951L10.3472 15.0573V15.114V15.0667L10.3158 15.1014L10.3472 15.114V15.0667L10.3158 15.1014L10.3504 15.0636H10.3001C10.3001 15.0825 10.3095 15.0951 10.3158 15.1014L10.3504 15.0636H10.3001H10.3566L10.3095 15.0321L10.3001 15.0636H10.3566L10.3095 15.0321C10.0076 15.5019 9.65536 15.9402 9.31257 16.3974C8.97921 16.8452 8.649 17.2929 8.32508 17.747C8.04518 18.138 7.76843 18.5321 7.49168 18.9294L7.42565 19.024L7.52312 19.0839C7.59545 19.1281 7.6678 19.1722 7.74014 19.2132C7.99487 19.3551 8.2559 19.4812 8.52635 19.5916C8.73706 19.6767 8.96663 19.724 9.14903 19.8092L9.24024 19.8502L9.28739 19.7619C9.41633 19.5222 9.55472 19.2857 9.69623 19.0556C10.1711 18.2862 10.7277 17.5515 11.3693 16.9145C12.3096 15.9812 13.4701 15.3821 14.7186 15.0794L14.8601 15.0447L14.7846 14.9185C14.772 14.8965 14.7626 14.8586 14.7563 14.8113C14.75 14.764 14.75 14.7073 14.7469 14.6474C14.7311 14.4613 14.7217 14.2721 14.7217 14.0861C14.7217 13.8874 14.7312 13.6888 14.75 13.4933C14.7626 13.3735 14.7658 13.2442 14.7972 13.1496L14.8286 13.0487L14.7312 13.014C14.6746 12.9919 14.6179 12.9699 14.5613 12.9446C13.9953 12.6924 13.5896 12.2762 13.3128 11.7685C13.0361 11.2608 12.8914 10.6649 12.8631 10.0626C12.8568 9.93332 12.8537 9.80088 12.8537 9.66845C12.8537 9.09141 12.9166 8.49545 13.0424 7.94364C13.0958 7.71346 13.1776 7.47066 13.2971 7.2657C13.4197 7.06074 13.577 6.89362 13.7783 6.79903L13.9355 6.7265L13.8003 6.61614C13.3663 6.26613 13.0203 5.81207 12.6618 5.36431C12.2813 4.89133 11.8725 4.44988 11.3945 4.06519C10.4384 3.29581 9.27483 2.75976 8.05148 2.59895C7.81247 2.56741 7.57345 2.55165 7.33758 2.55165C5.73685 2.55165 4.19585 3.24536 3.15489 4.44358L3.07942 4.52871L3.17063 4.59808C3.48512 4.84403 3.74616 5.21611 3.97259 5.55981C4.22733 5.94766 4.43801 6.36073 4.61727 6.78956C4.80596 7.24047 4.95691 7.70715 5.0827 8.18013C5.14245 8.40401 5.19592 8.63104 5.24309 8.85807C5.28398 9.04411 5.33429 9.2333 5.3563 9.41304L5.37519 9.56754L5.51355 9.49502C5.61104 9.44457 5.71799 9.38781 5.81863 9.29322C5.95386 9.16709 6.06705 9.01889 6.15511 8.86438C6.35953 8.50807 6.46015 8.095 6.46015 7.68823V7.66616C6.45386 6.83056 5.92552 6.07379 5.11414 5.82784L5.09214 5.89721L5.15192 5.85937L5.11103 5.83099L5.089 5.90036L5.14877 5.86252L5.09529 5.89721H5.15817L5.14877 5.86252L5.09529 5.89721H5.15817H5.09214L5.14562 5.9382L5.16132 5.89721H5.09529L5.14877 5.9382L5.089 5.8909V5.96658L5.14877 5.9382L5.089 5.8909V5.96658V5.90036L5.0827 5.96658H5.089V5.90036L5.0827 5.96658C5.37517 5.99496 5.62047 6.11162 5.82488 6.28505C6.0293 6.45848 6.18657 6.69497 6.28721 6.95669L6.31235 7.0229H6.38468C6.88471 7.04182 7.36587 7.26885 7.79043 7.59994C8.21498 7.93103 8.57667 8.36617 8.84084 8.77924C9.42579 9.69998 9.68994 10.7563 9.68994 11.8284C9.68994 12.6892 9.51696 13.5595 9.20247 14.3667L9.30313 14.4077L9.31887 14.4235ZM6.51678 18.4092L6.43186 18.4785C6.49476 18.5542 6.56708 18.6078 6.62055 18.6551C6.71489 18.7371 6.8124 18.8128 6.90989 18.8853C7.02625 18.9736 7.14576 19.0587 7.26841 19.1375L7.32814 19.0461L7.23693 18.9862C7.08283 19.2132 6.92559 19.4434 6.77464 19.6736C6.72747 19.7461 6.68031 19.8155 6.63314 19.888L6.72435 19.9479L6.78408 19.8565C6.4067 19.6105 6.0419 19.352 5.68338 19.0776L5.61735 19.1628L5.68338 19.2479C5.99472 19.0083 6.29663 18.756 6.5891 18.488L6.51678 18.4092L6.44445 18.3303C6.15827 18.5952 5.85948 18.8443 5.55443 19.0776L5.44122 19.1628L5.55443 19.2479C5.91609 19.5254 6.28405 19.7871 6.66773 20.0362L6.75894 20.0961L6.81867 20.0047C6.86585 19.9353 6.91304 19.8628 6.95707 19.7934C7.10802 19.5632 7.26526 19.3362 7.41935 19.106L7.48224 19.0146L7.38791 18.9547C7.26841 18.8758 7.15202 18.797 7.04195 18.7119C6.9476 18.6393 6.85325 18.5668 6.7652 18.488C6.7023 18.4344 6.63943 18.3871 6.6017 18.3398L6.52933 18.2483L6.44445 18.3272L6.51678 18.406V18.4092ZM30.9964 17.8227L30.8895 17.8132C30.8675 18.0308 30.7574 18.2263 30.6002 18.4092C30.4461 18.592 30.2511 18.7592 30.0813 18.9231C29.7039 19.2889 29.3108 19.661 28.9177 19.9921C26.9238 21.6853 24.5431 22.8773 22.021 23.5457C20.5051 23.9493 18.9422 24.1638 17.376 24.1732C17.3383 24.1732 17.3005 24.1732 17.2659 24.1732C16.3508 24.1732 15.4356 24.107 14.5236 24.0029C13.5581 23.8926 12.5958 23.7538 11.6523 23.5394C10.0453 23.1705 8.52007 22.5209 7.11746 21.6507C6.33439 21.1682 5.58903 20.6196 4.88772 20.0267C4.49776 19.6957 4.10466 19.3236 3.72413 18.9578C3.55431 18.7938 3.35932 18.6267 3.20522 18.4438C3.05113 18.261 2.9379 18.0655 2.91588 17.8479C2.90959 17.7943 2.90648 17.7375 2.90648 17.6808C2.90648 17.5483 2.92218 17.4096 2.95991 17.2961C2.97249 17.2551 2.99137 17.2109 3.01024 17.1889C3.03226 17.1636 3.03855 17.1605 3.05428 17.1605C3.07 17.1605 3.1046 17.1731 3.14234 17.2046C3.18008 17.2362 3.21781 17.2803 3.2524 17.3213C3.59834 17.7186 3.95686 18.1127 4.35626 18.4628L4.42858 18.3808L4.35311 18.4596C5.14561 19.2069 6.03247 19.8565 6.95392 20.4177C8.2842 21.2313 9.72768 21.8619 11.2215 22.3002C12.9637 22.8142 14.7689 23.057 16.5741 23.057C18.0899 23.057 19.6089 22.8867 21.0932 22.5619C22.0556 22.3507 23.0053 22.0763 23.9331 21.7452C24.5715 21.5151 25.1973 21.2502 25.8042 20.9475C26.1659 20.7709 26.5181 20.5786 26.8641 20.3768C27.817 19.8249 28.6315 19.1502 29.446 18.4281C29.8423 18.0749 30.2008 17.6839 30.5498 17.2866C30.5844 17.2456 30.6222 17.2015 30.6599 17.1699C30.6977 17.1384 30.7291 17.1226 30.748 17.1258C30.7637 17.1258 30.7731 17.1289 30.792 17.1542C30.8109 17.1794 30.8297 17.2235 30.8423 17.2614C30.8801 17.3781 30.8958 17.5136 30.8958 17.6461C30.8958 17.7028 30.8958 17.7596 30.8864 17.8132L30.9933 17.8227L31.1002 17.8321C31.1065 17.7722 31.1096 17.7091 31.1096 17.6429C31.1096 17.4916 31.0908 17.3339 31.0467 17.192C31.031 17.1384 31.0059 17.0753 30.9618 17.0186C30.9209 16.9618 30.8423 16.9019 30.7448 16.9051H30.7386C30.6442 16.9082 30.5719 16.9555 30.5152 17.0028C30.4586 17.0501 30.4178 17.1037 30.3832 17.1416C30.0372 17.5357 29.685 17.9236 29.3013 18.2641C28.49 18.983 27.688 19.6484 26.754 20.1876C26.4112 20.3862 26.0621 20.5786 25.7068 20.752C25.1061 21.0515 24.4897 21.3133 23.8576 21.5403C22.9393 21.8714 21.9989 22.1426 21.0461 22.3507C19.5774 22.6723 18.0742 22.8426 16.5741 22.8426C14.7878 22.8426 13.0046 22.6029 11.2813 22.0953C9.80317 21.6601 8.37854 21.0389 7.06398 20.2349C6.15512 19.6799 5.27769 19.0366 4.50091 18.3019C4.11409 17.9614 3.76188 17.5735 3.41909 17.1794C3.38764 17.1416 3.3436 17.0911 3.28699 17.0407C3.23039 16.9934 3.16121 16.9461 3.06372 16.9429H3.05742C2.95993 16.9429 2.88129 16.9997 2.84041 17.0564C2.79638 17.1163 2.77436 17.1794 2.75549 17.2299C2.71146 17.3749 2.69261 17.5294 2.69261 17.6808C2.69261 17.7438 2.69576 17.8069 2.70205 17.87C2.73036 18.1506 2.87186 18.3839 3.04168 18.5857C3.21151 18.7875 3.4128 18.9578 3.57633 19.1155C3.95686 19.4812 4.35311 19.8596 4.74936 20.1939C5.4601 20.7961 6.2117 21.3479 7.00421 21.8398C8.42569 22.7196 9.97297 23.3786 11.6052 23.7538C12.5612 23.9746 13.533 24.1133 14.5016 24.2237C15.4199 24.3277 16.3413 24.3971 17.2691 24.3971C17.3068 24.3971 17.3445 24.3971 17.3823 24.3971C18.9673 24.3876 20.5492 24.1701 22.0807 23.7633C24.6344 23.0854 27.0433 21.8808 29.0623 20.1623C29.4586 19.8249 29.8548 19.4497 30.2353 19.0839C30.3989 18.9263 30.6002 18.7529 30.77 18.5542C30.9398 18.3524 31.0813 18.1191 31.1096 17.8384L31.0027 17.829L30.9964 17.8227Z" fill="#848484"/>
<path d="M46.0163 13.2631C45.9471 10.5293 40.4499 5.14674 38.2422 2.91742C38.2705 7.84904 38.8051 10.1761 39.1982 13.2631H38.0315V2.69354H39.5913C41.6858 4.85034 44.1609 7.24678 45.9157 9.89548C45.7459 6.95038 45.3527 5.04899 45.0571 2.69354H46.2239V13.2631H46.0132H46.0163Z" fill="#848484"/>
<path d="M54.2684 13.2631H53.1017V10.895C52.5954 12.1784 51.5135 13.2631 50.0512 13.2631C48.7146 13.2631 47.8309 12.418 47.8309 11.0653C47.8309 9.85449 48.7712 8.92429 49.9663 8.92429C50.9506 8.92429 51.4695 9.43196 52.284 9.51709C53.0137 9.60223 53.0986 9.15132 53.0986 8.57428C53.0986 7.24993 52.479 6.47424 51.089 6.44586C50.3028 6.43325 49.2618 6.74227 48.9662 7.55895C48.853 7.83959 48.853 8.16437 48.9945 8.50176C48.2083 8.57113 47.8278 8.20536 47.8278 7.71346C47.8278 7.22156 48.3341 6.81164 48.8121 6.60037C49.375 6.36073 50.2462 6.21883 51.1299 6.21883C52.8312 6.23145 54.2653 6.65713 54.2653 8.57113V13.2631H54.2684ZM52.0891 9.71259C51.5261 9.61484 50.9632 9.40358 50.3877 9.44457C49.4599 9.52971 49.0102 10.318 48.9976 11.0779C48.9693 12.4023 50.0669 13.0235 51.2053 12.6293C52.4696 12.1784 53.0325 10.7405 53.1017 9.50133C52.8501 9.75358 52.413 9.76935 52.0891 9.71259Z" fill="#848484"/>
<path d="M56.8535 6.21883V6.82425C57.7246 6.47109 58.948 6.21883 60.0015 6.21883C61.055 6.21883 62.1243 6.45848 62.1243 7.78283V13.2663H60.9576V7.78283C60.9576 6.922 60.4953 6.57199 59.9166 6.48686C59.0014 6.36073 57.6397 6.84002 56.8535 7.41705V13.2663H55.6868V6.21883H56.8535Z" fill="#848484"/>
<path d="M69.955 13.2631H68.7882V10.895C68.2819 12.1784 67.2001 13.2631 65.7377 13.2631C64.4011 13.2631 63.5174 12.418 63.5174 11.0653C63.5174 9.85449 64.4577 8.92429 65.6528 8.92429C66.6371 8.92429 67.1561 9.43196 67.9706 9.51709C68.7002 9.60223 68.7851 9.15132 68.7851 8.57428C68.7851 7.24993 68.1655 6.47424 66.7755 6.44586C65.9893 6.43325 64.9483 6.74227 64.6527 7.55895C64.5395 7.83959 64.5395 8.16437 64.681 8.50176C63.8948 8.57113 63.5143 8.20536 63.5143 7.71346C63.5143 7.22156 64.0206 6.81164 64.4986 6.60037C65.0616 6.36073 65.9327 6.21883 66.8164 6.21883C68.5178 6.23145 69.9518 6.65713 69.9518 8.57113V13.2631H69.955ZM67.7756 9.71259C67.2126 9.61484 66.6497 9.40358 66.0742 9.44457C65.1465 9.52971 64.6967 10.318 64.6842 11.0779C64.6559 12.4023 65.7534 13.0235 66.8919 12.6293C68.1561 12.1784 68.719 10.7405 68.7882 9.50133C68.5366 9.75358 68.0995 9.76935 67.7756 9.71259Z" fill="#848484"/>
<path d="M79.8928 2.69354C81.396 2.69354 82.7735 3.72149 82.7735 5.42738C82.7735 7.27201 81.2545 8.1486 79.5815 8.1486C79.8205 8.26212 80.0029 8.42923 80.1444 8.6405C81.0029 9.79458 81.5627 11.3617 82.2232 12.4307C82.3489 12.6419 82.6729 13.1212 82.8993 13.2631H81.8175C81.4243 13.2631 81.2702 13.137 81.1413 12.9099C80.4243 11.5982 79.9337 10.4 79.0909 9.07564C78.5154 8.18644 77.7983 8.06031 77.009 8.70987L76.8957 8.58374C77.6694 7.9058 78.3864 7.97833 79.3141 7.92157C80.8614 7.83643 81.591 6.84948 81.591 5.42738C81.591 4.00528 80.3677 2.91742 79.0877 2.91742H75.968V13.2631H74.8013V2.69354H79.8896H79.8928Z" fill="#848484"/>
<path d="M85.4057 5.31702C85.4057 5.6418 85.1542 5.90982 84.8303 5.90982C84.5063 5.90982 84.239 5.6418 84.239 5.31702C84.239 4.99224 84.5063 4.73998 84.8303 4.73998C85.1542 4.73998 85.4057 4.99224 85.4057 5.31702ZM85.4057 6.21884V13.2663H84.239V6.21884H85.4057Z" fill="#848484"/>
<path d="M87.9625 2.69354V7.52742C88.6638 6.78011 89.5916 6.20307 90.6482 6.20307C92.3779 6.20307 93.2333 7.61255 93.2333 9.2333C93.2333 11.6581 92.054 13.2631 89.5098 13.2631H86.7958V2.69354H87.9625ZM87.9625 12.9131C88.3147 12.9982 88.7487 13.0266 89.1701 13.0266C91.3495 13.0266 92.0791 11.223 92.0791 9.23646C92.0791 7.55895 91.1923 5.84045 89.3368 6.77065C88.7456 7.05128 88.2676 7.64408 87.9594 8.19274V12.9131H87.9625Z" fill="#848484"/>
<path d="M95.9064 8.37248C95.2869 10.2613 96.2429 12.7838 98.4789 12.8248C99.4192 12.8374 100.448 12.4149 100.926 11.5572L101.051 11.6424C100.419 12.7964 99.2934 13.2631 98.1707 13.2631C96.3844 13.2631 94.573 11.9388 94.573 9.74097C94.573 7.7103 96.1894 6.21883 98.1707 6.21883C100.152 6.21883 101.039 7.19002 101.039 8.09184C101.051 8.98105 100.209 9.81034 98.6928 9.65583C97.6801 9.55808 96.6266 9.03465 95.9096 8.37248H95.9064ZM98.8846 9.16393C100.375 8.7824 100.092 6.44271 98.3091 6.44271C97.2273 6.44271 96.3844 7.19002 95.9913 8.1486C96.7209 8.85177 97.8594 9.43196 98.8877 9.16393H98.8846Z" fill="#848484"/>
<path d="M103.552 5.31702C103.552 5.6418 103.3 5.90982 102.976 5.90982C102.652 5.90982 102.385 5.6418 102.385 5.31702C102.385 4.99224 102.652 4.73998 102.976 4.73998C103.3 4.73998 103.552 4.99224 103.552 5.31702ZM103.552 6.21884V13.2663H102.385V6.21884H103.552Z" fill="#848484"/>
<path d="M106.111 6.21883V6.82425C107.319 6.25983 109.146 6.21883 110.216 6.21883V7.40129C109.373 7.10489 107.306 6.44271 106.111 7.09227V13.2663H104.945V6.21883H106.111Z" fill="#848484"/>
<path d="M117.386 9.74097C117.386 11.6865 115.883 13.2631 114.027 13.2631C112.172 13.2631 110.681 11.6834 110.681 9.74097C110.681 7.79859 112.184 6.21883 114.027 6.21883C115.87 6.21883 117.386 7.79859 117.386 9.74097ZM111.848 9.74097C111.848 11.573 112.832 13.0518 114.027 13.0518C115.222 13.0518 116.219 11.573 116.219 9.74097C116.219 7.90896 115.235 6.44271 114.027 6.44271C112.82 6.44271 111.848 7.92157 111.848 9.74097Z" fill="#848484"/>
<path d="M38.7517 16.1704V19.1596C39.1857 18.6993 39.758 18.3398 40.4122 18.3398C41.4814 18.3398 42.0098 19.2101 42.0098 20.2128C42.0098 21.7106 41.2801 22.7038 39.7077 22.7038H38.0315V16.1704H38.7517ZM38.7517 22.4863C38.9687 22.5399 39.2391 22.5556 39.5002 22.5556C40.8462 22.5556 41.299 21.4394 41.299 20.2128C41.299 19.1754 40.7518 18.1128 39.6039 18.6898C39.2391 18.8632 38.9435 19.229 38.7517 19.5695V22.4863Z" fill="#848484"/>
<path d="M46.815 22.7038H46.0948V21.2407C45.7835 22.0322 45.1136 22.7038 44.2079 22.7038C43.384 22.7038 42.8336 22.1804 42.8336 21.3448C42.8336 20.5943 43.4154 20.0205 44.1544 20.0205C44.7614 20.0205 45.0853 20.3326 45.5885 20.3862C46.0414 20.4398 46.0917 20.1592 46.0917 19.8029C46.0917 18.983 45.708 18.5038 44.8495 18.488C44.362 18.4785 43.7205 18.6709 43.5381 19.1754C43.4689 19.3488 43.4689 19.5506 43.557 19.7587C43.0695 19.8029 42.8368 19.5759 42.8368 19.27C42.8368 18.9641 43.1481 18.7119 43.4437 18.5826C43.7896 18.4344 44.3306 18.3461 44.8778 18.3461C45.9282 18.3556 46.815 18.6173 46.815 19.7997V22.7007V22.7038ZM45.469 20.5092C45.1231 20.4493 44.774 20.3169 44.4186 20.3452C43.8463 20.3988 43.5664 20.8844 43.5601 21.3543C43.5412 22.1741 44.2205 22.5556 44.925 22.3128C45.708 22.0354 46.054 21.1462 46.098 20.3799C45.9407 20.5376 45.6734 20.5439 45.4722 20.5092H45.469Z" fill="#848484"/>
<path d="M48.4157 16.1704V19.1596C48.8497 18.6993 49.4221 18.3398 50.0762 18.3398C51.1455 18.3398 51.6738 19.2101 51.6738 20.2128C51.6738 21.7106 50.9442 22.7038 49.3718 22.7038H47.6956V16.1704H48.4157ZM48.4157 22.4863C48.6327 22.5399 48.9032 22.5556 49.1642 22.5556C50.5102 22.5556 50.9631 21.4394 50.9631 20.2128C50.9631 19.1754 50.4159 18.1128 49.268 18.6898C48.9032 18.8632 48.6076 19.229 48.4157 19.5695V22.4863Z" fill="#848484"/>
<path d="M56.1394 18.3492C55.3909 19.9858 54.6362 21.6349 53.8972 23.2714C53.6016 23.9147 53.1675 24.8827 52.3404 24.8732C52.0102 24.8732 51.7492 24.6998 51.5574 24.4381L51.941 23.8642C52.3656 24.621 53.1675 24.4381 53.5575 23.6719C53.7242 23.3597 53.8626 23.0192 54.0104 22.6975L52.0291 18.3492H52.8279L54.4098 21.8241C54.9318 20.6669 55.1991 19.5065 55.4161 18.3492H56.1363H56.1394Z" fill="#848484"/>
<path d="M63.0709 16.1704V22.7038H62.3507V22.0763C61.9859 22.4516 61.4922 22.7038 60.9607 22.7038C59.7437 22.7038 59.0927 21.72 59.0927 20.588C59.0927 19.456 59.8474 18.3492 61.0739 18.3492C61.6054 18.3492 62.0205 18.5416 62.3507 18.9168V16.1735H63.0709V16.1704ZM62.3507 19.4024C62.1589 18.9673 61.813 18.5321 61.2909 18.4975C60.2405 18.4186 59.8128 19.6484 59.8128 20.588C59.8128 21.3637 60.1871 22.5556 61.1934 22.5304C61.7155 22.5115 62.1055 22.111 62.3476 21.6759V19.4024H62.3507Z" fill="#848484"/>
<path d="M64.7565 19.6831C64.3728 20.8498 64.9641 22.4106 66.3478 22.4358C66.939 22.4453 67.5743 22.1836 67.8605 21.6507L67.9391 21.7043C67.5554 22.42 66.8541 22.707 66.1591 22.707C65.0553 22.707 63.9357 21.8872 63.9357 20.5281C63.9357 19.2731 64.9358 18.3493 66.1591 18.3493C67.3825 18.3493 67.9328 18.9421 67.9391 19.5065C67.9391 20.0551 67.4265 20.5691 66.4799 20.4745C65.854 20.4146 65.2125 20.0898 64.7596 19.6831H64.7565ZM66.5994 20.1687C67.5208 19.9322 67.3541 18.4785 66.244 18.4785C65.5741 18.4785 65.0553 18.9484 64.81 19.5412C65.2628 19.9763 65.9641 20.3326 66.5994 20.1687ZM66.5113 16.9902H67.1372L66.3729 17.9583H66.2346L66.5113 16.9902Z" fill="#848484"/>
<path d="M72.5149 19.2731C72.5149 19.579 72.2727 19.806 71.7853 19.7619C72.0715 19.065 71.4991 18.4911 70.8198 18.4911C70.0996 18.4911 69.5525 19.0303 69.3355 19.6831C68.9549 20.8497 69.5367 22.4106 70.9267 22.4358C71.5085 22.4453 72.1438 22.1835 72.4394 21.6507L72.5181 21.7043C72.1281 22.42 71.4331 22.707 70.7381 22.707C69.6342 22.707 68.5146 21.8871 68.5146 20.5281C68.5146 19.2731 69.5147 18.3492 70.7381 18.3492C71.1469 18.3492 71.5809 18.4375 71.8922 18.5668C72.1879 18.6961 72.5181 18.9673 72.5181 19.2731H72.5149Z" fill="#848484"/>
<path d="M77.1568 20.5281C77.1568 21.7295 76.2259 22.707 75.0812 22.707C73.9365 22.707 73.0118 21.7326 73.0118 20.5281C73.0118 19.3236 73.9427 18.3492 75.0812 18.3492C76.2196 18.3492 77.1568 19.3236 77.1568 20.5281ZM73.732 20.5281C73.732 21.6601 74.339 22.5745 75.078 22.5745C75.8171 22.5745 76.4335 21.6601 76.4335 20.5281C76.4335 19.3961 75.8265 18.4911 75.078 18.4911C74.3296 18.4911 73.732 19.4056 73.732 20.5281Z" fill="#848484"/>
<path d="M78.7449 18.3492V18.7245C79.4934 18.3745 80.6224 18.3492 81.2829 18.3492V19.0808C80.7608 18.8979 79.484 18.488 78.7449 18.8884V22.7038H78.0248V18.3492H78.7449Z" fill="#848484"/>
</svg>
