<svg width="87" height="26" viewBox="0 0 87 26" fill="none" xmlns="http://www.w3.org/2000/svg">
<path d="M22.8789 7.84948C22.187 7.18415 21.838 6.15936 21.838 4.77195C21.838 3.38453 22.187 2.35974 22.8852 1.69441C23.5834 1.02909 24.6306 0.697998 26.0269 0.697998H27.2849C28.1403 0.697998 28.895 0.918723 29.5523 1.36017C30.2096 1.80162 30.5367 2.40704 30.5367 3.17327C30.5367 3.39399 30.4706 3.55165 30.3354 3.6494C30.2002 3.744 30.0681 3.7913 29.9423 3.7913H29.2536C28.8982 3.7913 28.6214 3.58634 28.4264 3.17327C28.1497 2.58047 27.6906 2.28406 27.049 2.28406H26.0521C25.2344 2.28406 24.6778 2.46064 24.3884 2.81065C24.096 3.16381 23.9513 3.81337 23.9513 4.76249C23.9513 5.71161 24.096 6.36432 24.3884 6.71748C24.6809 7.07064 25.2344 7.24722 26.0521 7.24722H27.1685C27.8101 7.24722 28.2692 6.95082 28.5428 6.36117C28.7346 5.9481 29.002 5.74314 29.351 5.74314H30.0178C30.0838 5.74314 30.1561 5.75575 30.2347 5.78413C30.3102 5.81251 30.3888 5.87557 30.4706 5.97963C30.5524 6.08053 30.5901 6.20981 30.5901 6.36117C30.5901 7.13055 30.2662 7.73597 29.6152 8.17742C28.9642 8.61887 28.2157 8.83959 27.3698 8.83959H26.0018C24.6149 8.83959 23.5771 8.5085 22.882 7.84318L22.8789 7.84948Z" fill="#848484"/>
<path d="M32.3606 7.97246C31.5933 7.30083 31.2128 6.23819 31.2128 4.77826C31.2128 3.31832 31.5964 2.25569 32.3606 1.58405C33.1248 0.912419 34.2476 0.578178 35.7257 0.578178C37.2037 0.578178 38.3233 0.912419 39.0875 1.58405C39.8517 2.25569 40.2323 3.31832 40.2323 4.77826C40.2323 6.23819 39.8517 7.30083 39.0875 7.97246C38.3233 8.64409 37.2037 8.97833 35.7257 8.97833C34.2476 8.97833 33.128 8.64409 32.3606 7.97246ZM33.8953 2.76966C33.5148 3.22057 33.3261 3.88905 33.3261 4.78141C33.3261 5.67377 33.5148 6.34225 33.8953 6.79001C34.2759 7.23776 34.886 7.46164 35.7288 7.46164C36.5716 7.46164 37.1817 7.23776 37.5591 6.79001C37.9365 6.34225 38.1252 5.67377 38.1252 4.78141C38.1252 3.88905 37.9365 3.22057 37.5591 2.76966C37.1817 2.31875 36.5716 2.09487 35.7288 2.09487C34.886 2.09487 34.2759 2.31875 33.8953 2.76966Z" fill="#848484"/>
<path d="M41.377 8.27517V1.28135C41.377 1.1363 41.4273 1.01017 41.5311 0.906114C41.6318 0.802058 41.7575 0.748454 41.9054 0.748454H43.569C43.7011 0.748454 43.8394 0.802058 43.9873 0.906114C44.1351 1.01017 44.2546 1.1363 44.3489 1.28135L47.7674 6.49991V1.26873C47.7674 1.12369 47.8177 0.997557 47.9152 0.896654C48.0127 0.795752 48.1322 0.7453 48.2737 0.7453H49.2014C49.343 0.7453 49.4593 0.795752 49.56 0.896654C49.6575 0.997557 49.7078 1.12369 49.7078 1.27819V8.27202C49.7078 8.41707 49.6575 8.54319 49.5568 8.6441C49.4562 8.74815 49.3335 8.7986 49.1889 8.7986H47.3523C47.2076 8.7986 47.0598 8.74815 46.9088 8.6441C46.7579 8.54004 46.6384 8.41707 46.5503 8.27202L43.4935 3.45076V8.27202C43.4935 8.41707 43.44 8.54319 43.3331 8.6441C43.2262 8.74815 43.0973 8.7986 42.9494 8.7986H41.9305C41.7796 8.7986 41.6506 8.74815 41.5437 8.6441C41.4368 8.54004 41.3802 8.41707 41.3802 8.27202L41.377 8.27517Z" fill="#848484"/>
<path d="M50.6324 1.80793V1.28134C50.6324 1.12684 50.6827 1.00071 50.7833 0.899805C50.884 0.798902 51.0098 0.748451 51.1639 0.748451H58.2744C58.4285 0.748451 58.5543 0.798902 58.6549 0.899805C58.7556 1.00071 58.8059 1.12684 58.8059 1.28134V1.80793C58.8059 1.96244 58.7556 2.08857 58.6549 2.18632C58.5543 2.28407 58.4285 2.33452 58.2744 2.33452H55.7742V8.28463C55.7742 8.42968 55.7239 8.55265 55.6201 8.65355C55.5164 8.7513 55.3937 8.80175 55.249 8.80175H54.1892C54.0446 8.80175 53.9188 8.7513 53.8181 8.65355C53.7144 8.5558 53.664 8.43283 53.664 8.28463V2.33452H51.1639C51.0098 2.33452 50.884 2.28407 50.7833 2.18632C50.6827 2.08857 50.6324 1.95928 50.6324 1.80793Z" fill="#848484"/>
<path d="M59.721 8.26256V1.26873C59.721 1.12369 59.7745 0.997557 59.8783 0.896654C59.982 0.795752 60.1078 0.7453 60.2525 0.7453H66.712C66.8567 0.7453 66.9825 0.798905 67.0831 0.902961C67.1869 1.00702 67.2372 1.13315 67.2372 1.27819V1.80478C67.2372 1.94983 67.1869 2.07596 67.0831 2.17686C66.9794 2.28091 66.8567 2.33137 66.712 2.33137H61.8312V3.96158H66.0328C66.1774 3.96158 66.3032 4.01203 66.4039 4.11608C66.5076 4.22014 66.558 4.34312 66.558 4.49132V5.02106C66.558 5.16926 66.5076 5.29223 66.4039 5.39629C66.3001 5.50034 66.1774 5.5508 66.0328 5.5508H61.8312V7.20938H66.6995C66.8441 7.20938 66.9668 7.25984 67.0674 7.36074C67.1649 7.46164 67.2152 7.58462 67.2152 7.73282V8.27202C67.2152 8.41707 67.1618 8.54319 67.058 8.6441C66.9542 8.74815 66.8284 8.7986 66.6837 8.7986H60.2525C60.1078 8.7986 59.982 8.74815 59.8783 8.6441C59.7745 8.54004 59.721 8.41391 59.721 8.25941V8.26256Z" fill="#848484"/>
<path d="M68.2656 8.26256V1.29081C68.2656 1.1363 68.3159 1.00702 68.4166 0.902961C68.5172 0.798905 68.643 0.7453 68.7908 0.7453H71.0897C71.2375 0.7453 71.3759 0.798905 71.508 0.902961C71.6401 1.00702 71.7281 1.13315 71.7722 1.27819L73.4389 6.07738L75.1057 1.27819C75.1497 1.13315 75.2409 1.00702 75.373 0.902961C75.5051 0.798905 75.6435 0.7453 75.7913 0.7453H78.0933C78.2411 0.7453 78.3638 0.798905 78.4644 0.902961C78.5651 1.00702 78.6154 1.1363 78.6154 1.29081V8.26256C78.6154 8.41707 78.5619 8.54319 78.4581 8.64725C78.3544 8.75131 78.2254 8.80176 78.0776 8.80176H77.0429C76.8951 8.80176 76.7662 8.75131 76.6624 8.64725C76.5586 8.54319 76.5052 8.41707 76.5052 8.26256V2.77282L74.5302 8.29409C74.4767 8.43283 74.3855 8.55265 74.2566 8.6504C74.1245 8.74815 73.9893 8.7986 73.8415 8.7986H73.0395C72.8949 8.7986 72.7565 8.74815 72.6276 8.6504C72.4986 8.55265 72.4074 8.43283 72.3508 8.29409L70.379 2.77282V8.26256C70.379 8.41707 70.3255 8.54319 70.2217 8.64725C70.118 8.75131 69.989 8.80176 69.8412 8.80176H68.8097C68.6619 8.80176 68.5329 8.75131 68.426 8.64725C68.3191 8.54319 68.2656 8.41707 68.2656 8.26256Z" fill="#848484"/>
<path d="M22.2971 19.6141V12.6203C22.2971 12.4752 22.3474 12.3491 22.4481 12.245C22.5487 12.141 22.6714 12.0874 22.8192 12.0874H27.093C29.3479 12.0874 30.4769 13.1311 30.4801 15.2185C30.4801 17.306 29.3542 18.3497 27.093 18.3497H24.4105V19.6141C24.4105 19.7592 24.3602 19.8853 24.2564 19.9862C24.1526 20.0902 24.0299 20.1407 23.8853 20.1407H22.8317C22.6871 20.1407 22.5613 20.0902 22.4575 19.9862C22.3537 19.8821 22.3003 19.7592 22.3003 19.6141H22.2971ZM24.4105 16.7604H26.4546C27.0836 16.7604 27.5585 16.6532 27.8824 16.442C28.2063 16.2307 28.3699 15.8208 28.3699 15.2185C28.3699 14.6163 28.2063 14.2063 27.8824 13.9951C27.5585 13.7838 27.0805 13.6766 26.4546 13.6766H24.4105V16.7604Z" fill="#848484"/>
<path d="M32.2003 19.3083C31.433 18.6366 31.0524 17.574 31.0524 16.1141C31.0524 14.6541 31.4361 13.5915 32.2003 12.9199C32.9645 12.2482 34.0872 11.914 35.5653 11.914C37.0434 11.914 38.163 12.2482 38.9272 12.9199C39.6914 13.5915 40.0719 14.6541 40.0719 16.1141C40.0719 17.574 39.6914 18.6366 38.9272 19.3083C38.163 19.9799 37.0434 20.3141 35.5653 20.3141C34.0872 20.3141 32.9677 19.9799 32.2003 19.3083ZM33.7319 14.1086C33.3513 14.5595 33.1626 15.228 33.1626 16.1204C33.1626 17.0127 33.3513 17.6812 33.7319 18.129C34.1124 18.5767 34.7225 18.8006 35.5653 18.8006C36.4081 18.8006 37.0182 18.5767 37.3956 18.129C37.773 17.6812 37.9617 17.0127 37.9617 16.1204C37.9617 15.228 37.773 14.5595 37.3956 14.1086C37.0182 13.6577 36.4081 13.4338 35.5653 13.4338C34.7225 13.4338 34.1124 13.6577 33.7319 14.1086Z" fill="#848484"/>
<path d="M41.2135 19.6141V12.6203C41.2135 12.4752 41.2638 12.3491 41.3644 12.245C41.4651 12.141 41.5877 12.0874 41.7355 12.0874H46.3585C47.2139 12.0874 47.9152 12.3176 48.4624 12.7779C49.0096 13.2383 49.2832 13.8595 49.2832 14.6446C49.2832 15.7357 48.5788 16.4167 47.1699 16.6942C47.39 16.7794 47.5976 16.9213 47.7894 17.1199C47.9812 17.3186 48.2014 17.6087 48.4467 17.9902L49.4656 19.6141C49.5285 19.7213 49.56 19.8159 49.56 19.8947C49.56 19.9294 49.5537 19.961 49.5442 19.9893C49.5065 20.0902 49.4153 20.1407 49.2706 20.1407H47.9246C47.78 20.1407 47.6227 20.0902 47.4529 19.9862C47.2862 19.8821 47.1573 19.7592 47.0661 19.6141L46.1132 18.1195C45.7232 17.5046 45.2515 17.1987 44.6885 17.1987H43.3205V19.6141C43.3205 19.7592 43.2702 19.8853 43.1664 19.9862C43.0627 20.0902 42.94 20.1407 42.7953 20.1407H41.7418C41.5971 20.1407 41.4714 20.0902 41.3676 19.9862C41.2638 19.8821 41.2103 19.7592 41.2103 19.6141H41.2135ZM43.3268 15.6064H45.7138C46.0943 15.6064 46.434 15.5307 46.7264 15.3762C47.022 15.2217 47.1699 14.9789 47.1699 14.6415C47.1699 14.3041 47.022 14.0581 46.7296 13.9068C46.4371 13.7523 46.0975 13.6766 45.7138 13.6766H43.3268V15.6095V15.6064Z" fill="#848484"/>
<path d="M49.821 19.6236L51.2267 14.2757C51.6073 12.8189 52.8495 12.0874 54.9471 12.0842H57.9662C58.1045 12.0842 58.2178 12.1378 58.3121 12.2419C58.4033 12.346 58.4505 12.4689 58.4505 12.6077V19.6236C58.4505 19.7686 58.397 19.8916 58.2932 19.9925C58.1895 20.0902 58.0637 20.1407 57.919 20.1407H56.8655C56.7114 20.1407 56.5856 20.0902 56.4881 19.9925C56.3906 19.8947 56.3403 19.7655 56.3403 19.6141V18.1983H52.3715L51.9941 19.6173C51.9563 19.7686 51.8714 19.8948 51.7393 19.9957C51.6072 20.0934 51.4689 20.1439 51.3211 20.1439H50.2109C50.0631 20.1439 49.953 20.0934 49.8776 19.9925C49.8241 19.9263 49.799 19.8475 49.799 19.7623C49.8021 19.7213 49.8115 19.6772 49.821 19.6267V19.6236ZM52.7929 16.6091H56.3371V13.6766H54.7458C54.3873 13.6766 54.076 13.7775 53.8118 13.9825C53.5445 14.1874 53.3652 14.4618 53.274 14.8086L52.7929 16.6091ZM53.2615 11.3149C53.2394 11.2739 53.2269 11.2329 53.2269 11.1919C53.2269 11.1194 53.2615 11.0563 53.3275 10.9964L54.2018 10.186C54.5446 9.85492 54.8213 9.69096 55.0257 9.69096H55.7144C55.9189 9.69096 56.1956 9.85492 56.5447 10.186L57.4253 10.9964C57.4913 11.0594 57.529 11.1257 57.5322 11.1919C57.5322 11.2329 57.5196 11.2739 57.4976 11.3149C57.4378 11.4315 57.3372 11.4883 57.1957 11.4883H56.3843C56.1705 11.4883 55.9 11.3306 55.5729 11.0153L55.3779 10.8419L55.1924 11.0153C54.8622 11.3306 54.5917 11.4883 54.381 11.4883H53.5634C53.425 11.4883 53.3275 11.4315 53.2677 11.3149H53.2615Z" fill="#848484"/>
<path d="M60.0513 19.6141V12.6203C60.0513 12.4752 60.1016 12.3491 60.2054 12.2451C60.306 12.141 60.4318 12.0874 60.5796 12.0874H62.2432C62.3753 12.0874 62.5137 12.141 62.6615 12.2451C62.8093 12.3491 62.9288 12.4752 63.0232 12.6203L66.4416 17.8389V12.6077C66.4416 12.4626 66.492 12.3365 66.5894 12.2356C66.6869 12.1347 66.8064 12.0842 66.948 12.0842H67.8757C68.0172 12.0842 68.1336 12.1347 68.2342 12.2356C68.3349 12.3365 68.382 12.4626 68.382 12.6171V19.611C68.382 19.756 68.3317 19.8821 68.2311 19.983C68.1304 20.0871 68.0078 20.1375 67.8631 20.1375H66.0265C65.8819 20.1375 65.734 20.0871 65.5831 19.983C65.4321 19.879 65.3126 19.756 65.2246 19.611L62.1678 14.7897V19.611C62.1678 19.756 62.1143 19.8821 62.0074 19.983C61.9005 20.0871 61.7715 20.1375 61.6237 20.1375H60.6048C60.4538 20.1375 60.3249 20.0871 60.2179 19.983C60.111 19.879 60.0544 19.756 60.0544 19.611L60.0513 19.6141Z" fill="#848484"/>
<path d="M69.9985 19.6015V12.6077C69.9985 12.4626 70.0519 12.3365 70.1557 12.2356C70.2595 12.1347 70.3853 12.0842 70.53 12.0842H76.9895C77.1342 12.0842 77.26 12.1378 77.3606 12.2419C77.4644 12.346 77.5147 12.4721 77.5147 12.6171V13.1437C77.5147 13.2888 77.4644 13.4149 77.3606 13.5158C77.2568 13.6199 77.1342 13.6703 76.9895 13.6703H72.1087V15.3005H76.3102C76.4549 15.3005 76.5807 15.351 76.6813 15.455C76.7851 15.5591 76.8354 15.6821 76.8354 15.8303V16.36C76.8354 16.5082 76.7851 16.6312 76.6813 16.7352C76.5775 16.8393 76.4549 16.8897 76.3102 16.8897H72.1087V18.5483H76.9769C77.1216 18.5483 77.2442 18.5988 77.3449 18.6997C77.4424 18.8006 77.4927 18.9236 77.4927 19.0718V19.611C77.4927 19.756 77.4392 19.8821 77.3355 19.983C77.2317 20.0871 77.1059 20.1375 76.9612 20.1375H70.53C70.3853 20.1375 70.2595 20.0871 70.1557 19.983C70.0519 19.879 69.9985 19.7529 69.9985 19.5983V19.6015Z" fill="#848484"/>
<path d="M77.8826 19.6236L79.2884 14.2757C79.6689 12.8189 80.9111 12.0874 83.0087 12.0842H86.0278C86.1662 12.0842 86.2794 12.1378 86.3738 12.2419C86.465 12.346 86.5121 12.4689 86.5121 12.6077V19.6236C86.5121 19.7686 86.4587 19.8916 86.3549 19.9925C86.2511 20.0903 86.1253 20.1407 85.9806 20.1407H84.9271C84.773 20.1407 84.6472 20.0903 84.5497 19.9925C84.4522 19.8948 84.4019 19.7655 84.4019 19.6141V18.1983H80.4331L80.0557 19.6173C80.018 19.7686 79.9331 19.8948 79.801 19.9957C79.6689 20.0934 79.5305 20.1439 79.3827 20.1439H78.2726C78.1248 20.1439 78.0147 20.0934 77.9392 19.9925C77.8858 19.9263 77.8606 19.8475 77.8606 19.7623C77.8637 19.7213 77.8732 19.6772 77.8826 19.6267V19.6236ZM80.8545 16.6091H84.3988V13.6766H82.8075C82.449 13.6766 82.1376 13.7775 81.8735 13.9825C81.6061 14.1874 81.4269 14.4618 81.3357 14.8086L80.8545 16.6091Z" fill="#848484"/>
<path d="M21.6052 25.2174C21.6052 25.148 21.6272 25.0975 21.6681 25.0692C21.709 25.0376 21.7499 25.025 21.7876 25.025H21.9983C22.1053 25.025 22.1839 25.0818 22.2373 25.1921C22.2939 25.312 22.4197 25.3719 22.6116 25.3719L23.228 25.3845C23.4355 25.3845 23.5393 25.3183 23.5393 25.1827C23.5393 25.1228 23.5047 25.0723 23.4355 25.0313C23.3664 24.9872 23.2751 24.9525 23.1619 24.9273C23.0487 24.8989 22.9229 24.8705 22.7877 24.8358C22.6525 24.8011 22.5141 24.7696 22.3757 24.7349C22.2373 24.7002 22.1147 24.6592 22.0046 24.6056C21.8946 24.552 21.8034 24.4795 21.7373 24.3881C21.6681 24.2966 21.6335 24.1863 21.6335 24.0633C21.6335 23.8268 21.7184 23.6439 21.8851 23.5178C22.0518 23.3917 22.3411 23.3254 22.75 23.3254L23.1965 23.3349C23.4355 23.3349 23.6525 23.398 23.8475 23.5209C24.0394 23.6439 24.1368 23.8016 24.1368 23.9845C24.1368 24.0538 24.1148 24.1043 24.0739 24.1358C24.0331 24.1673 23.9922 24.1831 23.9544 24.1831H23.7437C23.6368 24.1831 23.5582 24.1264 23.5047 24.016C23.4481 23.8962 23.3223 23.8363 23.1305 23.8363L22.6021 23.8268C22.3946 23.8268 22.2908 23.893 22.2908 24.0286C22.2908 24.1011 22.3568 24.1579 22.4921 24.1926C22.6273 24.2273 22.7846 24.2714 22.967 24.3187C23.1494 24.366 23.3349 24.4165 23.5236 24.4637C23.7123 24.511 23.8727 24.5962 24.0016 24.7129C24.1337 24.8295 24.1966 24.9746 24.1966 25.148C24.1966 25.3845 24.1117 25.5674 23.945 25.6935C23.7752 25.8196 23.489 25.8858 23.0802 25.8858L22.5455 25.8764C22.3065 25.8764 22.0864 25.8133 21.8946 25.6903C21.6996 25.5674 21.6052 25.4097 21.6052 25.2268V25.2174Z" fill="#848484"/>
<path d="M24.5551 25.6967V23.4989C24.5551 23.4516 24.5709 23.4137 24.6055 23.3822C24.6369 23.3507 24.6778 23.3349 24.725 23.3349H26.7534C26.8006 23.3349 26.8383 23.3507 26.8698 23.3854C26.9012 23.4201 26.9169 23.4579 26.9169 23.5052V23.6723C26.9169 23.7196 26.9012 23.7574 26.8698 23.789C26.8383 23.8205 26.7974 23.8363 26.7534 23.8363H25.2187V24.3471H26.5396C26.5867 24.3471 26.6245 24.3629 26.6559 24.3944C26.6874 24.4259 26.7031 24.4669 26.7031 24.5111V24.6782C26.7031 24.7255 26.6874 24.7633 26.6559 24.7949C26.6245 24.8264 26.5836 24.8422 26.5396 24.8422H25.2187V25.3624H26.7471C26.7943 25.3624 26.832 25.3782 26.8635 25.4097C26.8949 25.4413 26.9107 25.4791 26.9107 25.5264V25.6967C26.9107 25.744 26.8949 25.7818 26.8603 25.8133C26.8289 25.8449 26.788 25.8606 26.744 25.8606H24.7218C24.6747 25.8606 24.6369 25.8449 24.6023 25.8133C24.5709 25.7818 24.552 25.7408 24.552 25.6935L24.5551 25.6967Z" fill="#848484"/>
<path d="M27.0962 24.6025C27.0962 24.1642 27.2063 23.8426 27.4233 23.6345C27.6403 23.4263 27.9673 23.3223 28.4013 23.3223H28.7944C29.0523 23.3223 29.2882 23.3853 29.4957 23.5083C29.7033 23.6313 29.8071 23.789 29.8071 23.9718C29.8071 24.0412 29.7851 24.0917 29.7442 24.12C29.7033 24.1516 29.6624 24.1642 29.6247 24.1642H29.414C29.3133 24.1642 29.2347 24.1074 29.175 23.9971C29.1121 23.8772 28.9642 23.8173 28.7284 23.8173H28.4139C28.156 23.8173 27.983 23.8741 27.8918 23.9845C27.8006 24.0948 27.7535 24.2998 27.7535 24.5993C27.7535 24.8989 27.7944 25.0944 27.8761 25.2079C27.9579 25.3214 28.1057 25.3782 28.3164 25.3782H28.6781C28.8668 25.3782 29.002 25.3435 29.0838 25.271C29.1655 25.2016 29.2064 25.0975 29.2064 24.9651H28.8101C28.763 24.9651 28.7252 24.9493 28.6938 24.9147C28.6623 24.8831 28.6466 24.8421 28.6466 24.7948V24.6561C28.6466 24.6088 28.6623 24.571 28.6938 24.5363C28.7252 24.5047 28.7661 24.4858 28.8101 24.4858H29.6939C29.741 24.4858 29.7788 24.5016 29.8102 24.5331C29.8417 24.5646 29.8574 24.6056 29.8574 24.6498V24.8453C29.8574 25.1764 29.7599 25.4286 29.5618 25.6052C29.3636 25.7818 29.0743 25.8701 28.6938 25.8701H28.2975C27.9076 25.8701 27.6088 25.766 27.4012 25.5548C27.1937 25.3435 27.0899 25.025 27.0899 24.593L27.0962 24.6025Z" fill="#848484"/>
<path d="M30.1876 24.8642V23.502C30.1876 23.4547 30.2033 23.4169 30.2348 23.3822C30.2662 23.3475 30.3071 23.3318 30.3543 23.3318H30.6845C30.7317 23.3318 30.7694 23.3475 30.8009 23.3822C30.8323 23.4137 30.848 23.4547 30.848 23.4989V24.8642C30.848 25.0376 30.8858 25.1669 30.9613 25.2489C31.0367 25.334 31.1531 25.375 31.3135 25.375H31.5965C31.7538 25.375 31.8733 25.334 31.9487 25.2489C32.0242 25.1638 32.062 25.0345 32.062 24.8642V23.4989C32.062 23.4516 32.0777 23.4137 32.1091 23.3822C32.1406 23.3507 32.1815 23.3318 32.2255 23.3318H32.5526C32.5997 23.3318 32.6406 23.3475 32.6752 23.3822C32.7067 23.4137 32.7255 23.4547 32.7255 23.502V24.8642C32.7255 25.1858 32.6312 25.435 32.4425 25.6147C32.2538 25.7913 31.9771 25.8796 31.6154 25.8796H31.2978C30.9361 25.8796 30.6594 25.7913 30.4707 25.6147C30.282 25.4381 30.1876 25.189 30.1876 24.8642Z" fill="#848484"/>
<path d="M33.1941 25.6998V23.502C33.1941 23.4547 33.2098 23.4169 33.2413 23.3822C33.2727 23.3507 33.3105 23.3318 33.3576 23.3318H34.8106C35.0779 23.3318 35.298 23.4043 35.471 23.5493C35.6439 23.6944 35.7289 23.8899 35.7289 24.1358C35.7289 24.4795 35.5087 24.6939 35.0653 24.7791C35.1345 24.8075 35.2005 24.8516 35.2603 24.9147C35.32 24.9777 35.3892 25.0692 35.4678 25.189L35.7886 25.6998C35.8075 25.7345 35.8201 25.7629 35.8201 25.7881C35.8201 25.7976 35.8201 25.8102 35.8138 25.8196C35.8012 25.8512 35.7729 25.8669 35.7289 25.8669H35.3074C35.2603 25.8669 35.2131 25.8512 35.1596 25.8196C35.1062 25.7881 35.0653 25.7471 35.037 25.703L34.7382 25.2331C34.6156 25.0408 34.4678 24.943 34.2916 24.943H33.8608V25.703C33.8608 25.7503 33.8451 25.7881 33.8136 25.8196C33.7822 25.8512 33.7413 25.8669 33.6973 25.8669H33.3671C33.3199 25.8669 33.2821 25.8512 33.2476 25.8196C33.2161 25.7881 33.1972 25.7471 33.1972 25.703L33.1941 25.6998ZM33.8577 24.4417H34.6061C34.7256 24.4417 34.8326 24.4165 34.9238 24.3692C35.015 24.3219 35.0621 24.243 35.0621 24.139C35.0621 24.0349 35.015 23.9561 34.9238 23.9088C34.8326 23.8615 34.7256 23.8363 34.603 23.8363H33.8545V24.4448L33.8577 24.4417Z" fill="#848484"/>
<path d="M36.3201 25.6052C36.0811 25.3939 35.9584 25.0597 35.9584 24.6025C35.9584 24.1453 36.0779 23.811 36.3201 23.5998C36.5591 23.3885 36.9145 23.2844 37.3768 23.2844C37.8391 23.2844 38.1944 23.3885 38.4334 23.5998C38.6725 23.811 38.792 24.1453 38.792 24.6025C38.792 25.0597 38.6725 25.3939 38.4334 25.6052C38.1944 25.8165 37.8422 25.9205 37.3768 25.9205C36.9113 25.9205 36.5591 25.8165 36.3201 25.6052ZM36.8013 23.9687C36.6818 24.1106 36.622 24.3218 36.622 24.5993C36.622 24.8768 36.6818 25.0881 36.8013 25.23C36.9208 25.3719 37.1126 25.4412 37.3768 25.4412C37.6409 25.4412 37.8328 25.3719 37.9523 25.23C38.0718 25.0881 38.1315 24.88 38.1315 24.5993C38.1315 24.3187 38.0718 24.1106 37.9523 23.9687C37.8328 23.8268 37.6409 23.7574 37.3768 23.7574C37.1126 23.7574 36.9208 23.8268 36.8013 23.9687Z" fill="#848484"/>
<path d="M39.0089 25.2174C39.0089 25.148 39.0309 25.0975 39.0718 25.0692C39.1127 25.0376 39.1536 25.025 39.1913 25.025H39.402C39.5089 25.025 39.5876 25.0818 39.641 25.1921C39.6976 25.312 39.8234 25.3719 40.0153 25.3719L40.6317 25.3845C40.8392 25.3845 40.943 25.3183 40.943 25.1827C40.943 25.1228 40.9084 25.0723 40.8392 25.0313C40.77 24.9872 40.6788 24.9525 40.5656 24.9273C40.4524 24.8989 40.3266 24.8705 40.1914 24.8358C40.0562 24.8011 39.9178 24.7696 39.7794 24.7349C39.641 24.7002 39.5184 24.6592 39.4083 24.6056C39.2982 24.552 39.207 24.4795 39.141 24.3881C39.0718 24.2966 39.0372 24.1863 39.0372 24.0633C39.0372 23.8268 39.1221 23.6439 39.2888 23.5178C39.4555 23.3917 39.7448 23.3254 40.1536 23.3254L40.6002 23.3349C40.8392 23.3349 41.0562 23.398 41.2512 23.5209C41.443 23.6439 41.5405 23.8016 41.5405 23.9845C41.5405 24.0538 41.5185 24.1043 41.4776 24.1358C41.4368 24.1673 41.3959 24.1831 41.3581 24.1831H41.1474C41.0405 24.1831 40.9619 24.1264 40.9084 24.016C40.8518 23.8962 40.726 23.8363 40.5342 23.8363L40.0058 23.8268C39.7983 23.8268 39.6945 23.893 39.6945 24.0286C39.6945 24.1011 39.7605 24.1579 39.8958 24.1926C40.031 24.2273 40.1882 24.2714 40.3706 24.3187C40.553 24.366 40.7386 24.4165 40.9273 24.4637C41.116 24.511 41.2764 24.5962 41.4053 24.7129C41.5374 24.8295 41.6003 24.9746 41.6003 25.148C41.6003 25.3845 41.5154 25.5674 41.3487 25.6935C41.1789 25.8196 40.8927 25.8858 40.4839 25.8858L39.9492 25.8764C39.7102 25.8764 39.4901 25.8133 39.2982 25.6903C39.1033 25.5674 39.0089 25.4097 39.0089 25.2268V25.2174Z" fill="#848484"/>
<path d="M13.1519 18.7091C13.3343 18.892 13.4129 19.1285 13.4129 19.365C13.4129 19.6267 13.3343 19.8632 13.1519 20.0461L8.26473 24.9178C8.08232 25.1007 7.84646 25.2048 7.6106 25.2048C7.34957 25.2048 7.11371 25.1007 6.9313 24.9178L3.22036 21.197H6.45957L8.75847 23.4768L9.22706 23.0038L6.74576 20.5159H1.57245C1.93725 20.8817 6.45957 25.416 6.45957 25.416C6.77406 25.7313 7.19233 25.889 7.6106 25.889C8.0037 25.889 8.41883 25.7313 8.73331 25.416C8.75847 25.416 13.2525 20.8849 13.6204 20.5159C13.9349 20.2006 14.089 19.8096 14.089 19.365C14.089 18.9456 13.9066 18.5263 13.6204 18.2393L10.6674 15.2532L10.1705 15.7262C11.1643 16.7226 12.1549 17.7159 13.1487 18.7123L13.1519 18.7091ZM6.46272 13.3392C4.84311 14.9631 3.2235 16.6154 1.57559 18.2393H6.7489C8.21126 16.7731 9.67363 15.2784 11.1391 13.8122C11.3215 13.6293 11.5574 13.5505 11.7933 13.5505C12.0543 13.5505 12.2902 13.6293 12.4726 13.8122C14.0922 15.4613 15.7118 17.0852 17.3314 18.7123C17.5138 18.8952 17.6176 19.1317 17.6176 19.3682C17.6176 19.6299 17.5138 19.8664 17.3314 20.0493C15.3973 21.9885 13.4632 23.9277 11.5322 25.8922C12.2902 25.8922 12.3939 25.9458 12.9443 25.4192C14.5639 23.7953 16.1835 22.1461 17.8314 20.5191C18.1176 20.2321 18.2748 19.838 18.3 19.4186C18.3 18.974 18.1428 18.5546 17.8314 18.2393L12.9443 13.3392C12.6298 13.0239 12.2115 12.8694 11.7933 12.8694C11.4033 12.8694 10.985 13.0271 10.6706 13.3392C9.25851 14.755 7.87476 16.1424 6.46586 17.5582H3.22665C4.76763 15.9848 6.33692 14.4397 7.90307 12.8694C7.12 12.8694 7.01621 12.7906 6.46586 13.3392H6.46272Z" fill="#848484"/>
<path d="M5.14815 7.76155C4.96575 7.57866 4.88712 7.34217 4.88712 7.10568C4.88712 6.84397 4.96575 6.60747 5.14815 6.42459L10.0353 1.55288C10.2177 1.36999 10.4535 1.26593 10.6894 1.26593C10.9504 1.26593 11.1863 1.36999 11.3687 1.55288L15.0796 5.27367H11.8404L9.54153 2.99389L9.0698 3.46688L11.5511 5.95476H16.7244C16.3596 5.58899 11.8373 1.05782 11.8373 1.05782C11.5228 0.7425 11.1077 0.587993 10.6894 0.587993C10.2963 0.587993 9.87803 0.745653 9.56669 1.05782C9.54153 1.05782 5.04751 5.58899 4.67956 5.95476C4.36508 6.27008 4.20783 6.66108 4.20783 7.10883C4.20783 7.52821 4.39024 7.94759 4.67956 8.23453L7.63259 11.2206L8.12948 10.7476C7.1357 9.75123 6.14507 8.75796 5.15129 7.76155H5.14815ZM11.8373 13.1315C13.4569 11.5076 15.0765 9.85844 16.7244 8.23453H11.5511C10.0887 9.70078 8.62323 11.1954 7.16086 12.6616C6.97846 12.8445 6.7426 12.9234 6.50673 12.9234C6.24571 12.9234 6.00984 12.8445 5.82744 12.6616C4.20783 11.0125 2.58823 9.38861 0.968619 7.7647C0.786217 7.58182 0.682436 7.34533 0.682436 7.10883C0.682436 6.84712 0.786217 6.61063 0.968619 6.42774C2.90271 4.48852 4.83681 2.54929 6.76776 0.584839C6.00984 0.584839 5.90606 0.531235 5.35571 1.05467C3.7361 2.67857 2.1165 4.3277 0.468586 5.95161C0.182403 6.23855 0.0251589 6.6327 0 7.05208C0 7.49668 0.157244 7.91606 0.468586 8.23138L5.35571 13.1283C5.6702 13.4436 6.08846 13.5981 6.50673 13.5981C6.89669 13.5981 7.31496 13.4405 7.62945 13.1283C9.04149 11.7125 10.4252 10.3251 11.8341 8.90932H15.0733C13.5324 10.4828 11.9631 12.0278 10.3969 13.5981C11.18 13.5981 11.2838 13.677 11.8341 13.1283L11.8373 13.1315Z" fill="#848484"/>
</svg>
