<svg width="80" height="26" viewBox="0 0 80 26" fill="none" xmlns="http://www.w3.org/2000/svg">
<path d="M30.4244 10.3261C29.7168 10.0738 29.1003 9.52514 29.1003 8.51611C29.1003 7.39357 29.8771 6.81969 30.8143 6.81969C31.4527 6.81969 32.1383 7.09402 32.437 7.71205H38.1513C40.0256 7.71205 39.9564 8.9481 39.9564 9.22558C39.9564 10.922 37.3273 12.5018 37.3273 15.0212C37.3273 16.7618 38.5381 17.2663 39.5665 16.7397L40.5477 19.0321C39.9313 19.3064 39.2237 19.4231 38.6041 19.4231C36.2518 19.4231 34.629 17.7487 34.629 15.346C34.629 13.536 35.519 11.704 36.5946 10.3513H33.1667V19.174H30.4244V10.3292V10.3261Z" fill="#848484"/>
<path d="M46.466 7.59846C50.0165 7.59846 52.3721 9.96967 52.3626 13.5107C52.3532 16.7617 49.6801 19.4325 46.4377 19.423C42.9123 19.4104 40.5474 17.0297 40.5474 13.4887C40.5474 9.9476 42.9249 7.59846 46.466 7.59846ZM46.4408 16.9004C48.3592 16.9004 49.6172 15.6391 49.6172 13.5107C49.6172 11.3823 48.3592 10.121 46.4408 10.121C44.5225 10.121 43.2865 11.3823 43.2865 13.5107C43.2865 15.6391 44.5445 16.9004 46.4408 16.9004Z" fill="#848484"/>
<path d="M53.7025 14.9991V10.2788H52.7811C52.6459 10.2788 52.5389 10.1684 52.5389 10.036V8.00529C52.5389 7.8697 52.649 7.76249 52.7811 7.76249H53.7025V4.93091C53.7025 4.79532 53.8126 4.68811 53.9447 4.68811H56.1996C56.3348 4.68811 56.4417 4.79847 56.4417 4.93091V7.76249H59.4828V10.0391C59.4828 10.1747 59.3728 10.2819 59.2407 10.2819H56.4449V15.2987C56.4449 16.5127 57.0172 16.9037 57.838 16.9037C58.0802 16.9037 58.6463 16.8721 59.0834 16.7239C59.2249 16.6766 59.3759 16.7618 59.401 16.91L59.747 18.8334C59.7659 18.9438 59.7124 19.0541 59.6086 19.0983C59.1557 19.3001 58.4639 19.4231 57.6997 19.4231C54.3189 19.4231 53.6994 17.0645 53.6994 15.0023L53.7025 14.9991Z" fill="#848484"/>
<path d="M61.8195 14.9991V10.2788H60.898C60.7628 10.2788 60.6559 10.1684 60.6559 10.036V8.00529C60.6559 7.8697 60.7659 7.76249 60.898 7.76249H61.8195V4.93091C61.8195 4.79532 61.9295 4.68811 62.0616 4.68811H64.3165C64.4517 4.68811 64.5586 4.79847 64.5586 4.93091V7.76249H67.5997V10.0391C67.5997 10.1747 67.4897 10.2819 67.3576 10.2819H64.5618V15.2987C64.5618 16.5127 65.1342 16.9037 65.955 16.9037C66.1971 16.9037 66.7632 16.8721 67.2003 16.7239C67.3419 16.6766 67.4928 16.7618 67.518 16.91L67.8639 18.8334C67.8828 18.9438 67.8293 19.0541 67.7255 19.0983C67.2727 19.3001 66.5808 19.4231 65.8166 19.4231C62.4359 19.4231 61.8163 17.0645 61.8163 15.0023L61.8195 14.9991Z" fill="#848484"/>
<path d="M77.2576 18.3447C76.4588 19.01 75.3393 19.4231 73.943 19.4231C70.5622 19.4231 68.1847 17.0392 68.1847 13.4887C68.1847 9.93821 70.5622 7.59853 73.943 7.59853C75.3833 7.59853 76.4808 8.0116 77.2576 8.72107V7.75934H79.9999V19.215H77.2576V18.3447ZM74.0813 16.9005C75.9997 16.9005 77.2576 15.6392 77.2576 13.5108C77.2576 11.3824 75.9997 10.1211 74.0813 10.1211C72.163 10.1211 70.927 11.3824 70.927 13.5108C70.927 15.6392 72.185 16.9005 74.0813 16.9005Z" fill="#848484"/>
<path d="M20.9928 21.8321L20.4299 25.2534C19.9487 25.2534 19.4329 25.1777 18.8857 25.0326C18.3385 24.8844 17.7819 24.6164 17.2189 24.2286C16.656 23.8407 16.1151 23.2952 15.5931 22.5984C15.071 21.9015 14.5961 20.9871 14.1684 19.8614C13.9263 19.2717 13.7281 18.6726 13.5678 18.0703C13.4074 17.4681 13.2784 16.9037 13.1872 16.3802C13.0929 15.8568 13.0206 15.3933 12.9671 14.9928C12.9136 14.5892 12.8853 14.2833 12.8853 14.0658V13.1797L13.5678 12.5365C14.3697 11.8396 15.027 11.2026 15.5333 10.6256C16.0428 10.0486 16.4485 9.53144 16.7567 9.07738C17.0648 8.62017 17.2913 8.2134 17.4391 7.85078C17.5869 7.48816 17.6718 7.17284 17.7001 6.90482C17.7819 6.15435 17.4989 5.44173 16.8573 4.77325C16.4013 4.31603 15.7723 4.089 14.9704 4.089C14.0615 4.089 13.1967 4.3318 12.3822 4.81424C11.5645 5.29668 10.816 5.9021 10.1336 6.62418C9.45114 7.34627 8.84102 8.12827 8.30639 8.95756C7.77177 9.79001 7.32835 10.5689 6.98242 11.2909C7.67743 11.6409 8.38187 12.0761 9.08946 12.5995C9.79706 13.123 10.4418 13.7126 11.0173 14.3716C11.5928 15.0306 12.0865 15.7275 12.5016 16.4654C12.9168 17.2032 13.1904 17.9757 13.3256 18.7798C13.5112 20.0663 13.2722 21.2488 12.6023 22.3209C11.9324 23.393 10.8884 24.238 9.47002 24.8561C8.58631 25.2313 7.79694 25.4205 7.10192 25.4205C5.9226 25.4205 4.8942 25.0043 4.01049 24.1718C3.47587 23.6358 3.04818 22.9925 2.7274 22.2389C2.40662 21.4884 2.19276 20.6497 2.08584 19.7226C1.97891 18.7956 1.97264 17.8118 2.06699 16.7649C2.16133 15.718 2.35316 14.646 2.64878 13.5455C2.00723 13.4131 1.4443 13.3847 0.963135 13.4635V10.0423C1.90031 9.93506 2.9035 9.97605 3.97276 10.1621C4.48222 9.06162 5.11751 7.94853 5.87856 6.82284C6.64277 5.69714 7.51704 4.6692 8.50767 3.7453C9.4983 2.81826 10.5896 2.06779 11.7783 1.49075C12.9702 0.913717 14.2187 0.626778 15.5301 0.626778C17.1623 0.626778 18.4863 1.1376 19.5053 2.15608C20.7884 3.44259 21.3261 4.9719 21.1123 6.74401C20.8701 9.02378 19.3197 11.5211 16.4548 14.2297C16.5365 14.8194 16.6749 15.5509 16.8762 16.4244C17.0774 17.2978 17.3573 18.1334 17.719 18.9406C18.0807 19.7447 18.5272 20.4289 19.065 20.9934C19.5996 21.5578 20.2412 21.8384 20.9928 21.8384V21.8321ZM6.46036 15.3113C6.35343 15.2293 6.2465 15.1505 6.13957 15.0685C6.03265 14.9865 5.91318 14.9077 5.77795 14.8257C5.45717 16.3834 5.39112 17.7519 5.57667 18.9312C5.76222 20.1136 6.12386 20.9713 6.66163 21.5073C6.92895 21.8038 7.24974 21.9488 7.62398 21.9488C7.86614 21.9488 8.14601 21.8826 8.46678 21.747C9.21526 21.4254 9.65241 21.0974 9.77191 20.76C9.89142 20.4258 9.92599 20.0947 9.87253 19.7731C9.7373 19.0762 9.36935 18.3258 8.76868 17.5185C8.16801 16.7145 7.39753 15.9766 6.46036 15.305V15.3113Z" fill="#848484"/>
</svg>
